<svg xmlns="http://www.w3.org/2000/svg" xmlns:xlink="http://www.w3.org/1999/xlink" version="1.1" x="0px" y="0px" viewBox="0 0 90 112.5" enable-background="new 0 0 90 90" xml:space="preserve"><g><path d="M44.6,13.5c-9.9,0-18.1,8-18.1,17.9v28.2c0,9.9,8.2,17.9,18.1,17.9c9.9,0,17.9-8,17.9-17.9V31.4   C62.5,21.5,54.5,13.5,44.6,13.5z M58.5,59.6c0,7.7-6.2,13.9-13.9,13.9c-7.7,0-14.1-6.2-14.1-13.9V31.4c0-7.7,6.4-13.9,14.1-13.9   c7.7,0,13.9,6.2,13.9,13.9V59.6z M44.5,25.5c-1.1,0-2,0.9-2,2v10c0,1.1,0.9,2,2,2c1.1,0,2-0.9,2-2v-10   C46.5,26.4,45.6,25.5,44.5,25.5z"/></g><text x="0" y="105" fill="#000000" font-size="5px" font-weight="bold" font-family="'Helvetica Neue', Helvetica, Arial-Unicode, Arial, Sans-serif">Created by Joseph Augustine</text><text x="0" y="110" fill="#000000" font-size="5px" font-weight="bold" font-family="'Helvetica Neue', Helvetica, Arial-Unicode, Arial, Sans-serif">from the Noun Project</text></svg>