<svg xmlns="http://www.w3.org/2000/svg" viewBox="0 0 335 108.9" enable-background="new 0 0 335 108.9"><path fill="#650C49" d="M218.7 96v-73c0-2.8 2-5 4.4-5 2.4 0 4.4 2.3 4.4 5v73h-8.8zM212.8 10.8v20.599999999999998c0 .2.1 1 0 .3.5 3.3 6.3 3.3 8.4 3.3 3.6.1 3.6 6.5 0 6.4-4.2 0-9.2-.5-12.2-4.4-.8-1.1-1.5-2.4-1.7-3.8-.1-.5-.1-3.8-.1-2v-20.4c0-4.2 5.6-4.2 5.6 0zM242.1 34v21.599999999999998c-.2 1.5-.6 2.8-1.3 4.1-2.9 4.4-8.2 5-12.6 5.1-3.6.1-3.6-6.4 0-6.4 2.2 0 7.5 0 8.3-3 0 0 0-1.3.1 0-.1-1-.1-1.9-.1-2.9v-18.4c0-4.3 5.6-4.3 5.6-.1zM210.7 7.8v31c-.5-.4-1-.9-1.5-1.4v-29.6c.5-.2 1-.2 1.5 0zM238.3 31c.6-.2 1.4-.2 2 0v29.2c-.6.8-1.3 1.4-2 1.9v-31.1zM208.6 47v20.7c-.1 1.2-.1-.3 0 .4.1.3 1 1.1 2.2 1.5 3.5 1.3 7.9.7 11.6.7 4.8 0 4.8 8.6 0 8.6-7.6 0-20.1 1-21.3-10.5v-.8c.4-3.3 0 1.3 0-.7v-19.8c0-5.6 7.5-5.6 7.5-.1zM217.5 70.4v8.5h-1.4v-8.4c.5-.1.9-.1 1.4-.1zM203.7 43.1c.6-.2 1.2-.2 1.8-.1v33.3c-.6-.4-1.2-.9-1.8-1.5v-31.7zM213.6 8l-1.5 3.2-1-1.1"/><path fill="#650C49" d="M221.6 96v-77.7c.5-.2 1-.3 1.5-.3h.5v78h-2zM216.1 32.7l-1.4 3.2-1.1-1.1M213.6 19.4l-1.5 3.2-1-1.1M227.3 19.9l-1.4 3.2-1.1-1.1M227.3 31.3l-1.4 3.2-1.1-1.1M227.3 44.3l-1.4 3.1-1.1-1.1M227.3 55.6l-1.4 3.2-1.1-1.1M227.3 68.6l-1.4 3.2-1.1-1.2M227.3 79.9l-1.4 3.2-1.1-1.1"/><path fill="#650C49" d="M225.8 94.4l-1-1 2.5-2-1.4 3zM207.2 12.7l1.4 3.1 1.1-1.1M207.2 24l1.4 3.2 1.1-1.1M207.4 45.3l-1.4 3.2-1.1-1.1M207.4 56.7l-1.4 3.1-1.1-1.1M215.3 70.2l-1.4 3.1-1.1-1.1M207.4 68.6l-1.4 3.2-1.1-1.2M201 49.9l1.5 3.2 1.1-1.1M201 61.3l1.5 3.2 1.1-1.1M208.4 74.4l1.5 3.2 1.1-1.1M231.2 58.3l1.5 3.1 1.1-1.1M242.1 30.4l-1.4 3.2-1.1-1.1M242.1 41.8l-1.4 3.1-1.1-1.1M242.1 54l-1.4 3.2-1.1-1.1M235.7 35l1.5 3.2 1-1.1M235.7 46.4l1.5 3.2 1-1.2M220.1 27l1.5 3.2 1.1-1.1M220.1 38.4l1.5 3.2 1.1-1.1M220.1 49.9l1.5 3.2 1.1-1.1M220.1 61.3l1.5 3.2 1.1-1.1M220.1 72.8l1.5 3.2 1.1-1.1M220.1 84.2l1.5 3.2 1.1-1.1"/><path fill="#650C49" d="M248.6 88.5c.8-1.9 1.3-4.2 1.3-6.7 0-6.5-3.4-11.8-7.6-11.8-4.2 0-7.6 5.3-7.6 11.8 0 2.5.5 4.8 1.3 6.7h12.6zM236.7 74c-.5.9-.9 1.8-1.2 2.9v9.9c.2.6.4 1.2.6 1.7h.6v-14.5zM241.5 70.1c-.3.1-.7.1-1 .3v18.2h1v-18.5zM245.4 71c-.5-.3-.9-.6-1.5-.7v18.3h1.5v-17.6zM248.5 74.9v13.6h.1c.8-1.9 1.3-4.2 1.3-6.7.1-2.5-.5-4.9-1.4-6.9zM245.7 70.1l-1.2 2.3-.9-.8M242.5 74.8l.6 2.6-1.2-.1M242.5 81l.6 2.5h-1.2M248.8 81.7l-1.2 2.3-.9-.8M248.8 76.1l-1.2 2.3-.9-.8M238.9 70.1l1.2 2.3.9-.8M235.8 81.7l1.1 2.3.9-.8M236.3 75l1.2 2.4.9-.9"/><path fill="#650C49" d="M59.2 102.2c1.2-2.8 2-6.1 2-9.8 0-9.5-5-17.2-11.1-17.2s-11.1 7.7-11.1 17.2c0 3.6.7 7 1.9 9.8h18.3zM41.8 81c-.7 1.2-1.3 2.7-1.8 4.2v14.5c.3.9.6 1.7.9 2.5h.8v-21.2zM48.9 75.3c-.5.1-1 .2-1.4.4v26.5h1.4v-26.9zM54.5 76.6c-.7-.5-1.4-.8-2.1-1.1v26.6h2.1v-25.5zM59.1 82.4v19.8h.1c1.2-2.8 2-6.1 2-9.8 0-3.7-.8-7.2-2.1-10zM55 75.3l-1.8 3.4-1.3-1.2M50.3 82.2l.9 3.7-1.8-.1M50.3 91.2l.9 3.7-1.8-.1M59.5 92.3l-1.7 3.3-1.3-1.1M59.5 84.1l-1.7 3.3-1.3-1.2M45.1 75.3l1.7 3.4 1.3-1.2M40.5 92.3l1.7 3.3 1.3-1.1M41.3 82.5l1.7 3.4 1.3-1.2"/><path fill="#650C49" d="M256.1 88.1c.5-1.1.8-2.5.8-4 0-3.9-2-7.1-4.6-7.1-2.5 0-4.6 3.2-4.6 7.1 0 1.5.3 2.9.8 4h7.6zM248.9 79.4c-.3.5-.5 1.1-.7 1.7v6c.1.4.2.7.4 1h.3v-8.7zM251.9 77c-.2 0-.4.1-.6.2v10.9h.6v-11.1zM254.2 77.5c-.3-.2-.6-.3-.9-.4v11h.9v-10.6zM256.1 79.9v8.2h.1c.5-1.1.8-2.5.8-4-.1-1.6-.4-3-.9-4.2zM254.4 77l-.7 1.4-.6-.5M252.5 79.8l.3 1.6-.7-.1M252.5 83.5l.3 1.6-.7-.1M256.3 84l-.8 1.4-.5-.5M256.3 80.6l-.8 1.4-.5-.5M250.3 77l.7 1.4.5-.5M248.4 84l.7 1.4.6-.5M248.7 80l.8 1.4.5-.5"/><path fill="#650C49" d="M151.5 92c.7-1.6 1.1-3.6 1.1-5.7 0-5.6-2.9-10.1-6.5-10.1s-6.5 4.5-6.5 10.1c0 2.1.4 4.1 1.1 5.7h10.8zM141.2 79.5c-.4.7-.8 1.6-1 2.5v8.5l.5 1.5h.5v-12.5zM145.4 76.2c-.3 0-.6.1-.8.2v15.6h.8v-15.8zM148.7 77c-.4-.3-.8-.5-1.2-.6v15.6h1.2v-15zM151.4 80.3v11.7h.1c.7-1.6 1.1-3.6 1.1-5.7 0-2.3-.4-4.3-1.2-6zM149 76.2l-1.1 2-.7-.7M146.2 80.3l.5 2.1h-1M146.2 85.5l.5 2.2h-1M151.6 86.2l-1 1.9-.7-.7M151.6 81.3l-1 2-.7-.7M143.1 76.2l1.1 2 .7-.7M140.4 86.2l1.1 1.9.7-.7M140.9 80.4l1 2 .8-.7"/><path fill="#650C49" d="M183.9 93.9c.6-1.3.9-3 .9-4.7 0-4.6-2.4-8.3-5.4-8.3-3 0-5.4 3.7-5.4 8.3 0 1.7.3 3.4.9 4.7h9zM175.5 83.7c-.3.6-.6 1.3-.9 2v7l.4 1.2h.4v-10.2zM178.9 80.9c-.2 0-.5.1-.7.2v12.8h.7v-13zM181.6 81.6c-.3-.2-.7-.4-1-.5v12.8h1v-12.3zM183.8 84.3v9.6h.1c.6-1.3.9-3 .9-4.7 0-1.8-.3-3.5-1-4.9zM181.8 80.9l-.8 1.7-.6-.6M179.6 84.3l.4 1.7h-.8M179.6 88.6l.4 1.8h-.8M184 89.1l-.8 1.6-.6-.5M184 85.1l-.8 1.7-.6-.6M177.1 80.9l.8 1.7.6-.6M174.9 89.1l.8 1.6.6-.5M175.2 84.4l.9 1.6.6-.5"/><path fill="#650C49" d="M307.9 96.9c.6-1.3.9-3 .9-4.7 0-4.6-2.4-8.3-5.4-8.3-3 0-5.4 3.7-5.4 8.3 0 1.7.3 3.4.9 4.7h9zM299.5 86.7c-.3.6-.6 1.3-.9 2v7l.4 1.2h.4v-10.2zM302.9 83.9c-.2 0-.5.1-.7.2v12.8h.7v-13zM305.6 84.6c-.3-.2-.7-.4-1-.5v12.8h1v-12.3zM307.8 87.3v9.6h.1c.6-1.3.9-3 .9-4.7 0-1.8-.4-3.5-1-4.9zM305.8 83.9l-.8 1.6-.7-.5M303.6 87.2l.4 1.8h-.9M303.6 91.6l.4 1.8-.9-.1M308 92.1l-.8 1.6-.7-.5M308 88.1l-.8 1.7-.7-.6M301 83.9l.9 1.6.6-.5M298.8 92.1l.9 1.6.6-.5M299.2 87.4l.8 1.6.7-.5"/><path fill="#650C49" d="M40.8 102.5c.9-2 1.4-4.4 1.4-6.9 0-6.8-3.5-12.3-7.9-12.3s-7.9 5.5-7.9 12.3c0 2.6.5 5 1.4 6.9h13zM28.4 87.4c-.5.9-.9 1.9-1.3 3v10.3c.2.6.4 1.2.7 1.8h.6v-15.1zM33.4 83.4l-1 .3v18.8h1v-19.1zM37.5 84.3c-.5-.3-1-.6-1.5-.8v18.9h1.5v-18.1zM40.7 88.4v14.1h.1c.9-2 1.4-4.4 1.4-6.9 0-2.7-.5-5.2-1.5-7.2zM37.8 83.4l-1.2 2.4-1-.9M34.5 88.3l.6 2.6h-1.2M34.5 94.7l.6 2.6h-1.2M41 95.5l-1.2 2.4-.9-.9M41 89.6l-1.2 2.4-.9-.8M30.7 83.4l1.3 2.4.9-.9M27.5 95.5l1.2 2.4 1-.9M28 88.5l1.3 2.4.9-.8"/></svg>