<svg xmlns="http://www.w3.org/2000/svg" viewBox="0 0 335 108.9" enable-background="new 0 0 335 108.9"><path fill="#881F68" d="M45.6 79.9v-49.8c0-1.9-1.3-3.4-3-3.4s-3 1.5-3 3.4v49.8h6zM49.7 21.7v14.2c0 .1-.1.7 0 .2-.4 2.3-4.3 2.2-5.7 2.3-2.5.1-2.5 4.4 0 4.4 2.9-.1 6.3-.4 8.3-3.1.6-.7 1-1.7 1.1-2.6.1-.4.1-2.6.1-1.4v-13.9c0-2.9-3.8-2.9-3.8-.1zM29.7 37.6v14.700000000000001c.1 1 .4 1.9.9 2.8 2 3 5.6 3.4 8.6 3.5 2.5.1 2.5-4.3 0-4.4-1.5 0-5.1 0-5.7-2 0 0 0-.9-.1 0 .1-.7.1-1.3.1-2v-12.6c0-2.9-3.8-2.9-3.8 0zM51.1 19.7v21.1c.4-.3.7-.6 1-1v-20.1c-.3-.1-.7-.1-1 0zM32.3 35.6c-.4-.2-.9-.2-1.4 0v19.9c.4.5.9 1 1.4 1.3v-21.2zM52.6 46.5v14.1c.1.8.1-.2 0 .2 0 .2-.7.7-1.5 1-2.4.9-5.4.5-7.9.5-3.3 0-3.3 5.8 0 5.8 5.2 0 13.7.7 14.6-7.2v-.5c-.2-2.3 0 .9 0-.5v-13.5c-.1-3.7-5.2-3.7-5.2.1zM46.5 62.4v5.8h.9v-5.7c-.3-.1-.6-.1-.9-.1zM55.9 43.8c-.4-.1-.8-.2-1.2-.1v22.7c.4-.3.8-.6 1.2-1v-21.6zM49.2 19.9l.9 2.1.8-.7"/><path fill="#881F68" d="M43.7 79.9v-53c-.3-.1-.7-.2-1-.2h-.3v53.2h1.3zM47.4 36.7l1 2.2.8-.8M49.2 27.6l.9 2.2.8-.8M39.8 28l1 2.2.7-.8M39.8 35.7l1 2.2.7-.8M39.8 44.6l1 2.1.7-.7M39.8 52.3l1 2.2.7-.8M39.8 61.2l1 2.1.7-.7M39.8 68.9l1 2.2.7-.8"/><path fill="#881F68" d="M40.8 78.8l.7-.7-1.7-1.4 1 2.1zM53.5 23l-1 2.2-.7-.8M53.5 30.8l-1 2.1-.7-.7M53.3 45.3l1 2.2.8-.8M53.3 53l1 2.2.8-.7M48 62.3l1 2.1.7-.7M53.3 61.2l1 2.1.8-.7M57.7 48.5l-1 2.1-.7-.7M57.7 56.2l-1 2.2-.7-.8M52.7 65.2l-1 2.1-.8-.7M37.1 54.1l-1 2.2-.7-.8M29.7 35.1l1 2.2.7-.8M29.7 42.9l1 2.1.7-.7M29.7 51.2l1 2.2.7-.7M34 38.3l-.9 2.1-.8-.7M34 46l-.9 2.2-.8-.8M44.7 32.8l-1 2.2-.7-.8M44.7 40.6l-1 2.1-.7-.7M44.7 48.5l-1 2.1-.7-.7M44.7 56.2l-1 2.2-.7-.8M44.7 64.1l-1 2.1-.7-.7M44.7 71.8l-1 2.2-.7-.8"/><path fill="#881F68" d="M149.7 89.5v-57.9c0-2.2-1.6-4-3.5-4s-3.5 1.8-3.5 4v57.9h7zM154.4 21.9v16.4c0 .1-.1.8 0 .3-.4 2.6-5 2.6-6.7 2.6-2.9.1-2.9 5.2 0 5.1 3.4-.1 7.3-.5 9.7-3.6.7-.9 1.2-1.9 1.3-3.1.1-.4.1-3 .1-1.6v-16.2c.1-3.2-4.4-3.2-4.4.1zM131.1 40.3v17.099999999999998c.1 1.2.4 2.2 1.1 3.2 2.3 3.5 6.5 4 10 4.1 2.9.1 2.9-5 0-5.1-1.7 0-5.9 0-6.6-2.4 0 0 0-1.1-.1 0 .1-.8.1-1.5.1-2.3v-14.6c0-3.3-4.5-3.3-4.5 0zM156 19.5v24.6c.4-.3.8-.7 1.2-1.1v-23.5c-.3-.1-.8-.1-1.2 0zM134.2 38c-.5-.2-1.1-.2-1.6 0v23.2c.5.6 1 1.1 1.6 1.5v-24.7zM157.7 50.7v16.4c.1.9.1-.3 0 .3-.1.3-.8.8-1.8 1.2-2.8 1-6.3.5-9.2.5-3.8 0-3.8 6.8 0 6.8 6 0 16 .8 16.9-8.3v-.6c-.3-2.7 0 1 0-.6v-15.6c.1-4.5-5.9-4.5-5.9-.1zM150.7 69.2v6.7h1.1v-6.7h-1.1zM161.6 47.5c-.5-.1-.9-.2-1.4-.1v26.4c.5-.3 1-.7 1.4-1.2v-25.1zM153.8 19.7l1.1 2.6.9-.9"/><path fill="#881F68" d="M147.4 89.5v-61.7c-.4-.2-.8-.3-1.2-.3h-.4v61.9h1.6zM151.8 39.3l1.1 2.5.9-.9M153.8 28.7l1.1 2.6.9-.9M142.9 29.2l1.1 2.5.9-.9M142.9 38.2l1.1 2.5.9-.9M142.9 48.5l1.1 2.5.9-.9M142.9 57.5l1.1 2.5.9-.9M142.9 67.7l1.1 2.6.9-.9M142.9 76.8l1.1 2.5.9-.9"/><path fill="#881F68" d="M144.1 88.3l.8-.8-2-1.7 1.1 2.5zM158.9 23.4l-1.2 2.5-.8-.9M158.9 32.4l-1.2 2.5-.8-.8M158.6 49.3l1.2 2.5.8-.9M158.6 58.3l1.2 2.5.8-.9M152.4 69l1.2 2.5.8-.9M158.6 67.7l1.2 2.6.8-.9M163.7 53l-1.1 2.5-.9-.9M163.7 62l-1.1 2.5-.9-.9M157.9 72.4l-1.2 2.5-.8-.9M139.8 59.6l-1.2 2.5-.8-.9M131.1 37.5l1.2 2.5.8-.9M131.1 46.5l1.2 2.5.8-.9M131.1 56.2l1.2 2.5.8-.9M136.2 41.1l-1.1 2.6-.9-.9M136.2 50.1l-1.1 2.6-.9-.9M148.6 34.8l-1.2 2.5-.8-.9M148.6 43.8l-1.2 2.5-.8-.9M148.6 53l-1.2 2.5-.8-.9M148.6 62l-1.2 2.5-.8-.9M148.6 71.1l-1.2 2.6-.8-.9M148.6 80.1l-1.2 2.6-.8-.9"/><path fill="#881F68" d="M307.5 90.6c.6-1.5 1-3.2 1-5.2 0-5-2.6-9.1-5.9-9.1-3.2 0-5.9 4.1-5.9 9.1 0 1.9.4 3.7 1 5.2h9.8zM298.3 79.4c-.4.7-.7 1.4-.9 2.2v7.6c.1.5.3.9.5 1.3h.4v-11.1zM302 76.4c-.3 0-.5.1-.7.2v14h.7v-14.2zM305 77.1l-1.1-.6v14.1h1.1v-13.5zM307.4 80.1v10.5h.1c.6-1.5 1-3.2 1-5.2 0-1.9-.4-3.8-1.1-5.3zM305.2 76.4l-.9 1.8-.7-.7M302.8 80l.4 2h-.9M302.8 84.8l.4 1.9h-.9M307.6 85.4l-.9 1.7-.7-.6M307.6 81l-.9 1.8-.7-.6M300 76.4l.9 1.8.7-.7M297.6 85.4l.9 1.7.7-.6M298 80.2l.9 1.8.7-.6"/><path fill="#881F68" d="M100.5 88c.6-1.5 1-3.2 1-5.2 0-5-2.6-9.1-5.9-9.1-3.2 0-5.9 4.1-5.9 9.1 0 1.9.4 3.7 1 5.2h9.8zM91.3 76.8c-.4.7-.7 1.4-.9 2.2v7.6c.1.5.3.9.5 1.3h.4v-11.1zM95 73.8c-.3 0-.5.1-.7.2v14h.7v-14.2zM98 74.5l-1.1-.6v14.1h1.1v-13.5zM100.4 77.6v10.4h.1c.6-1.5 1-3.2 1-5.2 0-1.9-.4-3.8-1.1-5.2zM98.2 73.8l-.9 1.8-.7-.6M95.8 77.5l.4 1.9h-.9M95.8 82.2l.4 2-.9-.1M100.7 82.8l-1 1.8-.7-.7M100.7 78.4l-1 1.8-.7-.6M93 73.8l.9 1.8.7-.6M90.6 82.8l.9 1.8.7-.7M91 77.6l.9 1.8.7-.6"/><path fill="#881F68" d="M105.3 86.3c.4-1 .7-2.1.7-3.3 0-3.3-1.7-5.9-3.8-5.9-2.1 0-3.8 2.6-3.8 5.9 0 1.2.2 2.4.7 3.3h6.2zM99.3 79.1c-.2.4-.5.9-.6 1.4v5l.3.9h.3v-7.3zM101.8 77.1l-.5.1v9.1h.5v-9.2zM103.7 77.6c-.2-.2-.5-.3-.7-.4v9.1h.7v-8.7zM105.3 79.5v6.8c.4-1 .7-2.1.7-3.3 0-1.3-.3-2.5-.7-3.5zM103.9 77.1l-.6 1.2-.5-.4M102.3 79.5l.3 1.2h-.6M102.3 82.5l.3 1.3h-.6M105.4 82.9l-.6 1.2-.4-.4M105.4 80.1l-.6 1.2-.4-.4M100.5 77.1l.6 1.2.4-.4M98.9 82.9l.6 1.2.4-.4M99.2 79.6l.6 1.1.4-.4"/><path fill="#881F68" d="M196.1 78c.4-1 .7-2.1.7-3.3 0-3.3-1.7-5.9-3.8-5.9-2.1 0-3.8 2.6-3.8 5.9 0 1.2.2 2.4.7 3.3h6.2zM190.1 70.7c-.2.4-.5.9-.6 1.4v5l.3.9h.3v-7.3zM192.5 68.8l-.5.1v9.1h.5v-9.2zM194.5 69.2c-.2-.2-.5-.3-.7-.4v9.2h.7v-8.8zM196.1 71.2v6.8c.4-1 .7-2.1.7-3.3 0-1.3-.3-2.5-.7-3.5zM194.6 68.8l-.6 1.1-.4-.4M193 71.2l.3 1.2h-.6M193 74.2l.3 1.3h-.6M196.2 74.6l-.6 1.2-.4-.4M196.2 71.8l-.6 1.1-.4-.4M191.2 68.8l.6 1.1.5-.4M189.7 74.6l.6 1.2.4-.4M189.9 71.3l.6 1.1.5-.4"/><path fill="#881F68" d="M34.5 79.3c.4-1 .7-2.1.7-3.3 0-3.3-1.7-5.9-3.8-5.9-2.1 0-3.8 2.6-3.8 5.9 0 1.2.2 2.4.7 3.3h6.2zM28.6 72.1c-.2.4-.4.9-.6 1.4v5l.3.9h.3v-7.3zM31 70.1l-.5.1v9.1h.5v-9.2zM32.9 70.6c-.2-.2-.5-.3-.7-.4v9.1h.7v-8.7zM34.5 72.5v6.8c.4-1 .7-2.1.7-3.3 0-1.3-.3-2.5-.7-3.5zM33.1 70.1l-.6 1.2-.5-.4M31.5 72.5l.3 1.3-.6-.1M31.5 75.6l.3 1.2h-.6M34.6 75.9l-.6 1.2-.4-.4M34.6 73.1l-.6 1.2-.4-.4M29.7 70.1l.6 1.2.4-.4M28.1 75.9l.6 1.2.4-.4M28.4 72.6l.6 1.2.4-.4"/></svg>