<svg xmlns="http://www.w3.org/2000/svg" viewBox="0 0 335 108.9" enable-background="new 0 0 335 108.9"><path fill="#BE4198" d="M257.1 76.7v-36.3c0-1.4-1-2.5-2.2-2.5-1.2 0-2.2 1.1-2.2 2.5v36.3h4.4zM260 34.3v10.499999999999998c-.3 1.7-3.1 1.6-4.2 1.6-1.8 0-1.8 3.2 0 3.2 2.1 0 4.6-.3 6.1-2.2.4-.5.7-1.2.8-1.9 0-.3.1-1.9.1-1v-10.2c0-2.1-2.8-2.1-2.8 0zM245.4 45.8v10.799999999999999c.1.7.3 1.4.7 2 1.4 2.2 4.1 2.5 6.3 2.6 1.8 0 1.8-3.2 0-3.2-1.1 0-3.7 0-4.1-1.5 0 0 0-.7-.1 0 .1-.5.1-.9.1-1.4v-9.2c-.1-2.1-2.9-2.1-2.9-.1zM261 32.8v15.4c.3-.2.5-.4.7-.7v-14.7c-.2-.1-.4-.1-.7 0zM247.3 44.4c-.3-.1-.7-.1-1 0v14.5c.3.4.6.7 1 1v-15.5zM262.1 52.3v10.299999999999999c0 .6.1-.2 0 .2 0 .2-.5.5-1.1.8-1.8.6-3.9.3-5.8.3-2.4 0-2.4 4.3 0 4.3 3.8 0 10 .5 10.6-5.2v-.4c-.2-1.7 0 .7 0-.4v-9.9c0-2.7-3.7-2.7-3.7 0zM257.7 64v4.2h.7v-4.2h-.7zM264.5 50.4c-.3-.1-.6-.1-.9-.1v16.5c.3-.2.6-.5.9-.8v-15.6zM259.6 32.9l.7 1.6.6-.5"/><path fill="#BE4198" d="M255.6 76.7v-38.7c-.2-.1-.5-.2-.8-.2h-.2v38.8h1zM258.4 45.2l.7 1.6.5-.6M259.6 38.6l.7 1.6.6-.6M252.8 38.8l.7 1.6.5-.5M252.8 44.5l.7 1.6.5-.6M252.8 50.9l.7 1.6.5-.5M252.8 56.6l.7 1.6.5-.6M252.8 63l.7 1.6.5-.5M252.8 68.7l.7 1.6.5-.6"/><path fill="#BE4198" d="M253.6 75.9l.4-.5-1.2-1 .7 1.5zM262.8 35.2l-.7 1.6-.5-.5M262.8 40.9l-.7 1.6-.5-.6M262.7 51.5l.7 1.5.5-.5M262.7 57.1l.7 1.6.5-.6M258.8 63.8l.7 1.6.5-.5M262.7 63l.7 1.6.5-.5M265.9 53.8l-.8 1.5-.5-.5M265.9 59.4l-.8 1.6-.5-.6M262.2 66l-.7 1.5-.6-.5M250.8 57.9l-.7 1.6-.5-.6M245.4 44l.7 1.6.6-.5M245.4 49.7l.7 1.6.6-.6M245.4 55.8l.7 1.6.6-.6M248.6 46.3l-.7 1.6-.6-.5M248.6 52l-.7 1.6-.6-.6M256.4 42.4l-.8 1.6-.5-.6M256.4 48l-.8 1.6-.5-.5M256.4 53.8l-.8 1.5-.5-.5M256.4 59.4l-.8 1.6-.5-.6M256.4 65.2l-.8 1.5-.5-.5M256.4 70.8l-.8 1.6-.5-.6"/><path fill="#BE4198" d="M60.6 77.1c.3-.8.5-1.7.5-2.6 0-2.6-1.3-4.6-3-4.6s-3 2.1-3 4.6c0 1 .2 1.9.5 2.6h5zM55.9 71.4c-.2.3-.4.7-.5 1.1v3.9c.1.2.2.5.2.7h.2v-5.7zM57.8 69.9l-.4.1v7.1h.4v-7.2zM59.3 70.2l-.6-.3v7.2h.6v-6.9zM60.5 71.8v5.3c.3-.8.5-1.7.5-2.6.1-1-.1-2-.5-2.7zM59.4 69.9l-.4.9-.4-.3M58.2 71.7l.2 1h-.5M58.2 74.2l.2 1-.5-.1M60.7 74.5l-.5.9-.4-.4M60.7 72.2l-.5.9-.4-.3M56.8 69.9l.4.9.4-.3M55.5 74.5l.5.9.3-.4M55.7 71.8l.5.9.4-.3"/><path fill="#BE4198" d="M165.4 76c.3-.8.5-1.7.5-2.6 0-2.6-1.3-4.7-3-4.7s-3 2.1-3 4.7c0 1 .2 1.9.5 2.6h5zM160.7 70.3c-.2.3-.4.7-.5 1.1v3.9c.1.2.2.5.2.7h.2v-5.7zM162.6 68.7l-.4.1v7.2h.4v-7.3zM164.2 69.1l-.6-.3v7.2h.6v-6.9zM165.4 70.6v5.4c.3-.8.5-1.7.5-2.6.1-1.1-.1-2-.5-2.8zM164.3 68.7l-.5.9-.3-.3M163 70.6l.3 1h-.5M163 73l.3 1h-.5M165.5 73.3l-.4.9-.4-.3M165.5 71.1l-.4.9-.4-.3M161.6 68.7l.5.9.3-.3M160.4 73.3l.4.9.4-.3M160.6 70.7l.5.9.3-.3"/><path fill="#BE4198" d="M279.4 71.6c.3-.7.5-1.7.5-2.6 0-2.6-1.3-4.7-3-4.7s-3 2.1-3 4.7c0 1 .2 1.9.5 2.6h5zM274.7 65.9c-.2.3-.4.7-.5 1.1v3.9c.1.2.2.5.2.7h.2v-5.7zM276.6 64.4l-.4.1v7.1h.4v-7.2zM278.2 64.7l-.6-.3v7.2h.6v-6.9zM279.4 66.3v5.3c.3-.7.5-1.7.5-2.6.1-1-.1-2-.5-2.7zM278.3 64.4l-.5.9-.3-.4M277 66.2l.3 1h-.5M277 68.6l.3 1h-.5M279.5 68.9l-.4.9-.4-.3M279.5 66.7l-.4.9-.4-.3M275.6 64.4l.5.9.3-.4M274.4 68.9l.5.9.3-.3M274.6 66.3l.5.9.3-.3"/><path fill="#BE4198" d="M161.2 75.9c.5-1.1.8-2.5.8-4 0-3.9-2-7-4.5-7s-4.5 3.1-4.5 7c0 1.5.3 2.8.8 4h7.4zM154.1 67.3c-.3.5-.5 1.1-.7 1.7v5.9c.1.4.2.7.4 1h.3v-8.6zM157 65c-.2 0-.4.1-.6.2v10.8h.6v-11zM159.3 65.5c-.3-.2-.6-.3-.9-.4v10.8h.9v-10.4zM161.2 67.8v8.1h.1c.5-1.1.8-2.5.8-4-.1-1.5-.4-2.9-.9-4.1zM159.5 65l-.7 1.3-.6-.4M157.6 67.8l.3 1.5h-.7M157.6 71.4l.3 1.5h-.7M161.3 71.9l-.7 1.3-.5-.4M161.3 68.5l-.7 1.4-.5-.5M155.4 65l.7 1.3.6-.4M153.6 71.9l.7 1.3.5-.4M153.9 67.9l.7 1.4.5-.5"/><path fill="#BE4198" d="M89.2 70.6c.3-.7.5-1.7.5-2.6 0-2.6-1.3-4.7-3-4.7s-3 2.1-3 4.7c0 1 .2 1.9.5 2.6h5zM84.5 64.9c-.2.3-.4.7-.5 1.1v4c.1.2.2.5.2.7h.2v-5.8zM86.4 63.4l-.4.1v7.1h.4v-7.2zM87.9 63.7l-.6-.3v7.2h.6v-6.9zM89.1 65.3v5.3c.3-.7.5-1.7.5-2.6.1-1-.1-1.9-.5-2.7zM88 63.4l-.5.9-.3-.3M86.8 65.2l.2 1h-.5M86.8 67.7l.2 1h-.5M89.2 68l-.4.9-.4-.3M89.2 65.7l-.4 1-.4-.4M85.3 63.4l.5.9.4-.3M84.1 68l.5.9.3-.3M84.3 65.3l.5.9.3-.3"/><path fill="#BE4198" d="M84.1 72.4c.5-1.1.8-2.5.8-4 0-3.9-2-7-4.5-7s-4.5 3.1-4.5 7c0 1.5.3 2.8.8 4h7.4zM76.9 63.8c-.3.5-.5 1.1-.7 1.7v5.9c.1.4.2.7.4 1h.3v-8.6zM79.8 61.5c-.2 0-.4.1-.6.2v10.8h.6v-11zM82.1 62c-.3-.2-.6-.3-.9-.4v10.8h.9v-10.4zM84 64.3v8.1h.1c.5-1.1.8-2.5.8-4-.1-1.5-.4-2.9-.9-4.1zM82.3 61.5l-.7 1.3-.5-.4M80.4 64.3l.4 1.5h-.7M80.4 67.9l.4 1.5h-.7M84.2 68.4l-.7 1.3-.6-.4M84.2 65l-.7 1.4-.6-.5M78.3 61.5l.7 1.3.5-.4M76.4 68.4l.7 1.3.5-.4M76.7 64.4l.7 1.4.6-.5"/></svg>