<svg xmlns="http://www.w3.org/2000/svg" viewBox="0 0 335 108.9" enable-background="new 0 0 335 108.9"><path fill="#FFE0E8" d="M281.8 72.7s2.7-9.5 17.1-8.2c14.4 1.3 12.2 8.2 12.2 8.2s14.5-.4 13.1 4.3c-1.4 4.7-11.5 6.3-18.2 5.1 0 0-15.3 6.3-26 1s-4.9-10.4 1.8-10.4z"/><path fill="#fff" d="M306.9 79.7s-15.3 6.3-26 1c-4-2-5.7-3.9-5.9-5.6-1.8 2-1.1 5 5 8 10.7 5.3 26-1 26-1 6.7 1.1 16.8-.4 18.2-5.1.1-.3.1-.6.1-.9-2.9 3.4-11.5 4.6-17.4 3.6z" opacity=".2"/><path fill="#FFE0E8" d="M182 36.8s5.7-9.5 21.6-1l2.2.2s6.9-10.6 22.5-6.2c0 0 4-8.9 18.7-5.4 14.7 3.4 12.7 12.5 12.7 12.5s5.7 3.3 4.9 8.7c-.6 3.8-2.9 6.5-11.5 6.6 0 0-1.4 14.9-30 3.2 0 0-29.8 9.1-37.1-5.2 0 0-15.9-.7-16.4-6.3-.3-5.7 12.4-7.1 12.4-7.1z"/><path fill="#fff" d="M254.4 48.7s-1.4 14.9-30 3.2c0 0-29.8 9.1-37.1-5.2 0 0-15.2-.7-16.3-6-.9.8-1.4 1.8-1.3 3 .5 5.6 16.4 6.3 16.4 6.3 7.3 14.3 37.1 5.2 37.1 5.2 28.6 11.7 30-3.2 30-3.2 8.7-.2 10.9-2.8 11.5-6.6v-.2c-1.4 2.1-4.4 3.4-10.3 3.5z" opacity=".2"/></svg>