<svg xmlns="http://www.w3.org/2000/svg" viewBox="0 0 335 108.9" enable-background="new 0 0 335 108.9"><path fill="#FFE0E8" d="M169.4 76.9s2.4-8.5 15.3-7.4c12.9 1.1 11 7.4 11 7.4s13-.4 11.7 3.8c-1.3 4.2-10.3 5.6-16.3 4.6 0 0-13.8 5.6-23.3.9-9.6-4.7-4.4-9.3 1.6-9.3zM36.1 67.4s4.3-7.2 16.5-.8l1.7.2s5.3-8.1 17.2-4.8c0 0 3.1-6.8 14.3-4.2 11.2 2.6 9.7 9.5 9.7 9.5s4.3 2.5 3.7 6.6c-.4 2.9-2.2 5-8.8 5.1 0 0-1.1 11.4-22.9 2.5 0 0-22.8 6.9-28.3-4 0 0-12.2-.5-12.5-4.8-.4-4.3 9.4-5.3 9.4-5.3z"/><path fill="#fff" d="M191.9 83.1s-13.8 5.6-23.3.9c-3.6-1.8-5.1-3.5-5.3-5-1.6 1.8-1 4.4 4.5 7.2 9.6 4.7 23.3-.9 23.3-.9 6 1 15-.4 16.3-4.6.1-.3.1-.6.1-.8-2.6 3.1-10.3 4.2-15.6 3.2z" opacity=".2"/><path fill="#FFE0E8" d="M52.2 29.2s2.7-9.5 17-8.2c14.4 1.3 12.2 8.2 12.2 8.2s14.5-.4 13.1 4.3c-1.4 4.7-11.5 6.3-18.2 5.1 0 0-15.3 6.3-26 1-10.6-5.3-4.8-10.4 1.9-10.4z"/><path fill="#fff" d="M77.2 36.2s-15.3 6.3-26 1c-4-2-5.7-3.9-5.9-5.6-1.8 2-1.1 5 5 8 10.7 5.3 26-1 26-1 6.7 1.1 16.8-.4 18.2-5.1.1-.3.1-.6.1-.9-2.8 3.5-11.5 4.6-17.4 3.6zM91.4 76.5s-1.1 11.4-22.9 2.5c0 0-22.8 6.9-28.3-4 0 0-11.6-.5-12.5-4.6-.7.6-1 1.4-1 2.3.3 4.3 12.5 4.8 12.5 4.8 5.6 10.9 28.3 4 28.3 4 21.9 8.9 22.9-2.5 22.9-2.5 6.6-.1 8.4-2.2 8.8-5.1v-.1c-1 1.6-3.3 2.6-7.8 2.7z" opacity=".2"/></svg>