<svg xmlns="http://www.w3.org/2000/svg" xmlns:xlink="http://www.w3.org/1999/xlink" viewBox="0 0 336 235.2" enable-background="new 0 0 336 235.2"><defs><path id="a" d="M.1-.7h335.9v235.2h-335.9z"/></defs><clipPath id="b"><use xlink:href="#a" overflow="visible"/></clipPath><path clip-path="url(#b)" fill="#FF9ED3" d="M.1-.4h335.9v3.7h-335.9z"/><path clip-path="url(#b)" fill="#FF9FD2" d="M.1 3.2h335.9v3.7h-335.9z"/><path clip-path="url(#b)" fill="#FFA0D2" d="M.1 6.9h335.9v3.7h-335.9z"/><path clip-path="url(#b)" fill="#FFA1D1" d="M.1 10.6h335.9v3.7h-335.9z"/><path clip-path="url(#b)" fill="#FFA2D0" d="M.1 14.3h335.9v3.7h-335.9z"/><path clip-path="url(#b)" fill="#FFA3D0" d="M.1 17.9h335.9v3.7h-335.9z"/><path clip-path="url(#b)" fill="#FFA4CF" d="M.1 21.6h335.9v3.7h-335.9z"/><path clip-path="url(#b)" fill="#FFA5CF" d="M.1 25.3h335.9v3.7h-335.9z"/><path clip-path="url(#b)" fill="#FFA6CE" d="M.1 29h335.9v3.7h-335.9z"/><path clip-path="url(#b)" fill="#FFA7CD" d="M.1 32.6h335.9v3.7h-335.9z"/><path clip-path="url(#b)" fill="#FFA8CD" d="M.1 36.3h335.9v3.7h-335.9z"/><path clip-path="url(#b)" fill="#FFA9CC" d="M.1 40h335.9v3.7h-335.9z"/><path clip-path="url(#b)" fill="#FFAACB" d="M.1 43.7h335.9v3.7h-335.9z"/><path clip-path="url(#b)" fill="#FFABCB" d="M.1 47.3h335.9v3.7h-335.9z"/><path clip-path="url(#b)" fill="#FFACCA" d="M.1 51h335.9v3.7h-335.9z"/><path clip-path="url(#b)" fill="#FFADC9" d="M.1 54.7h335.9v3.7h-335.9z"/><path clip-path="url(#b)" fill="#FFAEC9" d="M.1 58.4h335.9v3.7h-335.9z"/><path clip-path="url(#b)" fill="#FFAFC8" d="M.1 62.1h335.9v3.7h-335.9z"/><path clip-path="url(#b)" fill="#FFB0C8" d="M.1 65.7h335.9v3.7h-335.9z"/><path clip-path="url(#b)" fill="#FFB1C7" d="M.1 69.4h335.9v3.7h-335.9z"/><path clip-path="url(#b)" fill="#FFB2C6" d="M.1 73.1h335.9v3.7h-335.9z"/><path clip-path="url(#b)" fill="#FFB3C6" d="M.1 76.8h335.9v3.7h-335.9z"/><path clip-path="url(#b)" fill="#FFB5C5" d="M.1 80.4h335.9v3.7h-335.9z"/><path clip-path="url(#b)" fill="#FFB6C4" d="M.1 84.1h335.9v3.7h-335.9z"/><path clip-path="url(#b)" fill="#FFB7C4" d="M.1 87.8h335.9v3.7h-335.9z"/><path clip-path="url(#b)" fill="#FFB8C3" d="M.1 91.5h335.9v3.7h-335.9z"/><path clip-path="url(#b)" fill="#FFB9C2" d="M.1 95.1h335.9v3.7h-335.9z"/><path clip-path="url(#b)" fill="#FFBAC2" d="M.1 98.8h335.9v3.7h-335.9z"/><path clip-path="url(#b)" fill="#FFBBC1" d="M.1 102.5h335.9v3.7h-335.9z"/><path clip-path="url(#b)" fill="#FFBCC1" d="M.1 106.2h335.9v3.7h-335.9z"/><path clip-path="url(#b)" fill="#FFBDC0" d="M.1 109.8h335.9v3.7h-335.9z"/><path clip-path="url(#b)" fill="#FFBEBF" d="M.1 113.5h335.9v3.7h-335.9z"/><path clip-path="url(#b)" fill="#FFBFBF" d="M.1 117.2h335.9v3.7h-335.9z"/><path clip-path="url(#b)" fill="#FFC0BE" d="M.1 120.9h335.9v3.7h-335.9z"/><path clip-path="url(#b)" fill="#FFC1BD" d="M.1 124.5h335.9v3.7h-335.9z"/><path clip-path="url(#b)" fill="#FFC2BD" d="M.1 128.2h335.9v3.7h-335.9z"/><path clip-path="url(#b)" fill="#FFC3BC" d="M.1 131.9h335.9v3.7h-335.9z"/><path clip-path="url(#b)" fill="#FFC4BB" d="M.1 135.6h335.9v3.7h-335.9z"/><path clip-path="url(#b)" fill="#FFC5BB" d="M.1 139.2h335.9v3.7h-335.9z"/><path clip-path="url(#b)" fill="#FFC6BA" d="M.1 142.9h335.9v3.7h-335.9z"/><path clip-path="url(#b)" fill="#FFC7BA" d="M.1 146.6h335.9v3.7h-335.9z"/><path clip-path="url(#b)" fill="#FFC8B9" d="M.1 150.3h335.9v3.7h-335.9z"/><path clip-path="url(#b)" fill="#FFC9B8" d="M.1 154h335.9v3.7h-335.9z"/><path clip-path="url(#b)" fill="#FFCAB8" d="M.1 157.6h335.9v3.7h-335.9z"/><path clip-path="url(#b)" fill="#FFCBB7" d="M.1 161.3h335.9v3.7h-335.9zM.1 165h335.9v69.5h-335.9z"/></svg>