<svg viewBox="0 0 100 100" xmlns="http://www.w3.org/2000/svg" class="hide"><defs><linearGradient id="svgstore58977f6f1c0b198007a2fce35ab67093a" gradientUnits="userSpaceOnUse" x1="206.731" y1="221.727" x2="-1.028" y2="31.393"><stop offset="0" stop-color="#49C1F0"/><stop offset="1" stop-color="#74B737"/></linearGradient><linearGradient id="svgstore58977f6f1c0b198007a2fce35ab67093b" gradientUnits="userSpaceOnUse" x1="213.577" y1="184.298" x2="12.329" y2="-.072"><stop offset="0" stop-color="#49C1F0"/><stop offset="1" stop-color="#74B737"/></linearGradient><linearGradient id="svgstore58977f6f1c0b198007a2fce35ab67093c" gradientUnits="userSpaceOnUse" x1="242.991" y1="115.523" x2="67.21" y2="-45.514"><stop offset="0" stop-color="#49C1F0"/><stop offset="1" stop-color="#74B737"/></linearGradient></defs><symbol viewBox="0 0 100 100" id="icon__about"><title>about</title> <path fill="#FEC780" d="M39.153,53.633c1.632,1.181,4.034,1.631,5.83,2.04c0.792,0.177,1.556,0.33,2.31,0.463
	c-0.866,3.25-1.342,6.636-1.811,9.706c-1.154,7.545-2.361,14.198-1.886,21.883c0.062,1.002,1.593,1.662,2.089,0.565
	c2.895-6.379,5.136-13.394,8.417-19.546c3.215-6.034,7.969-11.93,8.329-19.018c0.142-2.825-1.808-4.714-4.146-5.284
	c-1.288-1.268-3.067-2.013-4.958-2.136c-1.801-0.117-3.513,0.332-5.193,0.935c3.143-9.23,3.838-19.868,2.635-28.936
	c-0.21-1.585-2.293-2.036-2.864-0.387c-1.977,5.707-3.778,11.422-5.698,17.145c-1.917,5.709-4.729,11.254-6.301,17.035
	C35.158,50.854,36.944,52.99,39.153,53.633z"/> <path fill="#505F7D" d="M31.692,56.817l12.706,0.81l-3.26,38.56c-0.068,0.801,0.445,1.532,1.219,1.74
	c0.144,0.04,0.287,0.057,0.431,0.057c0.626,0,1.216-0.357,1.498-0.945l24.952-52.571c0.239-0.504,0.209-1.096-0.083-1.574
	c-0.292-0.477-0.804-0.775-1.362-0.792l-14.625-0.449L52.964,3.554c-0.004-0.799-0.577-1.481-1.362-1.622
	c-0.783-0.143-1.561,0.298-1.845,1.045L30.247,54.58c-0.186,0.489-0.127,1.041,0.158,1.48C30.69,56.503,31.167,56.784,31.692,56.817
	z M49.698,12.503l0.163,30.763c0.004,0.892,0.714,1.62,1.606,1.648l13.691,0.42L45.208,87.365l2.634-31.146
	c0.037-0.442-0.106-0.883-0.397-1.22c-0.29-0.338-0.705-0.543-1.149-0.571L34.14,53.654L49.698,12.503z"/> </symbol><symbol viewBox="0 0 100 100" id="icon__behance"><title>behance</title><path fill="#fff" d="M90 27.8h-24.9v-6.2h24.9v6.2zm-41.4 25.3c1.6 2.5 2.4 5.5 2.4 9 0 3.7-.9 7-2.7 9.9-1.2 1.9-2.6 3.5-4.4 4.9-2 1.5-4.3 2.5-7 3.1-2.7.6-5.6.8-8.7.8h-27.8v-61.8h29.8c7.5.1 12.9 2.3 16 6.6 1.9 2.6 2.8 5.8 2.8 9.4 0 3.8-.9 6.8-2.9 9.1-1.1 1.3-2.6 2.5-4.7 3.5 3.2 1.2 5.6 3 7.2 5.5zm-34-9.7h13.1c2.7 0 4.9-.5 6.5-1.5 1.7-1 2.5-2.8 2.5-5.4 0-2.9-1.1-4.8-3.3-5.7-1.9-.6-4.3-1-7.3-1h-11.5v13.6zm23.4 17.9c0-3.2-1.3-5.4-3.9-6.6-1.5-.7-3.5-1-6.2-1.1h-13.3v16.5h13.1c2.7 0 4.8-.4 6.3-1.1 2.6-1.4 4-3.9 4-7.7zm61.3-10.1c.3 2 .4 4.9.4 8.8h-32.3c.2 4.4 1.7 7.6 4.6 9.3 1.8 1.1 3.9 1.7 6.4 1.7 2.6 0 4.8-.7 6.4-2 .9-.7 1.7-1.8 2.4-3h11.8c-.3 2.6-1.7 5.3-4.3 8-4 4.3-9.5 6.5-16.6 6.5-5.9 0-11.1-1.8-15.6-5.4-4.5-3.6-6.7-9.5-6.7-17.7 0-7.7 2-13.6 6.1-17.6 4.1-4.1 9.3-6.1 15.8-6.1 3.8 0 7.3.7 10.4 2.1 3.1 1.4 5.6 3.6 7.6 6.6 1.8 2.3 3 5.3 3.6 8.8zm-11.7 1.2c-.2-3.1-1.2-5.4-3.1-7-1.8-1.6-4.1-2.4-6.9-2.4-3 0-5.3.9-6.9 2.5-1.6 1.7-2.7 4-3.1 6.9h20zm0 0"/></symbol><symbol viewBox="0 0 677.6 512.3" id="icon__bulb"><title>bulb</title> <g> <g> <g> <path fill="#DFDEE5" d="M292.5,512.1c14.8-4.3,26.5-16.5,37.2-27c2.6-2.6,5-5.4,7.7-7.9c3.2-3.1,6.1-4.2,10.3-5.3
				c5.8-1.5,16.6-4.7,17.9-11.5c1.1-6.2-5.3-9.6-10-5.8c-4.7,3.7-7.7,9.4-11.6,13.9c-4.3,5-9.1,9.2-14.8,12.3
				c-5.5,3-11.4,5.2-17.3,7.2c-5.1,1.8-11.6,3.1-13.9,8.7c-3,7,7.3,13.1,10.4,6.1c0.8-1.9,4.2-2.3,6-2.9c2.9-1,5.9-2,8.8-3.2
				c5.7-2.2,11.4-4.7,16.5-8.1c5.1-3.4,9.6-7.6,13.5-12.2c3.7-4.4,6.5-9.7,11-13.3c-3.3-1.9-6.7-3.9-10-5.8c0.4-2.2-1.7,0.2-2.7,0.7
				c-1.6,0.8-3.2,1.5-5,1.9c-3.3,0.9-6.7,1.5-9.8,3.1c-5.8,3-10,8.4-14.5,13c-9.2,9.2-19.8,20.8-32.6,24.6
				C281.9,502.7,285.1,514.2,292.5,512.1L292.5,512.1z"/> </g> </g> <path fill="#FCCC81" d="M113.5,257c-2.6,1.4-4.9,3.8-6.1,6.5c-2,4.2-1.6,7.9,0.3,12.1c1,2.3,3.7,3.8,6.3,4.1
		c0.4,0.3,0.9,0.6,1.4,0.8c4.9,2.4,11.2,1.5,15.1-2.5c4.2-4.3,4.8-11.2,1.4-16.2C127.7,255.9,120,253.4,113.5,257z"/> <path fill="#FCCC81" d="M138.8,204.1c-14.2,10.6-27.6,30-21.9,48.4c0.7,2.3,3.9,2.8,5.2,0.7c3.9-6.7,7.2-14.1,11.8-20.4
		c4.4-6,10.2-11.3,16.7-15c6.6-3.7,14.1-5.6,21.6-5.6c4,0,7.8,0.3,11.7,1.2c0.5,0.1,1,0.3,1.6,0.4c0.2,2.7,1.6,5.4,3.6,7.2
		c7.9,7.4,22,2.5,25.8-6.8c4.5-11-5.7-24-17.6-20.9c-1.1,0.3-2.2,0.7-3.2,1.3C175.5,189.4,154.4,192.6,138.8,204.1z"/> <path fill="#FCCC81" d="M560.9,47.5c0.4,2.4,0,6.2,1.6,8.1c2.2,2.6,6.3,0.9,9.7-1.4c0.3,2.4,1.1,4.8,1.7,6.9
		c1.1,3.2,2.7,5.8,4.7,8.2c0,0.2-0.1,0.3-0.1,0.5c0,0.8,0.4,1.5,1.1,1.9c1.5,0.9,3.3-0.2,3.3-1.9c0-0.8-0.4-1.5-1.1-1.9
		c0.3-2.8,0.4-5.5,0.1-8.5c-0.4-3.6-0.6-8.3-2.6-11.4c-0.6-1-1.6-1.5-2.6-1.7c-0.6-0.6-1.6-1-2.6-0.7c-1.7,0.4-3.4,1.1-5,1.9
		c-0.9,0.5-1.7,1.1-2.6,1.8c-0.2-0.6-0.3-1.2-0.5-1.8c-0.4-1.5-0.9-3-1.4-4.4c-1.1-3.2-2.6-5.9-4.5-8.7c-0.7-1-2.3-0.4-2,0.9
		C559.3,39.3,560.2,43.4,560.9,47.5z"/> <path fill="#FCCC81" d="M610.5,40.4c1.3,0.9,3.2,1.3,4.6,1.6c0.6,0.1,1.2,0.3,1.8,0.4c-0.7,2.5-1,5.2-1.4,7.6
		c-0.9,5.9-1.8,11.1-1.5,17.1c0,0.8,1.2,1.3,1.6,0.4c2.3-5,4-10.5,6.6-15.3c2.5-4.7,6.2-9.3,6.5-14.9c0.1-2.2-1.4-3.7-3.2-4.1
		c-1-1-2.4-1.6-3.9-1.7c-1.4-0.1-2.7,0.3-4.1,0.7c2.5-7.2,3-15.5,2.1-22.6c-0.2-1.2-1.8-1.6-2.2-0.3c-1.5,4.5-3,8.9-4.5,13.4
		c-1.5,4.5-3.7,8.8-4.9,13.3C607.4,38.3,608.8,39.9,610.5,40.4z"/> <path fill="#FCCC81" d="M661.1,57.8c3.8-2.6,6.1-7.1,8-11.2c1.8-3.8,3-7.4,3.6-11.6c0.1-0.9-1.1-1.2-1.6-0.7
		c-2.8,2.7-5.5,5.5-8.3,8.2c-2.9,2.7-6.5,4.9-8.7,8.3C651.2,55,656.9,60.7,661.1,57.8z"/> <path fill="#FCCC81" d="M651.9,77.2c4.8-6.5,11-12.7,17.5-17.5c3-2.2,0.1-7.2-2.9-5c-7.7,5.7-13.1,12.2-16.9,21.1
		C648.9,77.4,650.9,78.6,651.9,77.2z"/> <path fill="#E0DFE6" d="M314.9,342.3c-7.9-4.7-2.8-18.3-1.3-25.8c0.2-0.9-0.9-2.2-1.9-1.4c-0.3,0.2-0.6,0.5-0.8,0.7
		c-0.1-0.1-0.1-0.2-0.2-0.2c-3.7-4.5-11.8-6.5-17.2-8.2c-6.1-1.9-12.2-3.1-18.5-3.9c-5.1-0.7-10.8-0.8-15.4-3.4
		c-4.7-2.6-7.7-7.6-10.5-12c-6.7-10.2-13-20.7-18.7-31.6c-2.9-5.5-5.4-11.1-7.3-17c-2-5.9-2.9-12.1-5.3-17.9c-0.3-0.8-1.4-0.9-1.6,0
		c-1.9,6-1.1,12.2-0.1,18.3c1.1,6.7,2.8,13.3,5,19.7c4.3,12.5,10.7,24.2,17.2,35.7c2.9,5,5.9,10.1,10.2,14c-0.2,0.4-0.5,0.8-0.6,1.2
		c-4.3,11-13.4,16.1-24,20.3c-4.6,1.8-7.3,1.2-11.1-1.9c-4.7-3.9-8.8-8.6-13.3-12.7c-9.9-8.9-20.1-17.5-30.1-26.2
		c-9.6-8.3-18.6-17.1-30.8-21.1c-1.9-0.6-3.4,2-1.9,3.3c11.3,10,22.2,20.8,33.1,31.2c5.5,5.2,11,10.5,16.2,16
		c5.2,5.5,9.6,11.4,14.5,17.1c4.5,5.2,10,9.6,17,10.4c6.9,0.8,13.6-2.5,19.8-5.2c2.8-1.2,5.7-2.7,8.4-4.5c-2.9,3.2-5.6,6.7-8.6,9.9
		c-3,3.3-6.5,6-9.8,8.9c-1.6,1.4-0.4,4.7,1.9,4.5c6.4-0.6,12.6-3.7,18.3-7c0,1.6,0.1,3.1,0.3,4.6c-3.3,2.9-6.4,6.1-8.7,9.7
		c-0.9,1.4,0.3,3.5,2,3.4c3.2-0.2,6.5-0.8,9.6-1.7c0.6,1.5,1.3,2.9,2,4.3c-4.6,2.3-9.2,4.6-14,6.5c-4.1,1.7-2.7,7.9,1.9,6.8
		c1-0.2,2-0.5,3-0.7c-2.3,2.4-4.1,5.3-5.4,8.2c-1.6,3.5,0,7,2.8,8.2c-4,2.2-8.1,4-12.4,5c-4.2,1-6,0.9-9-2.1
		c-2.9-3-6.2-5.3-10.2-6.8c-1-0.4-1.6,1-1,1.7c2,2.2,3.8,4.7,4.4,7.7c0.5,2.5-0.1,5,0.6,7.4c1.7,5.8,8,7.6,13.4,7.5
		c3.9-0.1,7.7-1,11.3-2.3c-1.4,1.6-2.6,3.2-3.8,4.9c-1,1.4,0.6,2.9,2,2.6c5.9-1.2,11.6-4.2,15.6-8.7c1.5-1.7,1.3-4.1,0.1-5.8
		c2.9-1.7,5.6-3.5,8.3-5.2c11.4-7.2,23.3-13.7,34.7-20.9c5.8-3.7,11.7-7.4,17.5-11.1c3.7-2.4,8.2-5,10-8.8c3.5-3,5.1-8.1,4.4-12.7
		C325.4,348,320.5,345.7,314.9,342.3z M256.8,326.8c0,0-0.1,0.1-0.1,0.1c0.5-0.8,1-1.6,1.5-2.4c0.6,0.1,1.2,0.1,1.8,0.2
		C258.9,325.3,257.8,326,256.8,326.8z M260,319.7c0.1-0.5,0.2-0.9,0.3-1.4c0.2,0.4,0.5,0.8,0.9,1.2c0.1,0.1,0.2,0.2,0.2,0.3
		C261,319.7,260.5,319.7,260,319.7z M278.4,360.3c-0.3-0.4-0.5-0.8-0.8-1.2c0.7-0.3,1.5-0.6,2.2-0.9
		C279.2,358.8,278.7,359.5,278.4,360.3z"/> <path fill="#525D7D" d="M354.1,458.3c-0.2-0.5-0.8-0.9-1.4-0.7c-5.5,1.9-9.8,7.5-14.3,10.8c-5.7,4.1-11.4,8.3-17.8,11.6
		c-0.5,0.3,61.9-37.4-1.5,0.8c-63.4,38.2,28.2,11,25.5,0c3.3-5.7,2.2-2.8,3.1-4.2C350.6,471.8,355.9,463.9,354.1,458.3z"/> <path fill="#E0DFE6" d="M180.7,431.4c-2.9-0.3-5.1,1.9-8,1.9c-3.1,0-6.1-0.7-9.2-0.7c-1.7,0-2.4,1.8-1.8,3.2
		c3.4,8,24,13.3,24.2,0.8C185.9,433.5,183.4,431.7,180.7,431.4z"/> <path fill="#E0DFE6" d="M117.6,449.7c-0.7,0-1.8-0.1-2.4,0.3c0.8-0.1,0.3,0-1.3,0.2c-0.2,0-0.4,0.1-0.6,0.1c0,0-0.6,0.1-0.8,0.1
		c-1.7,0.1-3,0.4-4.3,1.6c-1.1,1.1-1.4,2.7-1.1,4.2c0.7,2.8,4,4.3,6.5,5.1c3.5,1,7.6,0.5,9.6-3c1.1-2.1,0.9-4.7-0.8-6.4
		C121.1,450.5,119.4,449.8,117.6,449.7z"/> <path fill="#E0DFE6" d="M570.8,137.3c-0.2-0.4-0.4-0.9-0.4-1.4c-0.1-1.6-2-2.6-3.3-1.4c-4.8,4.7,0.5,12.7,6.6,11.9
		c2.6-0.3,4.6-2.1,4.2-4.9c-0.3-2.5-2.9-4.3-5.4-3.6c-0.1,0-0.1,0-0.2,0.1c0,0-0.1,0-0.1,0c-0.2,0-0.5,0-0.7,0c0,0-0.1,0-0.3-0.1
		C571.2,137.9,571,137.7,570.8,137.3z"/> <path fill="#E0DFE6" d="M593.9,122.9c0.2-1,0.4-2,0.3-3c0-0.9-0.2-1.8-0.1-2.8c0.1-1.5,0.9-2.9,1.6-4.2c0.5-1-0.1-2.7-1.5-2.6
		c-6,0.8-10.5,7.9-7.6,13.5C588.1,126.7,593.4,126.3,593.9,122.9z"/> <path fill="#E0DFE6" d="M624.3,110.8c-1.9,0.6-3.7,1.7-5.1,3.1c-1.7,1.9-2.5,3.9-2.4,6.5c0.1,2,1.5,3.7,3.5,4
		c1.9,0.3,4-0.9,4.4-2.9c0.1-0.3,0.2-0.6,0.3-0.9c0,0,0-0.1,0-0.1c0-0.1,0.1-0.2,0.1-0.3c0.3-0.7,0.4-1.5,0.7-2.2c0,0,0-0.1,0.1-0.1
		c0.1-0.2,0.3-0.5,0.4-0.7c0-0.1,0.2-0.2,0.2-0.3c0.3-0.3,0.5-0.5,0.8-0.8C629.8,114.1,627.2,109.8,624.3,110.8z"/> <path fill="#E0DFE6" d="M564.2,147.2c-1.7-1.4-4.2,0.3-3.1,2.4c2,3.8,5.4,6.6,9.3,8.4c-1.9-0.6-3.9-0.9-5.9-0.8
		c-0.2,0-0.3,0.2-0.3,0.4c2,4.8,7.2,8.1,11.7,10.4c5.2,2.7,11.2,3.6,17,2.7c5.4-0.9,16.9-5.8,20.9-12.4c4,4.5,10,7.3,16.1,8.3
		c9.1,1.5,21-0.2,26.6-8.3c0.5-0.7,0.7-1.4,0.7-2.1c4.2-1.9,7.7-5,9.4-9.9c0.2-0.6,0.3-1.1,0.2-1.7c3.9-4.8,4.5-11.6,1.1-17.4
		c-1.1-1.9-4.4-1.2-4.2,1.1c0.3,4.4-2,8.9-5.6,11.5c-0.7,0.5-1.1,1.1-1.5,1.7c-1.5,1.1-3,2.2-4.7,3.1c-0.2-3.1-2-6-4.2-8.1
		c-2.3-2.2-6.5,0-5.4,3.2c0.7,2.1,0.8,4.3,1.5,6.4c0.1,0.3,0.2,0.6,0.4,0.8c-2.8,0.3-5.7,0.1-8.5-0.3c-4.9-0.7-9.3-3.3-14.1-4.4
		c-2.4-0.6-4.8-1.1-7.2-1.7c-2.3-0.5-4-0.3-6.3-0.3c-4.1,0-6,1.1-9.2,3.7c-3.2,2.6-6.7,5-10.6,6.3
		C580.2,153,570.9,152.7,564.2,147.2z M629.6,156.3c-1.3-0.2-2.6-0.4-3.8-0.8C627.1,155.8,628.3,156,629.6,156.3z M605.2,151.2
		c-1.2,1.6-2.3,3.4-4,4.7c-3.3,2.4-7.4,4.8-11.5,5.6c-4.3,0.8-8.7-0.3-12.8-1.4c-0.4-0.1-0.7-0.2-1.1-0.3c2.6,0.6,5.2,0.8,7.7,0.6
		c4.9-0.3,9.7-1.6,14.2-3.7C600.6,155.3,602.9,153.2,605.2,151.2z"/> <path fill="#E0DFE6" d="M608.1,135.1c1.1,0.1,2.2,0.7,2.6,1.2c0.1,0.1,0.3,0.3,0.4,0.4c0,0.1,0.1,0.2,0.3,0.4
		c0.2,0.3,0.5,0.6,0.8,0.8c1.3,1.1,2.8,1.4,4.5,1c1.4-0.3,2.5-1.6,2.9-2.9c1.1-3.9-2.4-6.3-5.8-6.8c-2.5-0.4-4.8-0.1-7.1,0.9
		c-1,0.5-1.5,1.9-1.2,3C605.9,134.3,606.9,135,608.1,135.1z"/> <path fill="#E0DFE6" d="M269.4,177.5c2.9,3.5,5.5,7.2,7.9,11c2.4,3.9,4.1,8.3,6.7,12.1c2.5,3.7,8.9,1.5,7.5-3.2
		c-2.8-9.5-10.7-18.6-17.4-25.6c-3.5-3.6-7.3-7-11.5-9.8c-3.3-2.2-7.3-4.7-11.4-4.1c-1.1,0.2-1.6,1.9-0.7,2.6c3.1,2.5,6.7,4,9.7,6.8
		C263.4,170.6,266.5,174,269.4,177.5z"/> <path fill="#E0DFE6" d="M285.4,136.8c-0.6-0.6-1.7,0.2-1.3,1c4.7,7.6,9.5,14.9,13.4,22.9c4,8.3,7,16.9,9.2,25.8
		c4.1,16.4,5.1,33.4,3.3,50.2c-0.2-16.6-3.4-32.9-9.4-48.5c-3.1-8.1-6.8-16.2-11.6-23.4c-4-6-9.4-12.9-16.4-15.5
		c-1.1-0.4-1.8,1.1-1.1,1.9c2.7,2.8,5.6,5.1,7.8,8.3c2.2,3.1,4.2,6.4,6,9.8c3.9,7.6,7.5,15.4,10.2,23.5c5.4,16.2,8.2,33.4,8.4,50.5
		c0.1,4,6,3.9,6.1,0c0-0.6,0-1.3,0-1.9c1.1,1.5,4.2,1.4,4.6-0.8c3.1-18.5,1.9-37.4-3.1-55.5C306.6,168,298.1,149.7,285.4,136.8z"/> <path fill="#E0DFE6" d="M105,353.3c-9.2-3.9-18.5-7.2-25.8-14.3c-7.3-7.1-12.4-16.4-20-23.2c-0.8-0.7-1.9,0.2-1.5,1.1
		c2.4,5.4,6.1,10.5,9.5,15.4c2.8,4,5.7,8.1,9.2,11.6c7.3,7.3,16.7,11.5,26.4,14.6C105.8,359.5,108,354.6,105,353.3z"/> <path fill="#E0DFE6" d="M75.7,310.6c-1.3-1.8-4.1-0.2-3,1.8c15.5,28.1,47,50.5,79.6,52c5,0.2,6.2-8,1.2-8.8
		c-15.2-2.6-29.7-6.3-43.1-14.1C96.6,333.5,85,323.3,75.7,310.6z"/> <path fill="#E0DFE6" d="M139.4,334.2c-22.1-3-41.8-15.9-53-35.2c-1.2-2-4-0.3-3.1,1.8c9.5,21.8,30.4,37.8,54,41.1
		C142.3,342.6,144.5,334.9,139.4,334.2z"/> <path fill="#E0DFE6" d="M193.9,352.8c0.1-0.4,0.1-0.7,0-1c0-1.1-0.9-2.2-1.9-2.7c0-0.8-0.3-1.7-0.9-2.4c-0.3-3.8-1-7.6-1.8-11.3
		c-0.9-3.9-6.8-2.2-6,1.6c0.8,3.8,1,7.6,0.6,11.3c-3.7,2.7-6.1,6.6-8.3,10.9c-0.2,0.4-0.4,0.8-0.6,1.1c-0.7,1.3-1.4,2.7-2.1,4
		c-2.6,5-5.6,9.4-11,12.4c-17.5,9.8-35.4-0.3-50.9-8.9c-0.8-0.5-1.8,0.7-1,1.3c0.9,0.8,1.9,1.7,2.8,2.5c0,0.3,0,0.5,0.3,0.8
		c8.2,8,19.1,12.9,30.3,15c5.5,1,11.2,1.5,16.9,1.2c0.3,0,0.6,0,0.9-0.1c0.4,0.9,1.2,1.5,2.4,1.7c3.1,0.5,6.1,1,9.2,1.5
		c1.1,0.2,2.2,0.5,3.4,0.7c0.3,5.4,9.1,5.1,9.7-0.8c0-0.2,0.1-0.4,0.1-0.6c1.4-1.5,1.9-3.7,1.2-5.8c-0.1-0.3-0.2-0.5-0.4-0.8
		c1.5-9.8,4.1-19.2,7.7-28.6C194.9,354.9,194.6,353.7,193.9,352.8z M173.2,377c-1.1,0-2.2,0.2-3.3,0.5c1-0.8,1.9-1.7,2.8-2.7
		c0.1,0.7,0.5,1.3,1,1.9C173.5,376.8,173.3,376.9,173.2,377z"/> <path fill="#E0DFE6" d="M318.3,231.8c-0.8,3-1.4,6-2.1,9c-0.5,0.3-0.9,0.7-0.9,1.4c0,1,0,1.9,0,2.9c-0.1,0.4-0.2,0.9-0.3,1.3
		c-0.2,0.2-0.4,0.4-0.5,0.8c-0.1,0.9-0.2,1.7-0.3,2.6c-1,4.1-2,8.2-3.4,12.2c-1.7,4.1-4,8-6.8,11.5c-3.1,4-6.7,7.2-10.5,10.2
		c-0.8,0.4-1.6,0.8-2.5,1.2c-6.6,2.9-14.8,6.9-22.2,6.6c-0.3,0-0.5,0.1-0.7,0.2c-0.4-0.1-0.7-0.2-1.1-0.2c-3-0.8-5.7-1.8-8.5-3.1
		c-2-1-3.9-2.6-6.1-2.8c-0.3,0-0.5,0.3-0.6,0.6c-0.4,5.7,8.7,10.8,13.2,12.5c7.8,3,17.7,3.5,25.3-0.3c5.5,1.6,10.9,5.4,16.7,6.7
		c0.4,2.5,4.3,3.2,6,0.9c0.3-0.3,0.5-0.7,0.7-1c0.5-0.3,0.9-0.6,1.2-1.1c2.7-1.3,3.7-4.6,3-7.3c0.2-0.6,0.4-1.2,0.6-1.8
		c0.2-0.3,0.3-0.5,0.4-0.9c5.7-18.6,7.8-40.6,3.4-59.8c-0.2-0.8-0.9-1-1.5-0.8c0-0.4,0-0.8,0-1.2C321,230.6,318.7,230.3,318.3,231.8
		z M302.8,294.8c0,0,0.1-0.1,0.1-0.1c0.4,0,0.8-0.1,1.1-0.3c0,0.3,0.1,0.5,0.2,0.8C303.8,295.1,303.3,295,302.8,294.8z"/> <path fill="#E0DFE6" d="M69.8,272.7c1.1-0.2,1.8-0.9,2.1-1.7c1.4-0.2,2.7-0.6,4-1.2c2.4-1.2,3.6-3,3.9-5.6c0.4-3.6,0.8-7,1.8-10.5
		c1.2-4-4.6-6.5-6.7-2.8c-0.6,1.1-1.2,2.2-1.5,3.4c-0.3,1-0.6,2.1-0.7,3.3c-0.1,0.6,0,1.3,0,2.1c0.2,2.1,0.5,4.6-1,5.5
		c-1.2,0.8-3.1,0.8-4.8,0.9c-2.6-0.4-5.2-0.4-7.8-0.5c-4.1-0.3-8.2-0.6-12.3-1c-7.9-0.7-15.7-1.8-23.7-1.9c-1.6,0-1.7,2.1-0.4,2.6
		c7.8,2.7,15.9,4.1,24,5.4C54,271.6,62.6,274,69.8,272.7z"/> <path fill="#E0DFE6" d="M78.3,218.7c-1.2,2.7-1.5,5.6-2.3,8.4c-0.1,0.2-0.1,0.4-0.2,0.6c-0.1,0.3-0.2,0.7-0.3,1.1
		c-0.4,0-0.8,0.1-1.2,0.1c-1.3,0.1-2.6,0.1-3.8,0.7c-0.4,0.2-0.6,0.8-0.3,1.2c2.3,3,7.4,4.9,10.4,1.9c3-3,4.6-9.2,3.4-13.2
		c-0.6-1.9-3.1-2.9-4.8-2C78.9,217.7,78.5,218.1,78.3,218.7z"/> <path fill="#E0DFE6" d="M96.3,190.5c0.9-3.4-3.5-4.8-5.4-2.3c-2.5,3.4-4.3,6.5-8.2,8.6c-4,2.1-8.7,2.3-13.1,2.7
		c-0.8,0.1-1,0.9-0.4,1.4C78.3,207.7,93.4,200.8,96.3,190.5z"/> <path fill="#E0DFE6" d="M124.3,159.5c-1.6,1.6-3,3.3-4.6,4.8c-0.6,0.6-1.3,1.2-2,1.7c-2.4,1.7-5.2,2.8-7.9,3.9
		c-1.4,0.6-0.5,2.4,0.7,2.6c6.9,0.6,15.1-3.3,19-9c1.4-2-0.1-4.2-2.1-4.7C126.3,158.5,125.2,158.6,124.3,159.5z"/> <path fill="#E0DFE6" d="M145.3,148.1c-1.7,1.4-3.4,2.7-5.2,4.1c-0.7,0.6-1.4,1.1-2.2,1.7c-1.5,1.2-3,2.4-4.5,3.5
		c-0.8,0.6-0.1,1.9,0.8,1.9c6.9,0.1,13.9-2.9,18.6-8c2.8-3.1-0.4-6.8-3.7-5.9c-0.5,0.1-1,0.4-1.4,0.7
		C147,146.8,146.2,147.5,145.3,148.1z"/> <path fill="#E0DFE6" d="M166.9,140.1c-2-0.6-3.3,2.4-1.5,3.5c0.6,0.3,1.2,0.7,1.8,1.1c0.1,0.7,0.5,1.3,1.1,1.6
		c0.1,0,0.1,0.1,0.2,0.1c0.3,0.2,0.7,0.3,1.1,0.2c2.2,0.4,4.4,0.2,6.6,0.3c2.9,0.1,5.7,0.5,8.6,0.7c4.4,0.2,5.1-5.1,2.4-7.4
		c-0.6-0.5-1.4-0.9-2.4-0.9c-3.6-0.3-7.1,0.2-10.6,0.9c-0.1,0-0.3,0.1-0.4,0.1c-1.2,0.2-2.5,0.5-3.7,0.9
		C169,140.8,167.9,140.5,166.9,140.1z"/> <path fill="#E0DFE6" d="M212.8,128.4c-1.1,2.4-1.9,5-3,7.5c-1.9,4.4-5.1,5.2-9.6,5.4c-1.9,0.1-2.3,2.7-0.4,3.2
		c4.2,1.2,9.2,2.2,12.6-1.2c3.6-3.6,4-9.2,7.2-13.2c2,0.1,3.9,0.4,5.8,0.2c2.5-0.3,4.1-3,3.6-5.1c-0.2-1.1-1.1-2-2.6-2.3
		c-1.4-0.2-3.1-0.4-4.8-0.4c-1.4,0-2.7,0.2-3.9,0.5C215,123.8,213.9,125.9,212.8,128.4z"/> <path fill="#E0DFE6" d="M229.8,144.6c-2,0.5-1.9,3.3,0,3.9c2.1,0.7,4.1,1.7,6.2,2.3c1.9,0.6,4-0.7,4.5-2.5c0.5-1.7-0.6-4.2-2.5-4.5
		C235.1,143.5,232.5,143.9,229.8,144.6z"/> <path fill="#E0DFE6" d="M127,115.1c-1,0.7-0.8,2.5,0.7,2.5c2.5,0,5.7,2.1,8,2.9c2.7,1,5.5,1.9,8.3,1.8c1.8,0,3-1.6,3-3.1
		c0-1-0.4-1.9-1.5-2.5c-0.7-0.4-1.5-0.7-2.3-1c-2.5-0.9-5.3-1.2-8-1.5C132.4,113.9,129.5,113.3,127,115.1z"/> <path fill="#E0DFE6" d="M103.6,125.6c-0.3,0.2-0.5,0.4-0.7,0.7c-0.2,0.3-0.4,0.7-0.5,1.1c-0.2,0.8,0.1,1.8,0.9,2.2
		c0.8,0.4,1.8,0.3,2.4-0.3c0.3-0.3,0.5-0.5,0.7-0.8c-0.1,0.1,0.2-0.3,0.2-0.6c0,0.1-0.1,0.1,0-0.1c0.1-0.1,0.1-0.2,0.2-0.3
		c0,0,0.1-0.1,0.1-0.1c0,0,0.1-0.1,0.1-0.1c0.1-0.1,0.2-0.2,0.3-0.3c0.9-0.8,0.2-2.3-0.9-2.3c-0.5,0-1,0.1-1.5,0.2
		c-0.1,0-0.2,0-0.3,0.1C104.3,125.2,103.9,125.4,103.6,125.6z"/> <path fill="#E0DFE6" d="M106.8,127.9c0,0,0-0.1,0-0.1C106.8,127.8,106.8,127.8,106.8,127.9z"/> <path fill="#E0DFE6" d="M95.1,131.8c-0.2-0.1-0.3-0.2-0.5-0.3c-1-0.4-2.2-0.6-3.2-0.6c-0.6,0-1.3,0.1-1.9,0.3
		c-1,0.2-1.7,0.8-2.5,1.4c-1.3,1.2-1.3,3.3-0.3,4.7c1,1.3,3.1,1.9,4.6,0.9c0.5-0.3,1-0.7,1.4-1.1c0.1-0.1,0.7-0.7,0.5-0.5
		c-0.3,0.2-0.1,0.1,0.4-0.3c0,0,0.1-0.1,0.2-0.1c0.2-0.1,0.6-0.4,0.7-0.4c1-0.4,1.5-1.2,1.5-2C96.1,133,95.8,132.3,95.1,131.8z"/> <path fill="#E0DFE6" d="M51.4,175.8c0.1,0.9,0.5,1.7,1.1,2.4c1.9,2.1,5.6,2.2,6.6-1.3c0.8-2.9,0.8-5.9,1.7-8.7
		c0.5-1.4,2.3-4.5,0.4-5.7c-2.4-1.4-5.1,2-6.3,3.6c-0.7,0.9-1.4,1.9-2,3C51.8,171.1,51.1,173.4,51.4,175.8z"/> <path fill="#E0DFE6" d="M70.5,219.9c-0.1,0-0.1,0-0.2,0c-7.5-0.8-31.4-12.6-34.4-0.8c-0.6,2.1,2.4,4.2,4,2.3
		c0.1-0.1,0.2-0.3,0.3-0.4c0.9,0.4,2.7,0.3,3.7,0.5c3.4,0.4,6.6,1,9.9,2c5.3,1.6,10.4,3.2,15.9,2.2c0.5-0.1,1-0.2,1.5-0.3
		C74.2,224.6,73.3,220.3,70.5,219.9z"/> <path fill="#E0DFE6" d="M173.8,125.9c0.2,0.1,0.3,0.1,0.5,0.1c3.3,0.3,6.8,1,10.1,0.8c2.9-0.2,4-5,0.7-5.5
		c-3.8-0.6-7.6,0.2-11.3,1.3c-0.1,0-0.2,0.1-0.3,0.1C172.1,123.4,172.4,125.4,173.8,125.9z"/> <path fill="#E0DFE6" d="M182.4,101.3c-2.7,0.3-5.4,0.5-8.1,0.5c-2.1,0.1-2.6,3.2-0.5,3.7c2.8,0.7,5.6,1.2,8.6,1.4
		c2.8,0.2,5.8,0.5,8.3-0.9c2.1-1.2,1.7-4.7-0.7-5.3C187.4,100.1,185,101,182.4,101.3z"/> <path fill="#E0DFE6" d="M331.8,462.6c3-1.6,6-3.3,8.9-5c6.8-4.1,14.8-7.8,20.7-13.1c2.6-2.4,1.2-5.4-1.3-6.6
		c0.1-0.1,0.3-0.3,0.4-0.4c4.3-4.6,1.3-12.5-4.4-13.2c-1-4.2-3.6-8.2-7-10.5c-0.2-0.1-0.3-0.2-0.5-0.3c-1.1-2.3-3.1-4.2-5.4-5.4
		c0-0.2-0.1-0.3-0.1-0.5c7-4.1,4.8-13.4-1.7-15.1c0-0.3-0.1-0.5-0.1-0.7c-0.9-4.9-3.7-9.7-7.4-13.1c-3.6-3.3-8.8-6.3-13.9-5.3
		c-5.1,1-8.3,4.5-11.5,8.3c-0.6,0.7-0.3,2,0.8,1.9c5.9-0.5,11.4-3.4,15.9,1.9c1.4,1.6,2.4,3.6,2.9,5.7c-0.6,1.1-1.1,2.3-1.8,3.4
		c-1.3,1.8-2.9,3-4.1,4.8c-11.1,5.9-21.4,13-31.5,20.7c-7.1,5.4-14.5,10.6-21.3,16.4c-3.3,2.9-6.6,5.7-9.6,9
		c-0.5,0.6-1.8,2.4-3.3,4.1c-2.3-0.3-4.8-0.1-7,0.3c-1.6,0.3-2.4,2.5-1.6,3.9c0.9,1.3,1.9,2.6,3,3.8c-0.7-0.3-1.3-0.7-2-1
		c-12.6-6.6-11-24.4-24.5-30.3c-0.7-0.3-1.6,0.5-0.9,1.2c5.2,5.1,2.9,13.3,3.2,19.7c0.4,7.1,3.8,14,9.1,18.8
		c0.9,0.8,1.8,1.5,2.7,2.2c1.2,2.5,35.9,30.5,35.9,30.5l-6.8-23c-0.5-2.2-1.2-4.3-2.1-6.1c-1.4-2.8-3.2-4.9-5.3-6.5c0,0,0.1,0,0.1,0
		c14.9-6.7,28.8-16.2,42.6-24.9c6.9-4.3,13.8-8.7,20.5-13.3c1.6-1.1,3.3-2.2,4.9-3.4c0.2,0.1,0.5,0.1,0.9,0c4-1.3,9.4-3.1,12.7,0.6
		c2,2.2,1.5,4.9,1.2,7.6c-3.5,2.4-6.8,5.1-9.8,7.4c-5.8,4.4-11.6,8.9-17.5,13.4c-5.8,4.4-11.6,8.8-17.2,13.4
		c-2.9,2.4-5.9,4.7-8.8,7.2c-0.8,0.7,41.2-24.5-5.6,4.7c-46.7,29.2,17.6,0,17.6,0c3.7-2.7,7.4-5.5,11-7.9c1.7-1.1,3.4-2.3,5.1-3.4
		c-3.6,3.1-7,6.5-9.8,10.2c-0.3,0.4-30.1,25.1-30.1,25.1l32.5-24c7.1-3.7,14-8.1,20.6-12.7C331.6,462.9,331.7,462.7,331.8,462.6z
		 M259.4,461.5c-0.2,0.2-0.3,0.4-0.3,0.6c-0.3-0.2-0.6-0.4-0.9-0.6c0.6-0.1,1.2-0.2,1.7-0.4C259.8,461.2,259.6,461.3,259.4,461.5z
		 M262.4,458.9c0.2-0.3,0.4-0.6,0.5-0.9c0.2-0.4,0.3-0.8,0.4-1.2c0.4-0.2,0.8-0.3,1.1-0.5c1-0.4,2-0.9,3-1.4
		C265.7,456.3,264.1,457.6,262.4,458.9z M319.1,420.2c-6.6,4.7-13.4,9.3-20.2,13.8c-1.3,0.9-2.7,1.8-4,2.7
		c8.6-6.4,17.3-12.6,26.4-18.1C320.5,419.1,319.8,419.7,319.1,420.2z"/> <path fill="#E0DFE6" d="M278.9,475.7h3.6C281.6,474.6,279.7,474.6,278.9,475.7z"/> <path fill="#525D7D" d="M361.2,438.3c0.3-6.4-1.9-16.3-8.8-23.6c-5.8-6.2-6.7-12.4-7.5-18.4c-0.9-6.4-1.8-13-8.5-19.2
		c-1.1-1-2.4-1.9-3.6-2.7c-1.7-1.1-3.3-2.2-4.2-3.6c-1.5-2.2-1.4-5.1-1.4-8.3c0.1-4,0.1-8.4-2.7-12.8c-1-1.6-2.2-3-3.4-4.5
		c-1.1-1.4-2.3-2.9-3.3-4.4c-5.8-8.8-1.5-17.6,3.1-27c1.4-2.8,2.8-5.7,3.9-8.6c-0.5-0.7-1-1.4-1.4-2.2c-0.4-0.6-0.2-1.4,0.4-1.8
		c0.6-0.4,1.4-0.2,1.8,0.4c0.1,0.2,0.2,0.3,0.3,0.5c12.1-35.8,14.7-72.6,7.4-106.4c-2.1-9.9-5.1-19.5-8.9-28.8c-0.7,0-1.3,0-2-0.1
		c-0.7,0-1.3-0.6-1.3-1.3c0-0.7,0.6-1.3,1.3-1.3c0.3,0,0.5,0,0.8,0c-5.3-12.2-12-23.7-20-34.3c0,0.2-0.1,0.3-0.1,0.5
		c-0.1,0.6-0.7,1-1.3,1c-0.1,0-0.2,0-0.3,0c-0.7-0.1-1.2-0.8-1-1.5c0.2-0.9,0.4-1.8,0.6-2.6c-6.4-8.1-13.5-15.6-21.4-22.6
		c0,0-0.1,0-0.1,0.1c-0.7,0.2-1.4,0.4-2.1,0.6c-0.1,0-0.2,0-0.3,0c-0.6,0-1.1-0.4-1.2-1c-0.2-0.7,0.2-1.4,0.9-1.6
		c0.2-0.1,0.4-0.1,0.6-0.2c-21.2-17.9-49.4-31.1-79.8-37.2c-33.7-6.8-66.1-4.4-93.8,7.1C94.2,77,84.1,83,74.4,90
		c-4.4,2.7-8.8,5.5-12.9,8.5c-23.4,16.8-41.2,41.8-51.5,72.3c-6,17.6-9.3,36.4-9.9,55.7c0.6,0.2,1.3,0.5,1.8,0.8
		c0.4,0.2,0.7,0.6,0.7,1.1c0.5-19.6,3.8-38.8,9.8-56.7c10.1-29.9,27.6-54.5,50.5-71c4.1-2.9,8.4-5.8,12.8-8.4c0,0,0.1,0,0.1-0.1
		c9.5-7,19.5-12.8,28.8-16.9c27.2-11.3,59.1-13.7,92.3-7c30.6,6.2,59,19.6,80,37.8c27.5,23.8,46,55,53.7,90.4c7.4,34,4.6,71-8,107
		c-1.1,3-2.6,6.1-4.2,9.3c-0.2,0.3-0.3,0.6-0.5,0.9c0.3,0,0.6,0,0.8,0c0.7,0,1.3,0.6,1.2,1.3c0,0.7-0.6,1.2-1.3,1.2c0,0,0,0,0,0
		c-0.5,0-1.1,0-1.6-0.1c-0.1,0-0.2,0-0.4,0c-4,8.5-7.1,17.2-1.3,26.1c1.1,1.6,2.3,3.1,3.4,4.6c1.2,1.5,2.3,2.8,3.2,4.3
		c2.4,3.7,2.4,7.5,2.3,11.3c0,2.5-0.1,4.9,0.6,7.2c0.3-0.2,0.6-0.4,0.8-0.6c0.6-0.4,1.4-0.2,1.8,0.4c0.4,0.6,0.2,1.4-0.4,1.8
		c-0.4,0.3-0.8,0.5-1.2,0.8c0,0.1,0.1,0.1,0.1,0.2c1.2,1.9,3.1,3.1,5,4.3c1.1,0.7,2.3,1.5,3.3,2.4c6,5.5,6.8,11.4,7.7,17.6
		c0.4,2.8,0.8,5.7,1.7,8.6c0.3-0.2,0.6-0.4,0.8-0.5c0.6-0.4,1.4-0.2,1.8,0.4c0.4,0.6,0.2,1.4-0.4,1.8c-0.4,0.3-0.9,0.6-1.4,0.9
		c1.2,2.9,2.9,5.8,5.7,8.7c6.3,6.6,8.3,15.5,8.1,21.4c0.2-0.1,0.4-0.2,0.6-0.4c0.6-0.4,1.4-0.2,1.8,0.4c0.4,0.6,0.2,1.4-0.4,1.8
		c-0.4,0.2-0.7,0.5-1.1,0.7c1.7,2.3,1.4,6.1-3.1,17.6c-2.7,7-6.1,13.1-10,18.4h3.2c3.6-5.1,6.7-10.9,9.2-17.4
		C363.6,446.6,364.2,441.8,361.2,438.3z"/> <path fill="#525D7D" d="M260,461.9c-0.5,0.3-1,0.6-1.4,0.9c-0.2,0.1-0.5,0.2-0.7,0.2c-0.4,0-0.8-0.2-1.1-0.6
		c-0.4-0.6-0.2-1.4,0.4-1.8c0.3-0.2,0.5-0.3,0.8-0.5c-2.1-1.6-4.3-2.9-6.4-4.2c-5.4-3.2-10.5-6.3-13.2-14c-0.4-1.3-0.7-2.6-0.9-4
		c-0.4-2.2-0.8-4.4-2-6.3c-0.4,0.3-0.8,0.5-1.1,0.8c-0.2,0.2-0.5,0.2-0.7,0.2c-0.4,0-0.8-0.2-1.1-0.6c-0.4-0.6-0.2-1.4,0.3-1.8
		c0.3-0.2,0.6-0.4,0.9-0.6c-1.8-1.6-4.2-2.6-6.6-3.6c-3.5-1.4-7.1-2.9-9.5-6.5c-1-1.5-1.8-3-2.7-4.7c-0.9-1.7-1.8-3.4-2.8-5
		c-5.1-7.7-12.7-9.1-20.8-9.1c-1,0-2,0-3,0.1c-0.1,0.6-0.3,1.1-0.4,1.7c-0.2,0.6-0.7,0.9-1.2,0.9c-0.1,0-0.2,0-0.3,0
		c-0.7-0.2-1.1-0.9-0.9-1.6c0.1-0.3,0.2-0.6,0.2-0.9c-0.6,0-1.3,0.1-1.9,0.1c-3.6,0.2-7,0.4-10.2,0.2
		c-38.1-2.6-73.2-14.5-101.6-34.6c-29.5-20.9-51-50.2-62.1-84.8c-2.2-7-4-14.1-5.3-21.1c-1.5-11-2.1-22.1-1.9-33
		c0,0.1-0.1,0.3-0.1,0.4c-0.3,0.6-1.1,0.9-1.7,0.6c-0.2-0.1-0.5-0.2-0.7-0.3c-0.1,7.2,0.1,14.4,0.7,21.7c0.4,0,0.9,0,1.3-0.1
		c0.7,0,1.3,0.5,1.4,1.2c0,0.7-0.5,1.3-1.2,1.4c-0.4,0-0.8,0-1.2,0.1c0.3,2.8,0.6,5.7,1,8.5c1.3,7.1,3.1,14.3,5.4,21.4
		c3.9,12,9,23.4,15.2,34c0.4-0.2,0.8-0.4,1.2-0.6c0.6-0.3,1.4,0,1.7,0.6c0.3,0.6,0,1.4-0.6,1.7c-0.3,0.2-0.7,0.3-1,0.5
		c1,1.6,2,3.2,3,4.8c0.4-0.2,0.8-0.4,1.3-0.6c0.6-0.3,1.4-0.1,1.7,0.6c0.3,0.6,0.1,1.4-0.6,1.7c-0.3,0.2-0.6,0.3-1,0.5
		c11.2,16.6,25.4,31.1,42.1,42.9c28.8,20.4,64.3,32.5,102.9,35.1c3.4,0.2,7,0,10.5-0.2c10.4-0.6,20.2-1.1,26,7.7
		c1,1.5,1.9,3.1,2.7,4.7c0.9,1.6,1.8,3.3,2.8,4.9c2.9,4.3,7,6,10.7,7.5c3,1.2,5.6,2.3,7.1,4.5c1,1.4,1.3,3.3,1.7,5.3
		c0.3,1.4,0.5,2.9,1,4.4c1,2.9,2.3,5.1,3.8,7c0.7-0.1,1.5-0.3,2.2-0.4c0.7-0.1,1.4,0.3,1.5,1.1c0.1,0.7-0.3,1.4-1.1,1.5
		c-0.2,0-0.4,0.1-0.6,0.1c2.6,2.5,5.5,4.3,8.4,6c5.2,3.1,10.6,6.4,14,14.1c0.5,1.2,1.1,2.3,1.7,3.3h3.1c-0.9-1.3-1.7-2.8-2.4-4.4
		C264.8,467.2,262.5,464.3,260,461.9z"/> <path fill="#525D7D" d="M232.8,430.4c-0.6,0.4-0.7,1.2-0.3,1.8c0.3,0.4,0.7,0.6,1.1,0.6c0.2,0,0.5-0.1,0.7-0.2
		c0.4-0.3,0.8-0.5,1.1-0.8c26.9-18.2,67.9-45.3,90.9-60.4c0.4-0.3,0.8-0.5,1.2-0.8c0.6-0.4,0.8-1.2,0.4-1.8
		c-0.4-0.6-1.2-0.8-1.8-0.4c-0.3,0.2-0.6,0.4-0.8,0.6c-22.9,15.1-64.4,42.5-91.5,60.8C233.4,430,233.1,430.2,232.8,430.4z"/> <path fill="#525D7D" d="M257.9,460.2c-0.3,0.2-0.5,0.3-0.8,0.5c-0.6,0.4-0.8,1.2-0.4,1.8c0.2,0.4,0.7,0.6,1.1,0.6
		c0.2,0,0.5-0.1,0.7-0.2c0.5-0.3,1-0.6,1.4-0.9c11.8-7.7,25.8-16.7,39.9-25.8c15.8-10.2,32.2-20.8,45-29.1c0.5-0.3,0.9-0.6,1.4-0.9
		c0.6-0.4,0.8-1.2,0.4-1.8c-0.4-0.6-1.2-0.8-1.8-0.4c-0.3,0.2-0.6,0.4-0.8,0.5c-12.8,8.3-29.4,19-45.5,29.4
		C284.2,443.2,269.9,452.4,257.9,460.2z"/> <path fill="#525D7D" d="M316.6,470.7c3.8-2.6,10.5-7.3,18.2-12.6c7.4-5.2,15.9-11.1,23.8-16.6c0.5-0.4,1.1-0.8,1.6-1.1
		c0.9-0.6,1.2-1.9,0.5-2.9c-0.6-0.9-1.9-1.2-2.8-0.6c-0.3,0.2-0.6,0.4-0.8,0.6c-8.2,5.7-17,11.8-24.6,17.1
		c-7.7,5.4-14.4,10-18.2,12.6c-8.6,5.9-17.3,11.9-25.7,17.8c-6.4,4.4-16.3,10.9-13.5,13.5s1.2,0,1.2,0c4.9-3.4,9.8-6.8,14.5-10.1
		C299.4,482.6,308,476.6,316.6,470.7z"/> <path fill="#525D7D" d="M72.9,313.1c-0.4-0.6-1.2-0.7-1.8-0.3c-0.6,0.4-0.7,1.2-0.3,1.8c19.5,28.5,46.2,45.9,73.3,47.7
		c1.6,0.1,3.1,0.2,4.7,0.2c4,0,8-0.3,11.9-1c0.7-0.1,1.2-0.8,1.1-1.5c-0.1-0.7-0.8-1.2-1.5-1.1c-5.3,0.9-10.7,1.2-16,0.8
		C118,357.9,92,340.9,72.9,313.1z"/> <path fill="#525D7D" d="M103.5,354.5c-18.3-5.8-33.9-19.5-41.7-36.7c-0.3-0.7-1.1-0.9-1.7-0.6c-0.7,0.3-0.9,1.1-0.6,1.7
		c8.1,17.9,24.3,32.2,43.3,38.1c0.1,0,0.3,0.1,0.4,0.1c0.6,0,1.1-0.4,1.2-0.9C104.5,355.4,104.1,354.7,103.5,354.5z"/> <path fill="#525D7D" d="M94.8,315.2c-2.5-2.8-5.1-5.7-7.8-8.3c-0.5-0.5-1.3-0.5-1.8,0c-0.5,0.5-0.5,1.3,0,1.8
		c2.6,2.5,5.2,5.4,7.7,8.2c7.9,8.9,16.2,18.2,28.7,19.9c0.1,0,0.1,0,0.2,0c0.6,0,1.2-0.5,1.3-1.1c0.1-0.7-0.4-1.4-1.1-1.5
		C110.3,332.7,102.4,323.8,94.8,315.2z"/> <path fill="#525D7D" d="M266.9,147.4c27.6,16.2,44.1,47.5,41.9,79.8c-0.5,7.7-1.8,12.9-3.1,18c-0.6,2.2-1.1,4.4-1.5,6.6
		c-0.1,0.7,0.3,1.4,1,1.5c0.1,0,0.2,0,0.2,0c0.6,0,1.2-0.4,1.3-1c0.4-2.2,0.9-4.3,1.5-6.5c1.2-4.9,2.6-10.5,3.1-18.5
		c2.2-33.3-14.7-65.5-43.2-82.2c-0.6-0.4-1.4-0.2-1.8,0.5C266.1,146.2,266.3,147,266.9,147.4z"/> <path fill="#525D7D" d="M254.2,156.4c18.4,10.4,29.1,23.1,32,37.6c0.1,0.6,0.7,1,1.3,1c0.1,0,0.2,0,0.3,0c0.7-0.1,1.2-0.8,1-1.5
		c-3-15.4-14.2-28.6-33.3-39.4c-0.6-0.4-1.4-0.1-1.8,0.5C253.4,155.2,253.6,156,254.2,156.4z"/> <path fill="#525D7D" d="M277.6,134.2c12.3,7.4,19.6,19.9,26.7,32c1.4,2.4,2.8,4.8,4.3,7.1c0.2,0.4,0.7,0.6,1.1,0.6
		c0.2,0,0.5-0.1,0.7-0.2c0.6-0.4,0.8-1.2,0.4-1.8c-1.4-2.3-2.9-4.8-4.2-7.1c-7.3-12.4-14.8-25.1-27.6-32.9c-0.6-0.4-1.4-0.2-1.8,0.4
		C276.8,133.1,277,133.9,277.6,134.2z"/> <path fill="#525D7D" d="M195.5,363.6c2.9-7.5,2.3-15.9-1.6-23c-11.2-20.3-32.4-40.1-62.8-58.8c-0.1,0.2-0.3,0.3-0.4,0.5
		c-0.5,0.5-1.1,0.9-1.6,1.3c30.5,18.6,51.5,38.2,62.6,58.2c3.5,6.4,4.1,14,1.5,20.8c-3.3,8.6-4.2,16.6-5.2,24.4
		c-0.6,4.9-1.2,9.6-2.3,14.1c-0.1,0.3-0.1,0.6-0.2,0.9c-0.2,0.7,0.2,1.4,0.9,1.6c0.1,0,0.2,0,0.3,0c0.6,0,1.1-0.4,1.2-0.9
		c0.2-0.6,0.3-1.1,0.4-1.7c1.1-4.4,1.6-8.9,2.2-13.6C191.4,379.8,192.3,372,195.5,363.6z"/> <path fill="#525D7D" d="M126.7,280.8c-0.2,0.4-0.2,0.9,0,1.3c0.7-0.5,1.4-1,2-1.6c-0.1,0-0.2-0.1-0.2-0.1
		C127.9,280,127.1,280.2,126.7,280.8z"/> <path fill="#525D7D" d="M295.2,308.2c-7-2.1-13.6-4-20.1-4.5c-0.9-0.1-1.7-0.1-2.6-0.1c-7.6-0.1-14.8-3.5-19.8-9.3
		c-16.3-19.4-28-48.6-32.2-80.3c-0.6,1.1-1.3,2.2-2.2,3.2c4.6,31,16.3,59.5,32.4,78.7c5.4,6.4,13.3,10.2,21.7,10.3
		c0.8,0,1.6,0,2.4,0.1c6.2,0.4,12.7,2.3,19.5,4.4c7.2,2.1,14.6,4.4,22.3,4.9c0.1,0,0.2,0,0.4,0c0.5,0,1.1,0.1,1.6,0.1c0,0,0,0,0,0
		c0.7,0,1.3-0.5,1.3-1.2c0-0.7-0.5-1.3-1.2-1.3c-0.3,0-0.6,0-0.8,0c-0.2,0-0.5,0-0.7,0C309.8,312.6,302.4,310.4,295.2,308.2z"/> <path fill="#525D7D" d="M235.3,304.2c1.9,2.4,2.7,5.5,2.2,8.6c-0.5,3-2.3,5.7-4.9,7.3c-4.3,2.7-8.4,5.5-12,8.3
		c-2.4,1.8-5.4,2.6-8.4,2.1c-2.9-0.5-5.6-2.2-7.2-4.8c-13.9-21.4-37-41.8-68.8-60.8c-0.2-0.1-0.5-0.2-0.7-0.2c0.3,1,0.5,2.1,0.7,3.2
		c30.8,18.5,53.2,38.4,66.7,59.2c2,3.1,5.3,5.3,8.9,5.9c0.8,0.1,1.5,0.2,2.3,0.2c2.9,0,5.8-1,8.1-2.7c3.6-2.7,7.5-5.5,11.8-8.1
		c3.2-2,5.4-5.3,6.1-9.1c0.6-3.8-0.3-7.6-2.7-10.6c-16.2-20.4-27.8-48.8-32.9-80.1c-0.9-0.1-1.8-0.3-2.7-0.5
		C206.8,254.1,218.7,283.2,235.3,304.2z"/> <path fill="#525D7D" d="M131,281.9c2.9-2.9,4.7-6.7,5.1-10.5c0.1-1.2,0.1-2.4,0-3.5c-0.1-1.1-0.3-2.1-0.7-3.2
		c-0.5-1.6-1.2-3-2.2-4.4c-2.2-3-5.3-4.9-8.6-5.3c-1.4-0.1-2.8-0.1-4.1,0c-0.3,0-0.5,0-0.8,0c-0.2,0.4-0.7,0.8-1.2,0.8
		c0,0-0.1,0-0.1,0c-0.5,0-0.9-0.3-1.1-0.7c-8-0.3-12.4,6.5-13.1,13.5c-0.7,6.3,1.7,10.4,3.9,12.8c2.6,2.9,6.4,4.8,10.4,5.2
		c0.5,0.1,1,0.1,1.5,0.1c3.1,0,6.2-1.1,8.9-3.1c0.5-0.4,1.1-0.8,1.6-1.3C130.7,282.2,130.9,282.1,131,281.9z M118.9,284.1
		c-3.3-0.4-6.5-2-8.7-4.4c-2.5-2.8-3.6-6.5-3.2-10.8c0.6-5.7,3.9-11.2,10-11.2c0.2,0,0.3,0,0.5,0c1.1,0.1,2.2,0,3.3-0.1
		c1.3-0.1,2.6-0.1,3.7,0c2.5,0.3,5,1.8,6.8,4.2c1.9,2.6,2.7,5.9,2.4,9.3c-0.4,3.4-2.1,6.9-4.8,9.4c0,0,0,0,0,0
		c-0.6,0.6-1.3,1.1-2,1.6C124.3,283.7,121.6,284.4,118.9,284.1z"/> <path fill="#525D7D" d="M194.4,199.9c0,0,0,0.1,0,0.1c2.4-3.8,6.3-5.7,10.1-5.7c0,0,0.1,0,0.1,0c1.3,0,2.3,0,3.2,0.1
		c7.9,0.5,12.4,7.4,12,13.5c-0.4,6.3-5.9,12.7-14.1,12.2c-4.9-0.3-14.1-3.5-13.4-13.4c0.2-2.4,0.8-4.4,1.8-6.1
		c-0.3,0.3-0.7,0.4-1.2,0.3c-0.6-0.1-1.2-0.2-1.8-0.3c-0.8,1.7-1.3,3.7-1.4,5.9c-0.6,8.3,5.2,13.7,12,15.5c0.9,0.2,1.8,0.4,2.7,0.5
		c0.4,0,0.7,0.1,1.1,0.1c0.4,0,0.8,0,1.1,0c5,0,9.1-2.2,11.8-5.4c0.9-1,1.6-2.1,2.2-3.2c1-1.9,1.6-3.9,1.7-6
		c0.5-7.3-4.9-15.6-14.4-16.3c-1-0.1-2.1-0.1-3.4-0.1c-4.4-0.1-9.2,2.2-12.1,6.5c0.3,0.1,0.6,0.1,0.9,0.2
		C194.1,198.5,194.5,199.2,194.4,199.9z"/> <path fill="#525D7D" d="M118.6,255.8C118.6,255.8,118.6,255.8,118.6,255.8c0.6,0,1.1-0.3,1.3-0.7c0.1-0.1,0.1-0.3,0.1-0.5
		c1.6-22.7,12.9-36,22.1-43.1c11.3-8.8,25.8-13.3,39.7-12.4c3.2,0.2,6.3,0.8,9.4,1.3c0.6,0.1,1.2,0.2,1.8,0.3
		c0.4,0.1,0.9-0.1,1.2-0.3c0.2-0.1,0.3-0.3,0.3-0.6c0,0,0-0.1,0-0.1c0.1-0.7-0.3-1.4-1-1.5c-0.3-0.1-0.6-0.1-0.9-0.2
		c-3.4-0.7-6.9-1.3-10.5-1.6c-14.5-1-29.7,3.7-41.5,12.9c-9.6,7.5-21.4,21.3-23.1,45c0,0.2,0,0.5,0.1,0.7
		C117.7,255.5,118.1,255.8,118.6,255.8z"/> <path fill="#525D7D" d="M275.8,104.1c0.2,0.6,0.7,1,1.2,1c0.1,0,0.2,0,0.3,0c0.7-0.2,1.4-0.4,2.1-0.6c0,0,0.1,0,0.1-0.1
		c0.6-0.3,0.9-0.9,0.7-1.6c-0.2-0.7-0.9-1.1-1.6-0.9c-0.5,0.1-1,0.3-1.4,0.4c-0.2,0.1-0.4,0.1-0.6,0.2
		C276,102.7,275.6,103.4,275.8,104.1z"/> <path fill="#525D7D" d="M75,435c3.8,0,8-2.3,8-7.2c0-5-5.1-7.8-8.5-7.8c-1.4,0-2.6,0.4-3.7,1.2c-2.1,1.6-3.4,4.2-3.4,6.7
		C67.4,431.4,70.1,435,75,435z M72.3,423.2c0.6-0.4,1.3-0.7,2.1-0.7c2.5,0,6,2,6,5.2c0,3.2-2.7,4.6-5.4,4.6c-3.5,0-5-2.4-5-4.5
		C70,426.1,70.9,424.3,72.3,423.2z"/> <path fill="#525D7D" d="M172,446.3c7.2,0,12-5.3,12-13.3c0-8.4-7-12.1-13.3-11.8c-6.2,0.2-11.4,5.7-11.4,12
		C159.3,442.2,166.7,446.3,172,446.3z M170.9,423.7c5.2-0.2,10.6,2.7,10.6,9.2c0,6.5-3.7,10.7-9.4,10.7c-3.3,0-10.1-2.6-10.1-10.5
		C161.9,428.2,166,423.9,170.9,423.7z"/> <path fill="#525D7D" d="M575.9,161.6c0-0.1-0.1-0.1-0.1-0.2c-0.3-0.7,0-1.4,0.7-1.7c0.7-0.3,1.4,0,1.7,0.7c0.2,0.6,0.5,1.1,0.7,1.7
		c2.2,0.3,4.4,0.4,6.6,0.4c10.5,0,19.9-8.1,26.3-15.4c6.4,8.9,17.5,14.4,29.5,14.4c19.1,0,31.9-12.6,31.9-31.4
		c0-10.4-8.4-23.1-26.9-26.8c-0.2-11-7.1-17.8-17.9-17.8c-5.5,0-10.8,2-14.4,5.3c-3.8-2.7-8.7-4-14.9-4c-9.8,0-18.2,6.6-20.9,16
		c-6.4,0.5-13.2,3.8-18.5,8.8c-6.1,5.8-9.4,13.1-9.4,20.6C550.1,149.4,561.9,158.7,575.9,161.6z M579,105.5c0.6,0,1.1-0.4,1.2-1
		c2.1-8.8,9.7-15,18.6-15c6.1,0,10.8,1.3,14.2,4.1c0.5,0.4,1.3,0.4,1.7-0.1c3.2-3.3,8.2-5.3,13.4-5.3c9.6,0,15.4,5.9,15.4,15.8
		l0,0.5c0,0.6,0.4,1.2,1.1,1.3c17.8,3.2,25.8,14.9,25.8,24.5c0,17.2-11.8,28.8-29.3,28.8c-11.7,0-22.5-5.6-28.2-14.6
		c-0.2-0.3-0.6-0.6-1-0.6c-0.4,0-0.8,0.1-1.1,0.5c-4.9,5.9-14.8,15.7-25.4,15.7c-24.2,0-32.8-14.9-32.8-27.6
		C552.6,117.9,566.8,106,579,105.5z"/> <path fill="#525D7D" d="M575.5,142.6c0.1,0,0.2,0,0.2,0c0.6,0,1.2-0.4,1.3-1.1c0.1-0.7-0.3-1.4-1-1.5c-3.8-0.7-6.9-4.2-6.9-7.8
		c0-4.1,4.3-8.3,7.4-8.3c4.5,0,7,3.3,8.2,4.9c0.3,0.4,0.5,0.6,0.7,0.9c0.5,0.5,1.3,0.5,1.8,0c0.5-0.5,0.5-1.3,0-1.8
		c-0.1-0.1-0.3-0.3-0.4-0.6c-1.3-1.8-4.5-6-10.2-6c-4.8,0-10,5.7-10,10.9C566.5,137.1,570.4,141.6,575.5,142.6z"/> <path fill="#525D7D" d="M594.3,118.8c0.2,0,0.3,0,0.5-0.1c0.7-0.3,1-1,0.7-1.7c-0.3-0.8-0.5-1.6-0.5-2.3c0-3.4,3.4-7.1,8.8-7.1
		c5.5,0,6.9,3.7,8,8.1c0.2,0.7,0.9,1.1,1.6,0.9c0.7-0.2,1.1-0.9,0.9-1.6c-0.9-3.8-2.5-10.1-10.5-10.1c-7,0-11.4,5-11.4,9.7
		c0,1.1,0.2,2.2,0.7,3.3C593.3,118.5,593.8,118.8,594.3,118.8z"/> <path fill="#525D7D" d="M625.1,119.7c0.7-0.1,1.2-0.7,1.2-1.4c0-0.2,0-0.4,0-0.5c0-3,2.6-5.6,5.5-5.6c3.3,0,4.8,2.7,4.8,5.4
		c0,0.4,0,0.9-0.1,1.3c-0.1,0.7,0.4,1.4,1.1,1.5c0.1,0,0.1,0,0.2,0c0.6,0,1.2-0.4,1.3-1.1c0.1-0.6,0.1-1.2,0.1-1.7
		c0-4.6-3.1-8-7.4-8c-4.3,0-8.1,3.9-8.1,8.2c0,0.3,0,0.5,0,0.8C623.7,119.2,624.4,119.8,625.1,119.7z"/> <path fill="#525D7D" d="M626.5,135.4c-0.1,0.7,0.3,1.4,1,1.5c0.7,0.1,1.4-0.3,1.5-1c0.9-4.1,5.1-6,8.9-6c4.2,0,8.9,2.5,8.9,6
		c0,2.3-1.2,5.8-3.8,8.3c-0.5,0.5-0.5,1.3,0,1.8c0.3,0.3,0.6,0.4,0.9,0.4c0.3,0,0.7-0.1,0.9-0.4c2.7-2.7,4.5-6.7,4.5-10.2
		c0-5-6-8.5-11.5-8.5C633.1,127.4,627.6,129.8,626.5,135.4z"/> <path fill="#525D7D" d="M608.8,130.3c-7.6,0-12.1,4-12.1,10.6c0,1.2,0.4,2.2,0.7,3c0.1,0.2,0.1,0.3,0.2,0.5
		c0.2,0.5,0.7,0.9,1.2,0.9c0.1,0,0.3,0,0.4-0.1c0.7-0.2,1-1,0.8-1.6c-0.1-0.2-0.1-0.3-0.2-0.5c-0.3-0.7-0.5-1.4-0.5-2.2
		c0-7,6-8,9.5-8c1.1,0,1.9,0.3,2.5,1c0.5,0.5,1.3,0.6,1.8,0.2c0.5-0.5,0.6-1.3,0.2-1.8C612.1,131,610.6,130.3,608.8,130.3z"/> <path fill="#525D7D" d="M604.7,42.9l9.9,0.6L612,73.7c-0.1,0.6,0.3,1.2,1,1.4c0.1,0,0.2,0,0.3,0c0.5,0,1-0.3,1.2-0.7L634,33.3
		c0.2-0.4,0.2-0.9-0.1-1.2c-0.2-0.4-0.6-0.6-1.1-0.6l-11.4-0.4l-0.2-29.8c0-0.6-0.5-1.2-1.1-1.3c-0.6-0.1-1.2,0.2-1.4,0.8
		l-15.3,40.3c-0.1,0.4-0.1,0.8,0.1,1.2C603.9,42.7,604.3,42.9,604.7,42.9z M618.7,8.3l0.1,24.1c0,0.7,0.6,1.3,1.3,1.3l10.7,0.3
		l-15.6,32.9l2.1-24.3c0-0.3-0.1-0.7-0.3-1c-0.2-0.3-0.6-0.4-0.9-0.4l-9.5-0.6L618.7,8.3z"/> <path fill="#525D7D" d="M645.6,83.8c0.3,0,0.6-0.1,0.8-0.3l29.6-25c0.3-0.3,0.5-0.7,0.4-1.1c-0.1-0.4-0.3-0.8-0.7-1l-8.6-4.2
		l10.3-23c0.3-0.6,0.1-1.2-0.4-1.6c-0.5-0.4-1.2-0.3-1.6,0.1l-26,25.9c-0.3,0.3-0.4,0.7-0.4,1.1c0.1,0.4,0.3,0.8,0.7,1l7.3,3.9
		l-12.5,22.3c-0.3,0.5-0.2,1.2,0.3,1.6C645,83.7,645.3,83.8,645.6,83.8z M659.9,59.7c0.2-0.3,0.2-0.7,0.1-1
		c-0.1-0.3-0.3-0.6-0.6-0.8l-6.9-3.7l19.8-19.8l-7.9,17.8c-0.3,0.6,0,1.4,0.6,1.7l7.9,3.9l-22.6,19.1L659.9,59.7z"/> <path fill="#525D7D" d="M561.7,60.8c0.1,0.4,0.4,0.7,0.7,0.9c0.4,0.2,0.8,0.1,1.2-0.1l7.2-4.1l12.1,22.5c0.2,0.4,0.7,0.7,1.1,0.7
		c0.1,0,0.3,0,0.4-0.1c0.6-0.2,1-0.8,0.9-1.4L580.1,41c-0.1-0.4-0.3-0.8-0.7-1c-0.4-0.2-0.9-0.2-1.2,0.1l-8.2,5l-13.8-21
		c-0.3-0.5-1-0.7-1.6-0.5c-0.6,0.2-0.9,0.9-0.8,1.5L561.7,60.8z M568.5,47.4c0.4,0.6,1.2,0.8,1.8,0.4l7.5-4.6l3.9,29.4l-9.3-17.4
		c-0.2-0.3-0.4-0.5-0.8-0.6c-0.1,0-0.2-0.1-0.4-0.1c-0.2,0-0.4,0.1-0.6,0.2l-6.8,3.9l-6-27.3L568.5,47.4z"/> <path fill="#525D7D" d="M515.1,235.2c0.6,0,1.1-0.4,1.3-1c0.2-0.7-0.3-1.4-1-1.5c-1.2-0.3-2.3-0.5-3.5-0.7
		c-0.7-0.1-1.4,0.4-1.5,1.1c-0.1,0.7,0.4,1.4,1.1,1.5c1.1,0.2,2.2,0.4,3.3,0.6C514.9,235.2,515,235.2,515.1,235.2z"/> <path fill="#525D7D" d="M535.2,239c0.6,0,1.3,0,1.9,0c0.7,0,1.3-0.6,1.2-1.3c0-0.7-0.7-1.3-1.3-1.2c-1.1,0-2.3,0-3.3,0
		c-0.7,0-1.3,0.5-1.3,1.2c0,0.7,0.5,1.3,1.2,1.3C534.1,239,534.7,239,535.2,239z"/> <path fill="#525D7D" d="M525.7,237.9c0.1,0,0.2,0,0.3,0c0.6,0,1.1-0.4,1.3-1c0.2-0.7-0.3-1.4-1-1.5c-1.2-0.3-2.3-0.6-3.3-0.8
		c-0.7-0.2-1.4,0.2-1.6,0.9c-0.2,0.7,0.2,1.4,0.9,1.6C523.3,237.3,524.4,237.6,525.7,237.9z"/> <path fill="#525D7D" d="M504.1,231.1c-1.1-0.1-2.3-0.1-3.5-0.1c-0.7,0-1.3,0.6-1.3,1.3c0,0.7,0.6,1.3,1.3,1.3
		c1.2,0,2.3,0.1,3.4,0.1c0,0,0.1,0,0.1,0c0.7,0,1.3-0.5,1.3-1.2C505.3,231.7,504.8,231.1,504.1,231.1z"/> <path fill="#525D7D" d="M470.4,234.5c-1.1,0.3-2.3,0.7-3.3,1.1c-0.7,0.3-1,1-0.8,1.7c0.2,0.5,0.7,0.8,1.2,0.8c0.2,0,0.3,0,0.5-0.1
		c1-0.4,2.1-0.7,3.2-1.1c0.7-0.2,1.1-0.9,0.9-1.6C471.8,234.7,471.1,234.3,470.4,234.5z"/> <path fill="#525D7D" d="M481.5,232.1c-1.2,0.2-2.3,0.4-3.4,0.6c-0.7,0.1-1.2,0.8-1,1.5c0.1,0.6,0.7,1.1,1.3,1.1c0.1,0,0.2,0,0.2,0
		c1.1-0.2,2.2-0.4,3.3-0.6c0.7-0.1,1.2-0.8,1.1-1.5C482.8,232.4,482.2,231.9,481.5,232.1z"/> <path fill="#525D7D" d="M559.4,230.5c-0.4-0.6-1.2-0.8-1.8-0.4c-0.9,0.6-1.9,1.1-2.9,1.6c-0.6,0.3-0.9,1.1-0.6,1.7
		c0.2,0.4,0.7,0.7,1.2,0.7c0.2,0,0.4,0,0.6-0.1c1.1-0.5,2.1-1.1,3.1-1.7C559.6,231.9,559.8,231.1,559.4,230.5z"/> <path fill="#525D7D" d="M492.7,231c-1.2,0-2.3,0.1-3.5,0.2c-0.7,0-1.3,0.7-1.2,1.4c0,0.7,0.6,1.2,1.3,1.2c0,0,0.1,0,0.1,0
		c1.1-0.1,2.2-0.1,3.4-0.2c0.7,0,1.3-0.6,1.2-1.3C494.1,231.6,493.5,231,492.7,231z"/> <path fill="#525D7D" d="M581.3,181.5c-0.7,0-1.3,0.6-1.3,1.3l0,0.3c0,1,0,2.1-0.1,3.1c0,0.7,0.5,1.3,1.2,1.3c0,0,0,0,0,0
		c0.7,0,1.3-0.5,1.3-1.2c0-1,0.1-2.1,0.1-3.2l0-0.3C582.6,182,582,181.5,581.3,181.5z"/> <path fill="#525D7D" d="M580.8,192.7c-0.7-0.1-1.4,0.4-1.5,1.1c-0.2,1.1-0.3,2.3-0.5,3.3c-0.1,0.7,0.3,1.4,1,1.5c0.1,0,0.2,0,0.2,0
		c0.6,0,1.2-0.4,1.3-1.1c0.2-1.1,0.4-2.3,0.6-3.5C582,193.4,581.5,192.8,580.8,192.7z"/> <path fill="#525D7D" d="M448.5,250.3c0.2,0.2,0.5,0.3,0.8,0.3c0.4,0,0.7-0.2,1-0.5c0.7-0.9,1.5-1.7,2.2-2.5c0.5-0.5,0.5-1.3,0-1.8
		c-0.5-0.5-1.3-0.5-1.8,0c-0.8,0.8-1.6,1.7-2.4,2.6C447.9,249.1,448,249.9,448.5,250.3z"/> <path fill="#525D7D" d="M580.8,176.3c0.1,0,0.1,0,0.2,0c0.7-0.1,1.2-0.7,1.1-1.5c-0.2-1.2-0.4-2.3-0.6-3.5c-0.1-0.7-0.8-1.2-1.5-1
		c-0.7,0.1-1.2,0.8-1,1.5c0.2,1.1,0.4,2.2,0.6,3.3C579.6,175.8,580.2,176.3,580.8,176.3z"/> <path fill="#525D7D" d="M456.5,242.6c0.3,0.4,0.7,0.6,1.1,0.6c0.3,0,0.5-0.1,0.7-0.2c0.9-0.6,1.9-1.2,2.8-1.8
		c0.6-0.4,0.8-1.1,0.5-1.8c-0.4-0.6-1.1-0.8-1.8-0.5c-1,0.6-2,1.2-3,1.9C456.3,241.2,456.1,242,456.5,242.6z"/> <path fill="#525D7D" d="M544.8,238c0.1,0,0.2,0,0.3,0c1.2-0.3,2.3-0.6,3.4-0.9c0.7-0.2,1.1-0.9,0.9-1.6c-0.2-0.7-0.9-1.1-1.6-0.9
		c-1.1,0.3-2.2,0.6-3.2,0.8c-0.7,0.2-1.1,0.8-1,1.5C543.7,237.6,544.2,238,544.8,238z"/> <path fill="#525D7D" d="M566.1,223.2c-0.8,0.8-1.6,1.6-2.4,2.3c-0.5,0.5-0.6,1.3-0.1,1.8c0.3,0.3,0.6,0.4,1,0.4
		c0.3,0,0.6-0.1,0.9-0.3c0.9-0.8,1.7-1.6,2.5-2.5c0.5-0.5,0.5-1.3,0-1.8C567.4,222.7,566.5,222.7,566.1,223.2z"/> <path fill="#525D7D" d="M574.3,214c-0.6-0.4-1.4-0.1-1.8,0.5c-0.6,1-1.2,1.9-1.8,2.9c-0.4,0.6-0.2,1.4,0.4,1.8
		c0.2,0.1,0.5,0.2,0.7,0.2c0.4,0,0.8-0.2,1.1-0.6c0.7-1,1.3-2,1.9-3C575.1,215.2,574.9,214.4,574.3,214z"/> <path fill="#525D7D" d="M578.6,203.7c-0.7-0.2-1.4,0.2-1.6,0.8c-0.3,1.1-0.7,2.1-1.1,3.2c-0.3,0.7,0.1,1.4,0.7,1.7
		c0.2,0.1,0.3,0.1,0.5,0.1c0.5,0,1-0.3,1.2-0.8c0.4-1.1,0.8-2.2,1.2-3.3C579.6,204.6,579.2,203.9,578.6,203.7z"/> <path fill="#525D7D" d="M445.6,254.6c-0.6-0.4-1.4-0.1-1.8,0.5c-0.6,1-1.1,2-1.6,3.1c-0.3,0.6,0,1.4,0.6,1.7
		c0.2,0.1,0.4,0.1,0.6,0.1c0.5,0,0.9-0.3,1.2-0.7c0.5-1,1-2,1.5-3C446.5,255.7,446.2,254.9,445.6,254.6z"/> <path fill="#525D7D" d="M372.6,332.9c-1.1-0.2-2.2-0.4-3.3-0.6c-0.7-0.2-1.4,0.3-1.5,1c-0.2,0.7,0.3,1.4,1,1.5
		c1.2,0.3,2.3,0.5,3.5,0.7c0.1,0,0.1,0,0.2,0c0.6,0,1.2-0.5,1.3-1.1C373.8,333.7,373.3,333,372.6,332.9z"/> <path fill="#525D7D" d="M394.5,332.8c-1.1,0.2-2.2,0.3-3.4,0.4c-0.7,0.1-1.2,0.7-1.2,1.4c0.1,0.7,0.6,1.2,1.3,1.2c0,0,0.1,0,0.1,0
		c1.2-0.1,2.3-0.3,3.5-0.4c0.7-0.1,1.2-0.8,1.1-1.5C395.9,333.2,395.2,332.7,394.5,332.8z"/> <path fill="#525D7D" d="M351.3,328.2c0.5,0,0.9-0.2,1.1-0.7c0.3-0.6,0.1-1.4-0.5-1.8c-1-0.5-2-1.1-2.9-1.7
		c-0.6-0.4-1.4-0.2-1.8,0.4c-0.4,0.6-0.2,1.4,0.4,1.8c1,0.6,2,1.2,3.1,1.7C350.8,328.1,351,328.2,351.3,328.2z"/> <path fill="#525D7D" d="M383.6,333.6c-0.7,0-1.3,0-2,0c-0.5,0-1,0-1.5,0c-0.7,0-1.3,0.5-1.3,1.3c0,0.7,0.5,1.3,1.3,1.3
		c0.5,0,1,0,1.5,0c0.7,0,1.4,0,2,0c0.7,0,1.3-0.6,1.3-1.3C384.8,334.2,384.3,333.6,383.6,333.6z"/> <path fill="#525D7D" d="M361.9,330.2c-1.1-0.4-2.1-0.8-3.2-1.2c-0.7-0.3-1.4,0.1-1.7,0.7c-0.3,0.7,0.1,1.4,0.7,1.7
		c1.1,0.4,2.2,0.9,3.3,1.2c0.1,0,0.3,0.1,0.4,0.1c0.5,0,1-0.3,1.2-0.9C363,331.2,362.6,330.4,361.9,330.2z"/> <path fill="#525D7D" d="M332.1,310c-0.5-0.5-1.3-0.6-1.8-0.1c-0.5,0.5-0.6,1.3-0.1,1.8c0.8,0.9,1.6,1.7,2.4,2.6
		c0.3,0.3,0.6,0.4,0.9,0.4c0.3,0,0.7-0.1,0.9-0.4c0.5-0.5,0.5-1.3,0-1.8C333.6,311.7,332.8,310.8,332.1,310z"/> <path fill="#525D7D" d="M440.9,264.7c-0.7-0.2-1.4,0.1-1.6,0.8c-0.4,1.1-0.7,2.2-1.1,3.3c-0.2,0.7,0.2,1.4,0.9,1.6
		c0.1,0,0.2,0.1,0.4,0.1c0.6,0,1.1-0.4,1.2-0.9c0.3-1.1,0.7-2.2,1-3.2C442,265.7,441.6,265,440.9,264.7z"/> <path fill="#525D7D" d="M342.6,319.8c-0.9-0.7-1.8-1.4-2.7-2.1c-0.5-0.5-1.4-0.4-1.8,0.2c-0.5,0.5-0.4,1.4,0.2,1.8
		c0.9,0.7,1.8,1.5,2.7,2.2c0.2,0.2,0.5,0.3,0.8,0.3c0.4,0,0.8-0.2,1-0.5C343.3,321,343.2,320.2,342.6,319.8z"/> <path fill="#525D7D" d="M405.1,330.3c-1,0.3-2.1,0.7-3.2,1c-0.7,0.2-1.1,0.9-0.9,1.6c0.2,0.6,0.7,1,1.3,1c0.1,0,0.2,0,0.3,0
		c1.2-0.3,2.3-0.6,3.4-1c0.7-0.2,1-1,0.8-1.6C406.6,330.5,405.8,330.1,405.1,330.3z"/> <path fill="#525D7D" d="M429.6,308.2c-0.7-0.3-1.4,0-1.7,0.7c-0.5,1.1-0.9,2.1-1.4,3.1c-0.3,0.6-0.1,1.4,0.6,1.7
		c0.2,0.1,0.4,0.1,0.6,0.1c0.5,0,0.9-0.3,1.2-0.7c0.5-1,1-2.1,1.5-3.2C430.6,309.2,430.3,308.5,429.6,308.2z"/> <path fill="#525D7D" d="M435.4,286.5c-0.7-0.1-1.4,0.3-1.5,1c-0.2,1.1-0.5,2.2-0.7,3.4c-0.2,0.7,0.3,1.4,1,1.5c0.1,0,0.2,0,0.3,0
		c0.6,0,1.1-0.4,1.3-1c0.2-1.1,0.5-2.3,0.7-3.4C436.6,287.3,436.1,286.6,435.4,286.5z"/> <path fill="#525D7D" d="M424.4,318c-0.6-0.4-1.4-0.3-1.8,0.2c-0.7,0.9-1.4,1.7-2.1,2.5c-0.5,0.5-0.5,1.3,0.1,1.8
		c0.2,0.2,0.6,0.3,0.9,0.3c0.3,0,0.7-0.1,0.9-0.4c0.8-0.9,1.6-1.8,2.3-2.7C425,319.3,424.9,318.5,424.4,318z"/> <path fill="#525D7D" d="M414.8,325.6c-0.9,0.6-1.8,1.2-2.8,1.7c-0.6,0.3-0.9,1.1-0.5,1.8c0.2,0.4,0.7,0.7,1.1,0.7
		c0.2,0,0.4-0.1,0.6-0.2c1-0.6,2.1-1.2,3-1.9c0.6-0.4,0.7-1.2,0.3-1.8C416.2,325.3,415.4,325.2,414.8,325.6z"/> <path fill="#525D7D" d="M433,297.5c-0.7-0.2-1.4,0.2-1.6,0.9c-0.3,1.1-0.6,2.2-0.9,3.3c-0.2,0.7,0.2,1.4,0.9,1.6
		c0.1,0,0.2,0.1,0.4,0.1c0.6,0,1.1-0.4,1.2-0.9c0.3-1.1,0.6-2.2,0.9-3.4C434.1,298.4,433.7,297.6,433,297.5z"/> <path fill="#525D7D" d="M437.8,275.5c-0.7-0.2-1.4,0.3-1.6,1c-0.3,1.1-0.5,2.3-0.8,3.4c-0.2,0.7,0.3,1.4,1,1.5c0.1,0,0.2,0,0.3,0
		c0.6,0,1.1-0.4,1.3-1c0.2-1.1,0.5-2.2,0.7-3.4C438.9,276.4,438.5,275.7,437.8,275.5z"/> <path fill="#525D7D" d="M323.7,300.8c-0.6,0.4-0.8,1.2-0.4,1.8c0.5,0.7,0.9,1.5,1.4,2.2c0.2,0.3,0.3,0.5,0.5,0.7
		c0.3,0.4,0.7,0.6,1.1,0.6c0.3,0,0.5-0.1,0.7-0.2c0.6-0.4,0.7-1.2,0.3-1.8c-0.5-0.8-1-1.5-1.5-2.3c-0.1-0.2-0.2-0.3-0.3-0.5
		C325.1,300.6,324.3,300.4,323.7,300.8z"/> <path fill="#525D7D" d="M576.5,159.7c-0.7,0.3-1,1-0.7,1.7c0,0.1,0.1,0.1,0.1,0.2c0.4,1,0.8,2,1.1,3c0.2,0.5,0.7,0.9,1.2,0.9
		c0.1,0,0.3,0,0.4-0.1c0.7-0.2,1-1,0.8-1.6c-0.2-0.5-0.4-1.1-0.6-1.6c-0.2-0.6-0.4-1.1-0.7-1.7C577.9,159.7,577.2,159.4,576.5,159.7
		z"/> <path fill="#525D7D" d="M126.6,453.7c0.3-0.7,1-1,1.7-0.7c0.2,0.1,0.4,0.2,0.6,0.2c1.1-3.3,0.7-6.2-1.1-8.7c-0.8-1.1-1.8-2.1-3.1-3
		c-1.2-0.9-2.5-1.7-3.9-2.4l-0.7-0.4c-0.9-0.5-1.8-1-2.5-1.6c-0.3-0.2-0.7-0.3-1.1-0.2c-0.4,0.1-0.7,0.3-0.9,0.7
		c-0.5,0.9-1,1.8-1.6,3c-0.1,0.1-0.1,0.2-0.2,0.3c0.4,0.2,0.7,0.4,1.1,0.6l-1.3,2.3c-0.4-0.2-0.8-0.4-1.1-0.7c-1,1.7-2.2,3.9-3.8,7
		c0.4,0.2,0.8,0.5,1.2,0.7c0.5,0.3,0.8,0.9,0.6,1.5c2.9-5.4,4.5-8.4,5.7-10.4c0.4-0.6,0.7-1.2,1-1.7c0.5,0.3,1.1,0.6,1.6,0.9
		l0.7,0.4c1.4,0.7,2.6,1.4,3.7,2.3c1.1,0.8,2,1.6,2.6,2.4c1.4,1.9,1.6,4,0.7,6.6c-0.7,1.9-1.6,3.3-2.8,4.3c-1.1,0.9-2.5,1.5-4.1,1.6
		c-1.7,0.2-3.6-0.1-5.5-0.7c-1-0.3-2.1-0.7-3.2-1.2c-0.7-0.3-1.5-0.7-2.2-1.1c0.6-1.1,1.1-2.1,1.6-3c-0.2,0.3-0.6,0.5-1,0.5
		c-0.2,0-0.4-0.1-0.6-0.2c-0.4-0.2-0.8-0.4-1.1-0.7c-0.5,1-1.1,2.1-1.7,3.3c-0.3,0.6-0.1,1.4,0.5,1.7c1.2,0.7,2.4,1.3,3.5,1.8
		c1.2,0.6,2.5,1,3.5,1.3c1.7,0.6,3.5,0.8,5.2,0.8c0.4,0,0.9,0,1.3-0.1c2.1-0.2,4-0.9,5.5-2.2c1-0.9,1.9-2,2.6-3.3
		c-0.2-0.1-0.4-0.1-0.6-0.2C126.7,455.1,126.3,454.4,126.6,453.7z"/> <path fill="#525D7D" d="M116.8,453.3c0.5,0.2,1,0.4,1.4,0.4c0.3,0,0.6,0,0.9-0.1c0.8-0.3,1.4-0.9,1.9-1.9l0.1-0.2
		c0.5-1.1-0.1-3.3-1.5-3.9c-1-0.5-2.3-0.3-3.2,0.5c-0.3,0.3-0.6,0.6-0.8,0.9c0,0-0.1,0.2-0.1,0.2c-0.4,0.8-0.5,1.6-0.2,2.4
		C115.5,452.3,116.1,452.9,116.8,453.3z M117.8,450.3L117.8,450.3c0.1-0.2,0.2-0.3,0.3-0.4c0.2-0.1,0.3-0.1,0.3-0.2
		c0.1,0.1,0.3,0.5,0.3,0.7c-0.2,0.4-0.3,0.5-0.4,0.6c0,0-0.1,0-0.3-0.1c-0.2-0.1-0.2-0.2-0.2-0.3
		C117.7,450.6,117.7,450.5,117.8,450.3z"/> <path fill="#525D7D" d="M109.2,453.1c0.4,0,0.8-0.2,1-0.5c0-0.1,0.1-0.1,0.1-0.2c0.1-0.1,0.1-0.2,0.1-0.3c0.2-0.6-0.1-1.2-0.6-1.5
		c-0.4-0.2-0.8-0.5-1.2-0.7c-0.3-0.2-0.5-0.3-0.8-0.5c-0.4-0.2-0.7-0.4-1.1-0.6l-1.5-0.9l-4.4-3l-2.9-2.2c-0.6-0.4-1.4-0.3-1.8,0.3
		c-0.4,0.6-0.3,1.4,0.3,1.8l2.9,2.2l4.5,3.1l1.5,0.9c0.3,0.2,0.7,0.4,1,0.6c0.3,0.2,0.6,0.4,1,0.6c0.4,0.2,0.7,0.4,1.1,0.7
		C108.8,453,109,453.1,109.2,453.1z"/> <path fill="#525D7D" d="M114.8,441.4c-0.4-0.2-0.8-0.4-1.1-0.6c-1.4-0.8-2.8-1.6-4-2.5l-2.4-1.7c-0.9-0.7-1.8-1.3-2.6-1.9
		c-0.6-0.4-1.4-0.3-1.8,0.3c-0.4,0.6-0.3,1.4,0.3,1.8c0.8,0.6,1.7,1.2,2.6,1.9l2.4,1.7c1.3,1,2.7,1.8,4.2,2.7
		c0.4,0.2,0.7,0.4,1.1,0.7L114.8,441.4z"/> <path fill="#525D7D" d="M243.4,450.5c-0.1-0.7-0.8-1.2-1.5-1.1c-0.7,0.1-1.5,0.3-2.2,0.4c-4.1,0.8-8.2,1.6-12.1,2.4
		c-7.1,1.5-14.4,3.1-21.7,4.3c-7.4,1.2-14.7,2.1-21.8,2.6l-5.5,0.3c-1.2,0.1-2.3,0.1-3.5,0.1c-0.7,0-1.3,0-2,0l-2.7,0l-2.8,0
		c-1.3,0-2.7-0.1-4-0.1l-1.4-0.1c-7.5-0.4-14.8-1.4-21.6-2.9l-2.6-0.6l-3.2-0.9c-0.7-0.2-1.4-0.4-2.1-0.6l-0.9-0.3
		c-0.4-0.1-0.8-0.3-1.3-0.4c-0.5-0.2-1-0.3-1.5-0.5c-0.2-0.1-0.4-0.1-0.6-0.2c-0.7-0.3-1.4,0-1.7,0.7c-0.3,0.7,0,1.4,0.7,1.7
		c0.2,0.1,0.4,0.1,0.6,0.2c0.6,0.2,1.2,0.4,1.8,0.6c0.4,0.1,0.8,0.3,1.2,0.4l0.8,0.3c0.7,0.3,1.5,0.5,2.2,0.7l3.2,0.9l2.7,0.6
		c7,1.6,14.4,2.6,22.1,3l1.4,0.1c1.4,0.1,2.8,0.1,4.1,0.1l2.8,0l2.8,0c0.7,0,1.3,0,2,0c1.2,0,2.4,0,3.6-0.1l5.5-0.3
		c7.2-0.5,14.6-1.4,22.1-2.7c7.4-1.2,14.7-2.8,21.8-4.3c4.5-0.9,9.1-1.9,13.6-2.7c0.2,0,0.4-0.1,0.6-0.1
		C243.1,451.9,243.5,451.2,243.4,450.5z"/> <path fill="#525D7D" d="M354,360.4c-0.3,0-0.6,0-0.9,0c0,0.8,0.1,1.5,0.2,2.2l0.1,1c0.1,0.7,0.6,1.2,1.3,1.2c0,0,0.1,0,0.1,0
		c0.7-0.1,1.2-0.7,1.2-1.4l-0.1-1c-0.1-0.8-0.1-1.6-0.2-2.3c-0.3,0-0.6,0-0.9,0C354.6,360.3,354.3,360.4,354,360.4z"/> <path fill="#525D7D" d="M355.7,357.5c0-0.7,0.1-1.4,0.2-2.1c0.1-0.7-0.4-1.4-1.1-1.5c-0.7-0.1-1.4,0.4-1.5,1.1
		c-0.1,0.8-0.2,1.7-0.2,2.6c0.4,0,0.8-0.1,1.3-0.1C354.8,357.5,355.3,357.5,355.7,357.5z"/> <path fill="#525D7D" d="M355.7,357.5c-0.4,0-0.8,0.1-1.3,0.1c-0.5,0-0.9,0.1-1.3,0.1c-0.3,0-0.6,0.1-0.8,0.1
		c-0.8,0-1.5,0.1-2.6,0.2c-0.7,0.1-1.2,0.7-1.1,1.4c0.1,0.7,0.6,1.1,1.3,1.1c0.1,0,0.1,0,0.2,0c1.3-0.2,2-0.2,3.1-0.2
		c0.3,0,0.6,0,0.9,0c0.3,0,0.5-0.1,0.8-0.2c0.3,0,0.6,0,0.9,0c0.7,0,1.3-0.1,1.9-0.1c0.2,0.1,0.5,0.2,0.8,0.1
		c0.6-0.1,1.9-0.2,1.8-1.5C360.1,357.4,359.4,357.3,355.7,357.5z"/> <path fill="#525D7D" d="M31.1,91c-0.3,0-0.6,0-0.9,0c0,0.8,0.1,1.5,0.2,2.2l0.1,1c0.1,0.7,0.6,1.2,1.3,1.2c0,0,0.1,0,0.1,0
		c0.7-0.1,1.2-0.7,1.2-1.4l-0.1-1c-0.1-0.8-0.1-1.6-0.2-2.3c-0.3,0-0.6,0-0.9,0C31.7,90.9,31.4,91,31.1,91z"/> <path fill="#525D7D" d="M32.7,88.1c0-0.7,0.1-1.4,0.2-2.1c0.1-0.7-0.4-1.4-1.1-1.5c-0.7-0.1-1.4,0.4-1.5,1.1
		c-0.1,0.8-0.2,1.7-0.2,2.6c0.4,0,0.8-0.1,1.3-0.1C31.9,88.1,32.3,88.1,32.7,88.1z"/> <path fill="#525D7D" d="M32.7,88.1c-0.4,0-0.8,0.1-1.3,0.1c-0.5,0-0.9,0.1-1.3,0.1c-0.3,0-0.6,0.1-0.8,0.1c-0.8,0-1.5,0.1-2.6,0.2
		c-0.7,0.1-1.2,0.7-1.1,1.4c0.1,0.7,0.6,1.1,1.3,1.1c0.1,0,0.1,0,0.2,0c1.3-0.2,2-0.2,3.1-0.2c0.3,0,0.6,0,0.9,0
		c0.3,0,0.5-0.1,0.8-0.2c0.3,0,0.6,0,0.9,0c0.7,0,1.3-0.1,1.9-0.1c0.2,0.1,0.5,0.2,0.8,0.1c0.6-0.1,1.9-0.2,1.8-1.5
		C37.1,88,36.5,87.9,32.7,88.1z"/> <path fill="#525D7D" d="M534.5,209.3c-0.3,0-0.6,0-0.9,0c0,0.8,0.1,1.5,0.2,2.2l0.1,1c0.1,0.7,0.6,1.2,1.3,1.2c0,0,0.1,0,0.1,0
		c0.7-0.1,1.2-0.7,1.2-1.4l-0.1-1c-0.1-0.8-0.1-1.6-0.2-2.3c-0.3,0-0.6,0-0.9,0C535.1,209.2,534.8,209.3,534.5,209.3z"/> <path fill="#525D7D" d="M536.1,206.4c0-0.7,0.1-1.4,0.2-2.1c0.1-0.7-0.4-1.4-1.1-1.5c-0.7-0.1-1.4,0.4-1.5,1.1
		c-0.1,0.8-0.2,1.7-0.2,2.6c0.4,0,0.8-0.1,1.3-0.1C535.3,206.4,535.7,206.4,536.1,206.4z"/> <path fill="#525D7D" d="M534.8,206.5c-0.5,0-0.9,0.1-1.3,0.1c-0.3,0-0.6,0.1-0.8,0.1c-0.8,0-1.5,0.1-2.6,0.2
		c-0.7,0.1-1.2,0.7-1.1,1.4c0.1,0.7,0.6,1.1,1.3,1.1c0.1,0,0.1,0,0.2,0c1.3-0.2,2-0.2,3.1-0.2c0.3,0,0.6,0,0.9,0
		c0.3,0,0.5-0.1,0.8-0.2c0.3,0,0.6,0,0.9,0c0.7,0,1.3-0.1,1.9-0.1c0.2,0.1,0.5,0.2,0.8,0.1c0.6-0.1,1.9-0.2,1.8-1.5
		c-0.1-1.3-0.8-1.4-4.5-1.1C535.7,206.4,535.3,206.4,534.8,206.5z"/> <path fill="#525D7D" d="M169.8,28.9c-0.3,0-0.6,0-0.9,0c0,0.8,0.1,1.5,0.2,2.3l0.1,1c0.1,0.7,0.6,1.2,1.3,1.2c0,0,0.1,0,0.1,0
		c0.7-0.1,1.2-0.7,1.2-1.4l-0.1-1c-0.1-0.8-0.1-1.6-0.2-2.3c-0.3,0-0.6,0-0.9,0C170.3,28.8,170.1,28.9,169.8,28.9z"/> <path fill="#525D7D" d="M171.4,26c0-0.7,0.1-1.4,0.2-2.1c0.1-0.7-0.4-1.4-1.1-1.5c-0.7-0.1-1.4,0.4-1.5,1.1
		c-0.1,0.8-0.2,1.7-0.2,2.6c0.4,0,0.8-0.1,1.3-0.1C170.6,26.1,171,26,171.4,26z"/> <path fill="#525D7D" d="M165.6,29.1c0.1,0,0.1,0,0.2,0c1.3-0.2,2-0.2,3.1-0.2c0.3,0,0.6,0,0.9,0c0.3,0,0.5-0.1,0.8-0.2
		c0.3,0,0.6,0,0.9,0c0.7,0,1.3-0.1,1.9-0.1c0.2,0.1,0.5,0.2,0.8,0.1c0.6-0.1,1.9-0.2,1.8-1.5c-0.1-1.3-0.8-1.4-4.5-1.1
		c-0.4,0-0.8,0.1-1.3,0.1c-0.5,0-0.9,0.1-1.3,0.1c-0.3,0-0.5,0.1-0.8,0.1c-0.8,0-1.5,0.1-2.6,0.2c-0.7,0.1-1.2,0.7-1.1,1.4
		C164.4,28.7,165,29.1,165.6,29.1z"/> <path fill="none" stroke="#525D7D" stroke-width="2" stroke-miterlimit="10" d="M267.4,475.4c0.5,7,2.7,21.8,13.2,28.8
		c15.6,10.3,46.8,1.5,68.5-29.4"/> </g> </symbol><symbol viewBox="0 0 100 100" id="icon__design"><title>design</title><path fill="#f06a6b" d="M95 86.6l-10.2-18.8c-.4-.6-1.1-1.1-1.8-1.1h-26.9l.1-.5v-5.3h28c1.2 0 2.1-.9 2.1-2.1v-46.7c0-1.2-.9-2.1-2.1-2.1h-68.4c-1.2 0-2.1.9-2.1 2.1v46.7c0 1.2.9 2.1 2.1 2.1h28v5.3999999999999995c0 .2 0 .3.1.5h-29c-.8 0-1.5.5-1.9 1.3l-8.3 19c-.3.6-.2 1.4.2 1.9s1 .9 1.7.9h86.7c1.2 0 2.1-.9 2.1-2.1 0-.4-.1-.9-.4-1.2zm-8.6-7.1h-8.5l-.2-1-.5-2.6h7.5l1.7 3.6zm-60.2-3.7h10.6l-.3 2.7-.1.9h-11.1l.1-.5.8-3.1zm11.1-5l-.3 2.9h-10.4l.6-2.9h10.1zm25.2 8l.1.6h-11.1v-3.5999999999999996h10.7l.3 3zm-13-.1v.8h-11.1l.1-.6.4-2.9h10.7l-.1 2.7zm-13.3 2.8l-.5 4.3h-11.7l.9-4.3h11.3zm2.1 0h11.3v4.3h-11.9l.6-4.3zm13.2 0h11.3l.5 4.3h-11.9l.1-4.3zm13.4 0h11.3l.9 4.3h-11.8l-.4-4.3zm-.2-2l-.1-.9-.3-2.7h10.7l.6 3.1.1.5h-11zm9.2-8.7l.6 2.9h-10.4l-.4-2.9h10.2zm9.4 3h-6.7l-.6-2.9h5.8l1.5 2.9zm-21.6-3l.4 2.9h-10.6v-2.9h10.2zm-13.8-4.5v-5.3h4.1v5.3h-4.1zm-30.1-9.6v-42.6h64.3v42.6h-64.3zm31.7 14.1v2.9h-10.4l.4-2.9h10zm-33.2 0h8.9l-.6 2.9h-9.6l1.3-2.9zm-2.2 5h10l-.5 2.6-.2 1h-10.9l1.6-3.6zm-2.5 5.7h11.2l-.9 4.3h-12.2l1.9-4.3zm67.7 4.3l-.9-4.3h9.3l2.4 4.3h-10.8zM23.9 29.3c-.4-.4-1.1-.4-1.5 0s-.4 1.1 0 1.5l1.5 1.5c.2.2.5.3.7.3.3 0 .5-.1.7-.3.4-.4.4-1.1 0-1.5l-1.4-1.5zM24.4 28.1c.3 0 .5-.1.7-.3l1.5-1.5c.4-.4.4-1.1 0-1.5s-1.1-.4-1.5 0l-1.5 1.5c-.4.4-.4 1.1 0 1.5.3.2.6.3.8.3zM28.8 23.7c.3 0 .5-.1.7-.3l1.5-1.4c.4-.4.4-1.1 0-1.5s-1.1-.4-1.5 0l-1.4 1.5c-.4.4-.4 1.1 0 1.5.2.1.4.2.7.2zM38.3 24.4c.2.2.5.3.7.3s.5-.1.7-.3c.4-.4.4-1.1 0-1.5l-1.5-1.5c-.4-.4-1.1-.4-1.5 0-.4.4-.4 1.1 0 1.5l1.6 1.5zM28.3 33.6c-.4-.4-1.1-.4-1.5 0s-.4 1.1 0 1.5l1.5 1.5c.2.2.5.3.7.3s.5-.1.7-.3c.4-.4.4-1.1 0-1.5l-1.4-1.5zM34.2 17.4c-.4-.4-1.1-.4-1.5 0l-.3.3c-.4.4-.4 1.1 0 1.5.2.2.5.3.8.3l.6.6c.2.2.5.3.7.3s.5-.1.7-.3c.4-.4.4-1.1 0-1.5l-1-1.2zM33.4 38.8l-.7-.8c-.4-.4-1.1-.4-1.5 0s-.4 1.1 0 1.5l1.5 1.5c.2.2.5.3.7.3.3 0 .5-.1.7-.3l.5-.5c.4-.4.4-1.1 0-1.5-.3-.4-.7-.4-1.2-.2zM75.6 40.5l-11.1-11.1c-.2-.2-.5-.3-.7-.3s-.5.1-.7.3l-4.5 4.5-9.4-9.5c-.4-.4-1.1-.4-1.5 0l-3.5 3.5c0-.2-.1-.4-.3-.5l-1.5-1.5c-.4-.4-1.1-.4-1.5 0-.4.4-.4 1.1 0 1.5l1.5 1.5c.2.2.4.2.5.3l-5.5 5.5v.1s-.1 0-.1.1l-1.5 1.5c-.4.4-.4 1.1 0 1.5.2.2.5.3.7.3.3 0 .5-.1.7-.3l.9-.9 9.4 9.4c.2.2.5.3.7.3.3 0 .5-.1.7-.3l3.5-3.5 10.9 10.1c.2.2.5.3.7.3.3 0 .5-.1.7-.3l11.1-11.1c.3-.4.3-1-.2-1.4zm-12.4-8.2h1.4l2.9 2.9h-7.2l2.9-2.9zm-14.7 11.5l-8.6-8.6 8.6-8.6 8.6 8.6-8.6 8.6zm16 6.3h-1.4l-2.9-2.9h7.2l-2.9 2.9zm5-4.9h-11.3l-2.9-2.9h17.2l-3 2.9zm-14.2-5l2.9-2.9h11.4l2.9 2.9h-17.2z"/></symbol><symbol viewBox="0 0 94.9 164.6" id="icon__dude-404"><title>dude-404</title><path fill="#ffffff" d="M77.1 92.6c5.4-4.9 9.8-10.9 12.7-17.9.3-.3.3-.8.5-1 3.9-8.8 7.2-29.5 1.6-43-7.3-16.2-28.3-24.5-35.3-25.5-.8-.3-2.1-.5-2.1-.5l.6-4.7-3.1 3.9-6.5-3.9 2.3 4.4s-30.5.5-42.7 22.8c-8.8 15.8-4.6 40.1.5 48.6 2.8 7 7.5 13.2 13.2 17.9-2.8 2.3-5.2 5.2-7.2 8.3-5.7 9.3-8.5 22-8.5 40.4 0 2.8 2.8 3.6 6.7 4.7.8.3 2.1.5 2.8.8 1.6 16.8 16.3 16.8 29.5 16.8h6c18.1 0 33.9 0 35.7-16.8l2.6-.8c3.9-1 6.5-1.8 6.5-4.7.2-20.5-2.4-39.4-15.8-49.8zm-68.9-30.7c1.8-2.1 4.1-4.4 5.4-6.5 1.6-2.1 2.8-5.7 3.6-8.3 6.5 6 17.1 14 27.7 15.8 16.6 2.6 29.8 1 29.8 1l-5.7-3.9s12.7 3.9 14.8 4.1c1 0 2.1-.3 3.1-.5-2.6 19.4-19.2 34.2-39.1 34.2-20.9.3-37.8-15.8-39.6-35.9zm50 40.6c-2.1 1.8-6 3.4-11.1 3.4-5.4 0-9.6-1.6-11.4-3.6 3.9 1 7.8 1.6 11.9 1.6 3.6-.1 7.2-.6 10.6-1.4zm-11.9 56.4h-4.1c-16.3 0-23.6-1.3-24.1-13.2v-1.6h7.8c-.3.8-1 1.6-1.6 2.3-1.3 1.3-3.1 1.8-3.1 1.8l.5 1.8.3 1.8c.3 0 2.8-.8 4.9-2.8 1.8-1.8 2.8-4.4 2.8-4.9h16.6v14.8zm32.3-13.7v.5c-.8 12.2-9.8 12.9-28.2 13.2v-14.5h16.3c.3.5 1.3 3.1 2.8 4.9 2.1 2.1 4.7 2.8 4.9 2.8l.8-3.6s-1.8-.5-3.1-1.8c-.8-.8-1.3-1.6-1.6-2.3h8c.1.5.1.8.1.8zm6.2-3.9c-1 .3-1.8.5-2.6.8 0-.3 0-.3-.3-.5l-4.4-24.3s.3 9.8.8 16.3c.3 2.6.3 5.2.3 7h-60.5c0-2.1 0-4.4.3-7 .3-6.5.8-16.3.8-16.3l-4.4 24.8c-.8-.3-1.8-.5-2.8-.8l-2.6-.8c.3-22 4.9-36.2 15-43.7 2.3 1.6 4.7 2.6 7.2 3.6.8 5.2 7.5 8.8 16.3 8.8 8.5 0 15.3-3.6 16.3-8.5 3.4-1.3 6.2-2.8 9.1-4.7 11.6 8 14.8 23.6 15 44.5-1.7.3-2.7.5-3.5.8zM39.5 91.6c.3.8 1 1 1.6 1 .3 0 .5 0 .8-.3 0 0 2.1-1 5.2-1 3.6 0 5.7 1 5.7 1 1 .5 2.1 0 2.6-.8.5-1 0-2.1-.8-2.6 0 0-2.8-1.6-7.2-1.6-4.1 0-6.7 1.3-7 1.3-.9.9-1.1 2.2-.9 3zM57.7 83.6c2.3 0 4.1-1.8 4.1-4.1v-4.9c0-.5 0-1-.3-1.6-1.6.5-5.2 1.3-7.8 2.6v3.9c.1 2.3 1.9 4.1 4 4.1zM37.5 83.6c2.3 0 4.1-1.8 4.1-4.1v-3.9c-2.6-1-6.2-2.1-7.8-2.6-.3.5-.3 1-.3 1.6v4.9c.1 2.3 1.9 4.1 4 4.1z"/></symbol><symbol viewBox="0 0 100 100" id="icon__facebook"><title>facebook</title> <path d="M90.1 5.1H10c-2.7 0-5 2.2-5 5v80.1c0 2.7 2.2 5 5 5h43.1V60.3H41.4V46.7h11.7V36.7c0-11.6 7.1-18 17.5-18 5 0 9.2 0.4 10.5 0.5v12.2l-7.2 0c-5.6 0-6.7 2.7-6.7 6.6v8.7h13.5l-1.8 13.6H67.2v34.9h22.9c2.7 0 5-2.2 5-5V10.1C95.1 7.4 92.8 5.1 90.1 5.1z"/> </symbol><symbol viewBox="0 0 100 100" id="icon__github"><title>github</title><g fill="#FFFFFF"><path d="M49.5 3c-26.8 0-48.5 21.7-48.5 48.5 0 21.4 13.9 39.6 33.2 46 2.4.4 3.3-1.1 3.3-2.3 0-1.2 0-5-.1-9-13.5 2.9-16.3-5.7-16.3-5.7-2.2-5.6-5.4-7.1-5.4-7.1-4.4-3 .3-2.9.3-2.9 4.9.3 7.4 5 7.4 5 4.3 7.4 11.3 5.3 14.1 4 .4-3.1 1.7-5.3 3.1-6.5-10.8-1.2-22.1-5.4-22.1-24 0-5.3 1.9-9.6 5-13-.5-1.2-2.2-6.2.5-12.8 0 0 4.1-1.3 13.3 5 3.9-1.1 8-1.6 12.1-1.6s8.3.6 12.2 1.6c9.3-6.3 13.3-5 13.3-5 2.6 6.7 1 11.6.5 12.8 3.1 3.4 5 7.7 5 13 0 18.6-11.3 22.7-22.2 23.9 1.7 1.5 3.3 4.5 3.3 9 0 6.5-.1 11.7-.1 13.3 0 1.3.9 2.8 3.3 2.3 19.4-6.4 33.3-24.5 33.3-46 0-26.8-21.7-48.5-48.5-48.5z" fill-rule="evenodd" clip-rule="evenodd"/><path fill="#FFFFFF" d="M19.4 72.7c-.1.2-.5.3-.8.1-.4-.2-.5-.5-.4-.7.1-.2.5-.3.8-.2.3.2.5.5.4.8zm-.6-.5M21.3 74.9c-.2.2-.7.1-1-.2-.3-.3-.4-.8-.1-1 .2-.2.7-.1 1 .2.3.3.4.7.1 1zm-.4-.5M23.3 77.7c-.3.2-.8 0-1.1-.4-.3-.4-.3-.9 0-1.2.3-.2.8 0 1.1.4.3.4.3.9 0 1.2zm0 0M25.9 80.4c-.3.3-.8.2-1.2-.2-.4-.4-.5-.9-.3-1.2.3-.3.8-.2 1.3.2.3.3.5.9.2 1.2zm0 0M29.5 81.9c-.1.4-.7.6-1.2.4-.5-.2-.9-.6-.8-1 .1-.4.7-.6 1.2-.4.5.2.9.6.8 1zm0 0M33.5 82.2c0 .4-.5.7-1 .7-.6 0-1-.3-1.1-.7 0-.4.5-.7 1-.7.6 0 1.1.3 1.1.7zm0 0M37.2 81.6c.1.4-.3.8-.9.9-.6.1-1.1-.1-1.2-.5-.1-.4.3-.8.9-1 .6-.1 1.1.2 1.2.6zm0 0"/></g></symbol><symbol viewBox="0 0 100 100" id="icon__harvey"><title>harvey</title><path fill="#ffffff" d="M99.4 29.1c-.3-1.1-.8-2.2-1.6-3.4-4.4-6.5-12.5-10.9-21.1-11.4-6.9-.4-9.8 1.7-10.7 2.7-7.2-3.1-15.6-3.2-16-3.2s-8.7.1-16 3.2c-1-1-3.8-3.1-10.7-2.7-8.6.5-16.7 4.9-21.1 11.4-.8 1.2-1.4 2.3-1.6 3.4-.3 1.3-.3 2.7-.3 3.7.2 8.4 1 18.1 6.3 25.9 1.7 2.5 3.7 3.9 5.9 3.9.2 0 .5 0 .7-.1 2-.3 3.3-1.6 4.3-2.9 1.3 4.1 3.8 9.9 8.6 16.5l.1.1.1.1.1.1c.4.5.8 1.1 1.3 1.7.5.6 1.1 1.1 1.4 1.8 4.2 5 8.7 7.8 13.3 8.2.5.1.9.1 1.4.1 2.8 0 5-.9 6.3-1.6 1.5.8 4.2 1.9 7.6 1.6 3-.3 7.8-3.8 10.8-6.2.3-.3.7-.6 1-.8h.1v-.1c.3-.6 1-1 1.5-1.5s1.2-1.1 1.6-1.6c.3-.4.5-.8.7-1.1.2-.4.5-.7.8-1 1.2-2 7.2-12.4 8.4-16.2 1 1.3 2.3 2.6 4.3 2.9l.7.1c2.1 0 4.2-1.4 5.9-3.9 5.2-7.8 6.1-17.5 6.3-25.9-.1-1.2-.1-2.5-.4-3.8zm-80.2 16.1c-.2.8-.4 1.6-.7 2.5l-.3 1c-.1.3-.2.6-.4 1-.4 1-.8 2-1.3 2.9l-.3.6c-.6 1.1-1.3 2.2-2 3.2s-1.2 1.5-1.6 1.6c-.5.1-1.4-.7-2.2-1.9-4.6-6.8-5.4-15.7-5.5-23.5 0-1 0-1.8.2-2.5.2-.6.5-1.2 1-2 3.6-5.4 10.3-9 17.6-9.4l1.5-.1c1 0 1.9.1 2.6.2-.1.1-.1.2-.2.2l-.6.5-.3.3c-.6.6-1.1 1.1-1.6 1.7-.1.1-.1.2-.2.2-.5.7-1 1.5-1.4 2.3l-.2.3c-.4.8-.8 1.6-1.1 2.4-.4 1-.7 2-1 3.1-.6 2.8-.9 5.5-1.2 8.2-.1 2.5-.3 4.9-.8 7.2zm49.4 30.5c-3.8 4.8-7.6 7.5-11.3 7.9-2.3.2-4.1-.5-5-1v-6c3.9-1.5 6.8-6.5 6.8-8.6 0-2.5-4.1-4.5-9-4.5s-9 2-9 4.5c0 2.1 2.9 7.1 6.8 8.6v6c-1 .5-2.7 1.2-5 1-3.7-.4-7.5-3.1-11.3-7.9-7.9-10.2-10-18.1-10.6-21.6v-.1c.3-.6.6-1.2.8-1.8.3-.7.6-1.5.8-2.2l.3-.9c.3-1 .6-1.9.8-2.9.6-2.5.8-5.1 1-7.6.3-2.6.5-5.2 1.1-7.6l.6-2.1c.1-.1.1-.2.1-.4l.7-1.7c.1-.1.1-.2.1-.2.3-.6.6-1.2 1-1.7.4-.6.8-1.1 1.2-1.6l3.2-.6.4-.2c6.6-4.1 16.8-4.2 16.9-4.2s10.3.1 16.9 4.2l.4.2 3.2.6c.9.9 1.6 2 2.3 3.3 0 .1.1.2.1.2.3.5.5 1.1.7 1.7.1.1.1.2.1.4.2.7.5 1.4.6 2.1.6 2.5.8 5 1.1 7.6.2 2.5.5 5.1 1 7.6.2 1 .5 1.9.8 2.9l.3.9.8 2.2.8 1.8v.1c-.5 3.5-2.6 11.4-10.5 21.6zm26.6-43c-.2 7.8-.9 16.6-5.5 23.5-.8 1.2-1.7 1.9-2.2 1.9-.4-.1-.9-.6-1.6-1.5-.7-1-1.4-2.1-2-3.2l-.3-.6c-.5-1-1-2-1.4-3l-.3-.9c-.1-.3-.2-.7-.3-1.1l-.7-2.4c-.5-2.3-.7-4.6-1-7.1-.3-2.7-.5-5.5-1.2-8.2-.3-1.1-.6-2.1-1-3.1-.3-.9-.7-1.7-1.1-2.4l-.2-.3c-.5-.8-.9-1.6-1.5-2.3-.1-.1-.1-.1-.1-.2-.5-.6-1-1.2-1.6-1.8-.1-.1-.2-.2-.2-.3l-.4-.7c-.1-.1-.1-.2-.2-.2 1-.2 2.3-.2 4-.1 7.2.4 14 4.1 17.6 9.4.5.8.8 1.4 1 2 .2.8.2 1.6.2 2.6z"/><circle fill="#ffffff" cx="35.3" cy="48.8" r="5.6"/><circle fill="#ffffff" cx="64.7" cy="48.8" r="5.6"/></symbol><symbol viewBox="0 0 100 100" id="icon__home"><title>home</title><path d="M49.4 65.1c-0.1 1.2 0 2.1-0.2 3 -0.3 2.5-3.1 3.8-5.1 2.2 -2.9-2.3-5.7-4.7-8.4-7.2 -1.6-1.4-1.5-3.6 0.2-5 2.6-2.2 5.2-4.4 7.7-6.7 1.1-1 2.3-1.4 3.7-0.8 1.5 0.6 2 1.8 2 3.3 0 0.4 0 0.9 0.1 1.6 1 0 2.1 0 3.1 0 1.5 0 3.1 0 4.6 0 7 0 12.1 5.1 12.2 12.1 0 4.7 0 9.4 0 14 0 3.7 1.9 5.6 5.5 5.6 3.3 0 6.7 0 10 0 1.9 0 2.8-0.8 2.8-2.8 0-10.4 0-20.8 0-31.2 0-1.6-0.5-3-1.7-4.1C74.5 37.6 63 26.1 51.6 14.7c-2-2-4.4-1.8-6.6 0.4 -7.8 7.8-15.5 15.5-23.3 23.3 -0.5 0.5-1 1.1-1.6 1.5 -1.9 1.6-4.5 1.5-6.3-0.1 -1.9-1.7-2.1-4.4-0.6-6.4 0.4-0.5 0.8-0.9 1.2-1.3 8-8 15.9-16 23.9-23.9C44.4 2 52.4 2 58.6 8.1c11.2 11.2 22.4 22.3 33.6 33.5 3.3 3.3 5 7.2 4.9 11.9 -0.1 10.2 0 20.5 0 30.7 0 6.8-4.4 11.9-11.3 12.4 -4.5 0.3-9 0.3-13.4-0.1 -7.2-0.7-12.5-6.8-12.6-14.1 -0.1-4.7 0-9.4 0-14 0-2.6-0.7-3.4-3.3-3.4C54.2 65.1 51.9 65.1 49.4 65.1z"/><path d="M8.3 95c-2.6 0-4.8-2.1-4.8-4.8L3.5 49.9c0-2.9 1.3-6.5 3.2-8.7l8.8-10.3c1.7-2 4.7-2.3 6.7-0.5 2 1.7 2.3 4.7 0.5 6.7L14 47.4c-0.4 0.5-0.9 1.9-0.9 2.5l0.1 40.3C13.1 92.9 11 95 8.3 95 8.3 95 8.3 95 8.3 95z"/></symbol><symbol viewBox="0 0 100 100" id="icon__html"><title>html</title><path fill="#f06a6b" d="M30 39h4.7v5.3h2.8v-12.5h-2.8v4.8h-4.7v-4.8h-2.8v12.5h2.8zM42.1 44.3h2.8v-10.2h3.4v-2.3h-9.5v2.3h3.3zM52.1 39.5c.1-1.6.1-3.5.2-5.2.3 1.6.7 3.4 1.1 4.9l1.3 4.8h2.3l1.5-4.9c.5-1.5 1-3.2 1.4-4.8h.1c0 1.8.1 3.6.1 5.1l.2 4.8h2.7l-.7-12.5h-3.7l-1.3 4.2c-.4 1.4-.8 3-1.2 4.5h-.1c-.3-1.5-.7-3-1.1-4.5l-1.2-4.2h-3.7l-.8 12.5h2.6l.3-4.7zM67.8 31.8h-2.8v12.5h7.8v-2.4h-5zM72 10h-44c-5.1 0-9.2 4.1-9.2 9.2v61.6c0 5.1 4.1 9.2 9.2 9.2h44c5.1 0 9.2-4.1 9.2-9.2v-61.6c0-5.1-4.1-9.2-9.2-9.2zm6.7 70.8c0 3.7-3 6.7-6.7 6.7h-44c-3.7 0-6.7-3-6.7-6.7v-61.6c0-3.7 3-6.7 6.7-6.7h44c3.7 0 6.7 3 6.7 6.7v61.6zM27.8 60.5h44.1v2.5h-44.1zM27.8 66.7h44.1v2.5h-44.1zM27.8 72.8h44.1v2.5h-44.1z"/></symbol><symbol viewBox="0 0 200 100" id="icon__logo-new"><title>logo-new</title><path fill="#FCCC81" d="M91.2 70.3l.2.1c2.2 1 4.2 1.7 6.2 2.1 4.8.3 9.6-1.5 13.4-4.8-.4-1.4 0-3.1 1.6-4 .7-.4 1.3-.8 1.9-1.3l.6-1.2c.3-.9.3-2 .4-2.9.2-1.6-.1-3.2-.3-4.8-.4-2.1-3.3-2.1-4.3-.6-.6 1-1.3 2-2.1 2.9l-1.5 1.6c-.1.1-.2.2-.2.4-.4 0-.7.1-1.1.2-2.7.9-6.5 2.3-9.3 1.2-2.1-.8-4.6-3.1-5.6-5.1-.7-1.5-3-1.7-4-.5-2.3 2.5-3 5.5-2.5 8.4 1.7 2.6 3.7 4.9 5.9 7.2.3.4.5.7.7 1.1z"/><path fill="#E0DFE6" d="M43.5 64.5c5.7-1.6 11.6-3.6 16.8-6.6 3.4-1.9.3-7.3-3.1-5.3-4.9 2.8-9.6 5.7-14.8 7.8-2.4 1.1-1.5 4.8 1.1 4.1zM168.4 66.9c3.4.7 6.2-4.4 2.6-6.1-3.9-1.8-7.9-2.9-11.5-5.5-2.3-1.6-4.4 1.7-2.8 3.6 3 3.6 7 7.1 11.7 8zM172.5 58.3c1.2.6 2.5 1 3.8 1.2 1.3.2 2.8-.3 3.1-1.8.3-1.3-.4-2.7-1.8-3.1l-1.3-.4-.4-.2-.8-.4c-1.2-.7-3-.3-3.7 1-.5 1.2-.3 3 1.1 3.7zM25.2 63.2c5 1.6 11.3-2.4 14.7-5.7 3.9-3.7-2.7-9.3-6-4.6-1.2 1.6-2.7 3.1-4.3 4.3-1.6 1.1-3.6 1.8-5.1 3.1-1 .9-.4 2.5.7 2.9zM66 59.6c.7.6 1.6.8 2.4.5 3.6 8.3 12 15.9 20 18.4 5.3 1.7 12.4 2.2 18 1.6 6.1-.6 11.6-2.5 15.9-7 .8-.8 1-1.7 1-2.5 5.3-3.4 9.5-8.3 11.5-14.3 0 .3.1.6.3.8 2.1 2.9 5.5 4.7 8.4 6.7 3.4 2.4 6.6 4.9 10.9 3.7 4.8-1.3 4.4-7.8 0-9.3-3-1-6.1-1.9-9.1-3-2.8-1.1-5.8-2-8.9-1.5-.4.1-.8.3-1.1.6l.6-2.7c.1-.8-.7-1.3-1.4-.8-3.4 2.7-6.8 5.4-10.3 7.9-.1-2.2-.7-4.4-1.9-6.4-.9-1.4-3.4-.9-3.3.9.3 3.8-1.7 7-4.6 9.2-.6.5-1.2.9-1.9 1.3-1.6 1-2 2.6-1.6 4v.1c-1.4.9-1.9 2.3-1.7 3.7-1.3.4-2.6.8-3.9 1-2.9.5-5.3.4-7.7 0-2-.4-4-1.1-6.2-2.1l-.2-.1c-.2-.4-.4-.7-.7-1.1-2.2-2.3-4.3-4.6-5.9-7.2-.9-1.5-1.7-3-2.4-4.7-.2-.5-.5-.8-.9-.9l-.1-1.6c-.1-.9-1.2-1-1.5-.2-.9 2.4-1.7 5.2-1.8 7.9-3.4-2.7-6.3-5.8-8.2-9.6-.7-1.4-3.1-.8-3 .8l.1.8c-.3-.2-.7-.3-1.1-.3-.3 0-.5.1-.7.4-.4.7-.3 1.4-.2 2.1.1 1 .4 2.2 1.2 2.9z"/><path fill="#525D7D" d="M104 80.6c14.4-1.1 24.8-7.7 32-20.2-.6-.5-.8-1.4-.4-2 .4-.6 1.1-.8 1.8-.6.9-1.8 1.7-3.6 2.5-5.6.2-.6.1-1.2-.3-1.6-2.5-2.5-5.1-4.7-7.8-6.7-.8.4-1.6.7-2.3 1.1-.5.2-1 .2-1.4-.1 3 2 5.9 4.4 8.7 7.1-7.4 17.8-19 25.8-37.5 25.8-13.9 0-25.4-7.5-36.2-23.7 9.2-11.3 23.5-18.3 37.5-18.3 9.3 0 18.8 3.1 27.4 9-.2-.1-.4-.3-.5-.6-.4-.7 0-1.6.7-2 .2-.1.5-.2.8-.4-9-5.9-18.7-9.1-28.4-9.1-9.2 0-18.5 2.9-26.6 7.9l.7.3c.8.3 1.1 1.2.7 2-.3.8-1.2 1.1-2 .7l-2.4-1.1c-4 3-7.8 6.5-10.9 10.5-.4.5-.4 1.2-.1 1.7l.9 1.3 1.3-.8c.7-.5 1.6-.3 2.1.4s.3 1.6-.4 2.1l-1.2.8c10.8 15.1 22.6 22.2 36.7 22.2h1.7M102.3 80.7"/><path fill="#525D7D" d="M99.9 39.4c-1.6 0-3.2.2-4.7.7-7.1 2.1-12.2 9-12.2 16.4 0 8.5 7.4 17.5 18.4 17.5 9.6 0 17.1-7.4 17.1-16.8 0-9.8-8.4-17.8-18.6-17.8zm1.5 31.6c-9.2 0-15.4-7.4-15.4-14.4 0-6.1 4.2-11.8 10.1-13.6 1.2-.4 2.5-.6 3.9-.6 8.6 0 15.6 6.6 15.6 14.7-.1 7.9-6.3 13.9-14.2 13.9zM100.4 49.2c-.7 0-1.4.1-2.1.3-3.2.9-5.4 3.9-5.4 7.2 0 3.7 3.2 7.6 8 7.6 4.1 0 7.5-3.3 7.5-7.4.1-4.3-3.5-7.7-8-7.7zm.6 12.1c-2.9 0-5-2.4-5-4.6 0-2 1.4-3.8 3.2-4.3.4-.1.8-.2 1.2-.2 2.8 0 5.1 2.1 5.1 4.7 0 2.5-2 4.4-4.5 4.4zM3.1 57.5c8.1.5 16.2-.5 24.1-3-1.6 2.4-3.7 4.8-6.1 7.1-.5.4-.6 1.1-.3 1.7.2.6.8.9 1.5.9 4.7-.3 11.3-1.1 17.9-5-.3 1.8-.8 3.2-1.5 4.5-.3.5-.2 1.1.1 1.6.3.4.7.6 1.2.6h.3c7.2-1.3 15.5-3.2 22.6-7.5l1.2-.8c.7-.5.9-1.4.4-2.1-.5-.7-1.4-.9-2.1-.4l-1.3.8c-5.8 3.5-12.4 5.3-18.6 6.5.6-1.8.9-3.8 1.1-6.2 0-.6-.3-1.1-.8-1.4-.5-.3-1.1-.2-1.6.1-5.1 3.8-10.6 5.2-15 5.8 2.5-2.8 4.5-5.6 5.9-8.4.3-.6.2-1.2-.2-1.7s-1.1-.6-1.6-.4c-6.7 2.5-13.6 3.9-20.6 4.2 10.1-5.4 19.5-12.3 27.5-20.4 1.9-2 4.3-3.1 6.5-3.1 3.1 0 13.1 4.8 21.1 8.7 2.2 1.1 4.3 2.1 6.3 3 .8.4 1.6.8 2.4 1.1.8.3 1.6 0 2-.7.3-.8 0-1.6-.7-2l-.7-.3c-2.5-1.1-5.1-2.4-7.9-3.8-11.2-5.4-18.9-9-22.4-9-3 0-6.2 1.4-8.7 4-9.2 9.3-20.1 17-32.5 22.8-.6.3-1 1-.8 1.6 0 .7.6 1.2 1.3 1.2zM127.5 44.2c.1.2.3.4.5.6l.1.1c.4.2.9.3 1.4.1l2.3-1.1 3.3-1.6c8-3.9 18-8.7 21.1-8.7 2.2 0 4.6 1.1 6.5 3.1 8 8.1 17.3 15 27.8 20.6-7-.3-13.9-1.7-20.6-4.2-.6-.2-1.2-.1-1.6.4-.4.5-.5 1.1-.2 1.7 1.4 2.8 3.3 5.6 5.9 8.4-4.5-.6-9.9-2.1-15-5.8-.5-.3-1.1-.4-1.6-.1-.5.3-.8.8-.8 1.4.2 2.4.5 4.4 1.1 6.2-6.6-1.3-13.9-3.3-19.9-7.3l-.3-.2c-.6-.2-1.4 0-1.8.6-.4.7-.3 1.6.4 2 7.3 4.9 16.1 6.9 23.8 8.2h.3c.5 0 .9-.2 1.2-.6.3-.5.4-1.1.1-1.6-.7-1.3-1.2-2.7-1.5-4.5 6.6 3.9 13.2 4.7 17.9 5 .6 0 1.2-.3 1.5-.9.2-.6.1-1.2-.3-1.7-2.5-2.4-4.5-4.7-6.1-7.1 7.9 2.4 16 3.5 24.1 3 .7 0 1.3-.5 1.4-1.2.1-.7-.2-1.3-.8-1.6-12.4-5.8-23.4-13.5-32.5-22.8-2.5-2.5-5.6-4-8.7-4-3.5 0-11.2 3.5-22.4 9-1.7.8-3.3 1.6-4.9 2.3-.3.1-.5.2-.8.4-.9.2-1.3 1.1-.9 1.9zM77.6 31.9c.3.4.7.6 1.2.6.3 0 .6-.1.9-.3.7-.5.8-1.5.3-2.1-1.8-2.3-3.6-4.2-5.4-5.9-.6-.6-1.6-.5-2.1.1-.6.6-.5 1.6.1 2.1 1.6 1.5 3.3 3.3 5 5.5zM90.6 26.5c.1.4.2.8.2 1.2.1.7.8 1.2 1.5 1.2h.3c.8-.2 1.3-1 1.2-1.8-.1-.4-.2-.8-.2-1.2-.3-1.8-.7-3.8-1.7-5.4-.4-.7-1.4-.9-2.1-.5-.7.4-.9 1.4-.5 2.1.7 1.2 1 2.7 1.3 4.4zM106.8 28.7c.8 0 1.5-.7 1.5-1.5 0-1 .2-2.1.4-3.2.2-.8.3-1.6.4-2.5.1-.8-.5-1.6-1.3-1.7-.8-.1-1.6.5-1.7 1.3-.1.7-.2 1.5-.4 2.2-.2 1.2-.5 2.5-.5 3.8.1 1 .7 1.6 1.6 1.6zM120.4 31.3c.2.1.4.1.5.1.6 0 1.2-.4 1.4-1 .2-.7.6-1.3.9-1.9.5-.9 1-1.9 1.3-3.1.2-.8-.3-1.6-1.1-1.8-.8-.2-1.6.3-1.8 1.1-.2.8-.6 1.6-1 2.4-.4.7-.8 1.4-1.1 2.3-.2.7.2 1.6.9 1.9z"/></symbol><symbol viewBox="0 0 250 156.493" id="icon__logo"><title>logo</title><path fill-rule="evenodd" clip-rule="evenodd" fill="url(#svgstore58977f6f1c0b198007a2fce35ab67093a)" d="M52.781 138.867s-23.137-49.161-30.066-64.425c-6.396-14.089-12.971-28.098-19.15-42.28-5.982-13.731-1.812-23.5 9.389-29.015 11.127-5.478 23.005-.147 28.658 12.263 8.212 18.025 35.936 65.438 35.936 65.438"/><path opacity=".05" fill-rule="evenodd" clip-rule="evenodd" fill="#0D3147" d="M45.202 122.736l25.714-53.351 7.303 11.888-25.438 57.594z"/><path fill-rule="evenodd" clip-rule="evenodd" fill="url(#svgstore58977f6f1c0b198007a2fce35ab67093b)" d="M178.829 84.054c-9.926 15.236-14.885 34.075-23.668 50.27-7.44-16.082-22.345-44.75-29.982-61.259-2.081 4.206-3.529 6.943-4.812 9.754-9.103 19.925-18.168 39.867-27.252 59.8-4.544 9.971-13.403 15.199-23.001 13.584-10.003-1.684-16.62-9.557-18.102-20.479-.6-4.416-.004-7.83 2.704-11.426 2.11-2.805 3.141-6.422 4.642-9.682 15.402-33.439 30.755-66.899 46.231-100.305 5.232-11.297 15.955-16.051 27.121-11.468 3.928 1.612 9.405 10.25 9.868 11.282 8.873 19.77 27.713 50.886 36.251 69.929z"/><path opacity=".05" fill-rule="evenodd" clip-rule="evenodd" fill="#0D3147" d="M149.537 121.766l23.294-49.942s4.895 11.107 5.615 11.129l-22.043 53.915-6.866-15.102z"/><path fill-rule="evenodd" clip-rule="evenodd" fill="url(#svgstore58977f6f1c0b198007a2fce35ab67093c)" d="M155.021 134.34c1.014-3.203 1.705-6.557 3.093-9.588 16.714-36.55 33.517-73.062 50.334-109.565 5.82-12.631 17.767-17.226 30.049-11.671 9.87 4.463 13.58 17.048 8.213 28.872-16.858 37.137-33.802 74.235-50.778 111.317-4.468 9.76-14.294 14.572-24.222 12.135-9.535-2.342-16.306-11.295-16.689-21.5z"/></symbol><symbol viewBox="0 0 100 100" id="icon__mail"><title>mail</title><path fill="#ffffff" d="M91.4 33.6h-82.8c-2.8 0-5.1 2.3-5.1 5.1v52.6c0 2.8 2.3 5.1 5.1 5.1h82.9c2.8 0 5.1-2.3 5.1-5.1v-52.6c-.1-2.8-2.4-5.1-5.2-5.1zm-41.1 43.5c-1 1-1.6 1-2.5 0l-37.8-39.6h79.8l-39.5 39.6zm-16.5-9l-26.4 22.6v-50.2l26.4 27.6zm2.7 2.8l8.6 8.9c1.2 1.2 2.6 1.9 4 1.9s2.8-.6 4-1.9l10.1-10.1c.1.2.2.4.4.5l25.2 22.2h-77.4l25.1-21.5zm55.6 19.2l-25.9-22.8c-.1-.1-.2-.1-.4-.2l26.8-26.8v50.6c-.1-.3-.3-.6-.5-.8z"/></symbol><symbol viewBox="0 0 100 100" id="icon__menu"><title>menu</title><rect x="13.7" y="64.1" width="71.6" height="4.8"/><rect x="13.7" y="47.7" width="71.6" height="4.8"/><rect x="13.7" y="31.3" width="71.6" height="4.8"/></symbol><symbol viewBox="0 0 100 100" id="icon__mouse"><title>mouse</title><path d="M50.5 5.2c-13.7 0-25 11.1-25 24.7v39c0 13.7 11.3 24.7 25 24.7s24.7-11.1 24.7-24.7v-38.9c.1-13.7-11-24.8-24.7-24.8zm19.2 63.7c0 10.6-8.6 19.2-19.2 19.2s-19.5-8.5-19.5-19.2v-38.9c0-10.6 8.8-19.2 19.5-19.2s19.2 8.5 19.2 19.2v38.9zm-19.3-47.1c-1.5 0-2.8 1.2-2.8 2.8v13.8c0 1.5 1.2 2.8 2.8 2.8s2.8-1.2 2.8-2.8v-13.8c0-1.5-1.3-2.8-2.8-2.8z" fill="#ffffff"/></symbol><symbol viewBox="0 0 100 100" id="icon__pen"><title>pen</title> <path fill="#FEC780" d="M44.986,14.618c-2.537-2.274-6.894-2.628-8.623,1.03c-0.546,1.154-0.934,2.269-1.155,3.352
	c-1.062-0.028-2.117,0.652-2.025,1.941c0.673,9.444,4.326,19.048,7.693,27.817c3.535,9.204,7.54,18.33,12.046,27.099
	c1.318,2.564,4.659,3.045,7.021,1.842c9.097-4.637,1.001-19.086-1.228-25.654c-1.729-5.095-3.476-10.184-5.228-15.272
	c-3.155-6.914-6.32-13.881-8.634-21.073C44.714,15.267,44.792,14.899,44.986,14.618z"/> <path fill="#D7D7DE" d="M66.954,97.106c5.044-3.141,7.43-12.167,7.656-17.61c0.025-0.617-0.145-1.149-0.438-1.591
	c1.576-2.204,1.657-4.966,0.608-7.934c-2.063-5.839-5.296-11.502-7.973-17.083c-6.128-12.778-11.755-26.32-19.463-38.241
	c-0.579-0.896-1.863-0.75-2.359-0.03c-0.194,0.282-0.272,0.649-0.133,1.082c2.314,7.191,5.479,14.159,8.634,21.073
	c1.042,2.283,2.082,4.559,3.091,6.836c1.473,3.324,14.906,29.178,12.194,31.167c-1.852,1.355-1.592,3.731-0.376,4.984
	c-0.27,1.804-0.556,3.601-1.09,5.354c-0.356,1.171-1.635,5.75-2.96,6.429c-1.542,0.79-4.502-1.468-5.948-2.103
	c-2.292-1.005-4.472-2.033-6.941-2.494c-1.13-0.211-2.023,1.085-1.155,1.982c2.751,2.846,6.408,4.789,9.767,6.835
	C62.24,97.084,64.457,98.66,66.954,97.106z"/> <path fill="#505F7D" d="M52.392,84.832l1.622,0.985c3.846,2.332,7.823,4.745,11.513,7.4c0.25,0.18,0.545,0.271,0.843,0.271
	c0.187,0,0.372-0.036,0.549-0.108c0.459-0.189,0.791-0.604,0.872-1.095c0.901-5.37,2.302-10.804,3.705-15.97
	c-0.101,0.044-0.208,0.081-0.32,0.102c-1.03,0.188-2.004,0.529-2.95,0.961c-1.062,3.971-2.091,8.072-2.876,12.192
	c-2.666-1.825-5.417-3.528-8.133-5.182c-0.628,0.322-1.273,0.616-1.943,0.872c-0.169,0.063-0.342,0.095-0.513,0.095
	c-0.581,0-1.128-0.354-1.347-0.93c-0.283-0.744,0.09-1.576,0.833-1.859c-9.186-19.868-16.225-41.119-23.034-61.676
	c-0.282-0.851-0.567-1.701-0.849-2.552c-0.218,0.105-0.429,0.221-0.653,0.318c-0.189,0.083-0.385,0.122-0.577,0.122
	c-0.556,0-1.085-0.323-1.322-0.864c-0.319-0.729,0.014-1.58,0.743-1.899c0.303-0.132,0.595-0.287,0.891-0.437
	c-0.701-2.11-1.399-4.222-2.106-6.331c3.645-1.976,6.888-3.554,10.038-4.885c0.755,1.703,1.519,3.41,2.278,5.115
	c0.426-0.176,0.857-0.341,1.304-0.481c0.761-0.236,1.569,0.187,1.805,0.946c0.238,0.76-0.186,1.568-0.946,1.806
	c-0.336,0.105-0.666,0.229-0.992,0.361c4.872,10.916,9.797,21.848,14.598,32.498c4.428,9.823,8.855,19.649,13.257,29.498
	c0.64-0.213,1.292-0.4,1.977-0.525c0.378-0.068,0.745,0.02,1.043,0.213c-4.531-10.142-9.09-20.257-13.648-30.37
	C51.929,29.838,45.595,15.79,39.442,1.913c-0.314-0.71-1.134-1.045-1.857-0.753c-3.968,1.603-8,3.555-12.694,6.142
	c-0.61,0.337-0.893,1.062-0.67,1.722c1.431,4.255,2.843,8.516,4.252,12.775c6.884,20.781,14.002,42.271,23.358,62.409
	C51.952,84.467,52.147,84.684,52.392,84.832z"/> <path fill="#505F7D" d="M40.827,12.111c0.326-0.132,0.655-0.256,0.992-0.361c0.76-0.238,1.184-1.045,0.946-1.806
	c-0.236-0.759-1.044-1.183-1.805-0.946c-0.447,0.14-0.878,0.305-1.304,0.481c-2.112,0.873-3.987,2.145-5.809,3.386
	c-1.408,0.961-2.863,1.937-4.401,2.715c-0.296,0.149-0.588,0.304-0.891,0.437c-0.729,0.319-1.062,1.169-0.743,1.899
	c0.237,0.542,0.766,0.864,1.322,0.864c0.192,0,0.388-0.04,0.577-0.122c0.224-0.098,0.435-0.213,0.653-0.318
	c1.849-0.89,3.509-2.001,5.109-3.092C37.263,14.026,38.971,12.865,40.827,12.111z"/> <path fill="#505F7D" d="M70.658,73.582c-0.685,0.125-1.337,0.312-1.977,0.525c-2.884,0.964-5.354,2.726-7.754,4.453
	c-2.211,1.594-4.3,3.098-6.678,4.005c-0.747,0.285-1.12,1.117-0.837,1.861c0.219,0.575,0.766,0.93,1.347,0.93
	c0.171,0,0.344-0.031,0.513-0.095c0.67-0.256,1.315-0.55,1.943-0.872c1.932-0.994,3.687-2.257,5.397-3.49
	c1.874-1.35,3.681-2.64,5.611-3.521c0.946-0.432,1.92-0.773,2.95-0.961c0.112-0.021,0.22-0.058,0.32-0.102
	c0.598-0.263,0.962-0.904,0.84-1.574c-0.074-0.407-0.313-0.739-0.634-0.947C71.403,73.602,71.036,73.514,70.658,73.582z"/> </symbol><symbol viewBox="0 0 100 100" id="icon__twitter"><title>twitter</title> <path fill="#ffffff" d="M95.297 21.646c-3.317 1.471-6.883 2.465-10.626 2.913 3.821-2.289 6.753-5.917 8.134-10.236 -3.574 2.119-7.533 3.66-11.748 4.489 -3.375-3.595-8.184-5.842-13.504-5.842 -10.218 0-18.502 8.283-18.502 18.501 0 1.45 0.164 2.86 0.479 4.216 -15.376-0.771-29.009-8.138-38.135-19.331 -1.592 2.732-2.504 5.91-2.504 9.302 0 6.419 3.266 12.081 8.23 15.399 -3.033-0.097-5.886-0.929-8.38-2.313 -0.001 0.077-0.001 0.153-0.001 0.232 0 8.965 6.377 16.442 14.841 18.141 -1.553 0.425-3.187 0.649-4.875 0.649 -1.192 0-2.351-0.115-3.48-0.332 2.354 7.35 9.187 12.7 17.282 12.85 -6.332 4.962-14.308 7.919-22.977 7.919 -1.493 0-2.966-0.088-4.414-0.258 8.188 5.25 17.913 8.312 28.361 8.312 34.032 0 52.64-28.192 52.64-52.639 0-0.804-0.018-1.603-0.054-2.395C89.681 28.615 92.817 25.355 95.297 21.646z"/> </symbol><symbol viewBox="0 0 100 100" id="icon__ux"><title>ux</title> <path fill="#FEC780" d="M65.539,21.609c-7.557-4.579-17.754-8.988-26.621-5.879c-1.728,0.605-3.364,1.554-4.885,2.729
	c-1.672,0.155-3.438,1.293-4.8,2.003c-3.67,1.913-6.691,4.396-9.075,7.81c-4.586,6.566-5.239,15.622-0.256,22.168
	c4.997,6.565,13.886,5.755,19.107,11.453c6.323,6.899,19.043,5.364,26.935,1.929c8.154-3.551,14.428-11.471,14.231-20.623
	C79.975,33.805,73.173,26.235,65.539,21.609z M67.748,48.116c-0.684,1.243-1.584,2.295-2.617,3.192
	c1.357-1.652,2.56-3.476,3.527-5.4C68.456,46.631,68.16,47.367,67.748,48.116z"/> <path fill="#505F7D" d="M61.773,94.02c3.152-1.161,2.955-6.364-0.842-6.215c-1.868,0.073-3.476,0.927-5.258,1.409
	c-1.49,0.403-3.004,0.487-4.402,1.188c-0.49,0.246-0.721,1.036-0.39,1.491c1.108,1.526,2.682,1.985,4.494,2.242
	C57.393,94.421,59.828,94.735,61.773,94.02z"/> <path fill="#505F7D" d="M86.719,37.773c0-22.01-20.682-31.345-31.105-33.477c-0.127-0.057-0.264-0.096-0.408-0.116
	c-0.247-0.034-0.494-0.066-0.74-0.097c-1.19-0.197-2.188-0.299-2.985-0.279c-0.99-0.062-1.968-0.094-2.93-0.094
	c-20.544,0-39.254,17.254-39.254,36.199c0,19.19,15.396,24.64,22.794,27.258c1.488,0.527,2.894,1.025,3.338,1.361
	c4.912,3.721,6.853,9.476,8.565,14.553c2.149,6.371,4.179,12.391,11.486,12.391c5.264,0,8.136-2.4,9.763-5.805
	c-0.244,0.409-0.678,0.697-1.191,0.73c-0.982,0.063-2.043,0.14-3.148,0.233c-1.27,1.188-3.004,1.841-5.423,1.841
	c-1.266,0-2.302-0.253-3.186-0.734c-0.958,0.175-1.917,0.364-2.866,0.587c-0.115,0.027-0.23,0.04-0.344,0.04
	c-0.681,0-1.297-0.467-1.459-1.158c-0.189-0.807,0.312-1.613,1.118-1.803c0.338-0.079,0.678-0.146,1.017-0.22
	c-0.61-0.98-1.149-2.169-1.682-3.555c-0.586,0.101-1.182,0.189-1.763,0.296c-0.092,0.018-0.183,0.025-0.273,0.025
	c-0.71,0-1.341-0.506-1.474-1.229c-0.15-0.814,0.389-1.597,1.204-1.746c0.422-0.078,0.855-0.142,1.28-0.216
	c-0.072-0.212-0.144-0.419-0.217-0.638c-0.399-1.182-0.812-2.398-1.267-3.622c-0.667,0.054-1.327,0.111-1.974,0.178
	c-0.052,0.005-0.104,0.008-0.155,0.008c-0.759,0-1.411-0.575-1.49-1.347c-0.085-0.824,0.515-1.561,1.339-1.646
	c0.363-0.037,0.729-0.071,1.098-0.104c-0.723-1.611-1.571-3.197-2.618-4.697c-0.968,0.05-1.936,0.1-2.906,0.156
	c-0.029,0.002-0.059,0.002-0.088,0.002c-0.789,0-1.45-0.615-1.496-1.412c-0.048-0.827,0.583-1.536,1.411-1.585
	c0.23-0.014,0.459-0.024,0.689-0.037c-0.653-0.657-1.359-1.288-2.139-1.879c-0.815-0.618-2.213-1.112-4.148-1.798
	c-7.268-2.572-20.795-7.359-20.795-24.43c0-16.293,16.06-31.737,33.732-33.102c0.2,0.171,0.447,0.29,0.724,0.338
	c0.966,0.16,2.097,0.014,3.107-0.149c0.551-0.089,1.074-0.174,1.557-0.189c1.055,0.069,2.124,0.177,3.199,0.32
	c9.293,1.678,29.104,10.11,29.104,30.646c0,10.928-3.84,14.47-9.155,19.374c-2.154,1.986-4.596,4.238-7.056,7.233
	c-0.635,0.773-1.105,1.707-1.479,2.743c0.354-0.006,0.719-0.014,1.066-0.019c0.842,0,1.511,0.655,1.525,1.475
	c0.014,0.828-0.646,1.511-1.475,1.525c-0.615,0.01-1.256,0.021-1.887,0.033c-0.356,2.052-0.516,4.33-0.672,6.678
	c-0.09,1.353-0.189,2.629-0.311,3.839c0.429-0.03,0.854-0.073,1.283-0.101c0.814-0.042,1.54,0.573,1.594,1.4
	c0.005,0.076-0.002,0.149-0.008,0.224c0.207-1.735,0.324-3.491,0.436-5.163c0.297-4.476,0.577-8.701,2.244-10.73
	c2.328-2.834,4.587-4.918,6.771-6.933C82.252,54.136,86.719,50.015,86.719,37.773z"/> <path fill="#505F7D" d="M65.754,83.548c-0.629,0.041-1.25,0.102-1.877,0.148c-0.238,1.409-0.551,2.672-0.973,3.774
	c0.319-0.022,0.646-0.047,0.953-0.066c0.823-0.052,1.54,0.573,1.594,1.4c0.016,0.249-0.035,0.484-0.13,0.698
	c0.983-2.129,1.497-4.635,1.81-7.19C67.013,82.978,66.457,83.503,65.754,83.548z"/> <path fill="#505F7D" d="M67.146,70.105c0.828-0.015,1.488-0.697,1.475-1.525c-0.015-0.819-0.684-1.475-1.5-1.475
	c-0.373,0.005-0.738,0.013-1.092,0.019c-7.99,0.14-17.264,0.361-26.651,0.893c-0.23,0.013-0.459,0.023-0.689,0.037
	c-0.827,0.049-1.458,0.758-1.411,1.585c0.046,0.797,0.708,1.412,1.496,1.412c0.029,0,0.059,0,0.088-0.002
	c0.97-0.057,1.938-0.106,2.906-0.156c8.257-0.427,16.357-0.626,23.491-0.754C65.891,70.127,66.531,70.115,67.146,70.105z"/> <path fill="#505F7D" d="M56.5,76.666c0-0.828-0.672-1.5-1.5-1.5c-4.025,0-7.43,0.137-10.613,0.424
	c-0.368,0.033-0.735,0.067-1.098,0.104c-0.824,0.085-1.424,0.821-1.339,1.646c0.08,0.771,0.731,1.347,1.49,1.347
	c0.051,0,0.104-0.003,0.155-0.008c0.647-0.066,1.306-0.124,1.974-0.178c2.834-0.226,5.881-0.335,9.431-0.335
	C55.828,78.166,56.5,77.495,56.5,76.666z"/> <path fill="#505F7D" d="M65.561,80.555c-0.43,0.027-0.854,0.07-1.283,0.101c-5.887,0.424-11.664,1.13-17.224,2.105
	c-0.425,0.074-0.858,0.138-1.28,0.216c-0.814,0.149-1.354,0.932-1.204,1.746c0.133,0.723,0.764,1.229,1.474,1.229
	c0.09,0,0.181-0.008,0.273-0.025c0.581-0.106,1.177-0.195,1.763-0.296c5.111-0.879,10.406-1.526,15.798-1.934
	c0.627-0.047,1.248-0.107,1.877-0.148c0.703-0.045,1.259-0.57,1.377-1.235c0.008-0.044,0.012-0.089,0.016-0.134
	c0.006-0.074,0.013-0.147,0.008-0.224C67.101,81.128,66.375,80.513,65.561,80.555z"/> <path fill="#505F7D" d="M63.857,87.404c-0.307,0.02-0.634,0.044-0.953,0.066c-3.822,0.266-8.523,0.719-13.144,1.714
	c-0.339,0.073-0.679,0.141-1.017,0.22c-0.807,0.189-1.307,0.996-1.118,1.803c0.162,0.691,0.778,1.158,1.459,1.158
	c0.113,0,0.229-0.013,0.344-0.04c0.949-0.223,1.908-0.412,2.866-0.587c2.971-0.543,5.937-0.881,8.608-1.106
	c1.105-0.094,2.166-0.17,3.148-0.233c0.514-0.033,0.947-0.321,1.191-0.73c0.031-0.053,0.055-0.109,0.079-0.165
	c0.095-0.214,0.146-0.449,0.13-0.698C65.397,87.978,64.681,87.353,63.857,87.404z"/> <path fill="#505F7D" d="M61.172,36.565C59.643,43.613,59.5,50.988,59.5,58c0,0.828,0.672,1.5,1.5,1.5s1.5-0.672,1.5-1.5
	c0-7.798,0.178-16.043,2.297-23.602c0.154-0.55-0.017-1.139-0.441-1.521s-1.029-0.489-1.56-0.276
	c-2.903,1.16-5.899,2.538-8.448,4.717c-1.811-2.146-3.978-3.233-6.461-3.233c-2.29,0-5.411,1.255-7.523,3.974
	c-2.814-2.089-5.318-3.718-7.791-5.072c-0.581-0.318-1.303-0.217-1.775,0.248c-0.472,0.467-0.582,1.188-0.27,1.771
	c3.766,7.076,6.299,14.935,8.749,22.535l0.296,0.919c0.205,0.636,0.794,1.04,1.427,1.04c0.153,0,0.308-0.022,0.461-0.072
	c0.789-0.255,1.222-1.101,0.967-1.888l-0.296-0.919c-1.97-6.111-3.993-12.39-6.679-18.365c1.381,0.926,2.824,1.968,4.374,3.154
	c0.348,0.267,0.798,0.368,1.225,0.275c0.429-0.091,0.796-0.366,1.006-0.752c1.52-2.803,4.383-3.849,5.83-3.849
	c1.929,0,3.564,1.079,4.997,3.297c0.249,0.386,0.659,0.636,1.116,0.68c0.455,0.045,0.908-0.123,1.225-0.454
	C56.915,38.849,59.002,37.59,61.172,36.565z"/> <path fill="#505F7D" d="M45.968,53.991c-0.812,0.163-1.339,0.953-1.176,1.766c0.066,0.328,0.099,0.671,0.099,1.021
	c0,3.389-1.868,3.781-3.272,3.781c-2.103,0-4.354-1.521-4.354-3.784c0-0.829-0.671-1.5-1.5-1.5s-1.5,0.671-1.5,1.5
	c0,4.19,3.817,6.784,7.354,6.784c3.869,0,6.272-2.599,6.272-6.781c0-0.546-0.053-1.088-0.158-1.61
	C47.571,54.355,46.783,53.83,45.968,53.991z"/> <path fill="#505F7D" d="M67.727,58.757c0.37-0.741,0.07-1.642-0.671-2.013c-0.742-0.369-1.642-0.07-2.013,0.671
	c-1.245,2.491-2.736,3.702-4.559,3.702c-1.857,0-2.861-1.584-2.861-3.074c0-0.683,0.192-1.35,0.557-1.932
	c0.438-0.701,0.225-1.627-0.477-2.067c-0.705-0.438-1.629-0.226-2.068,0.478c-0.661,1.059-1.012,2.275-1.012,3.521
	c0,3.405,2.575,6.074,5.861,6.074C63.512,64.117,65.948,62.314,67.727,58.757z"/> </symbol><symbol viewBox="0 0 100 100" id="icon__view"><title>view</title><path d="M50 24c13.3 0.1 25.2 4.5 36.2 11.5 3.8 2.4 7.3 5.2 10.8 8.1 3.1 2.6 3.1 6.2 0 8.8C85.5 62.6 72.4 69.7 57 71.8c-12.8 1.8-24.8-1.3-36.2-7 -6.5-3.2-12.5-7.1-17.6-12.3 -3.2-3.2-3.2-6.2 0.3-9.2 11.4-9.8 24.3-16.6 39.4-18.9 1.3-0.2 2.5-0.3 3.8-0.4C47.7 24 48.9 24 50 24zM42.3 35.8c-10.3 2-19 6.4-27.3 12.4 8 5.8 16.5 10 26.1 11.9C33.4 50.4 33.6 44.6 42.3 35.8zM59.9 59.9c9.2-2.2 17.3-6.3 24.9-11.8 -8-5.7-16.2-9.9-25.9-11.9C67 45.8 67.2 50.7 59.9 59.9z"/></symbol><symbol viewBox="0 0 100 100" id="icon__wireframe"><title>wireframe</title><path fill="#f06a6b" d="M87.2 14h-72.5c-2.1 0-3.8 1.7-3.8 3.8v66.2h80v-66.3c.1-2-1.6-3.7-3.7-3.7zm-53.1 1.9h46.2c1 0 1.9.8 1.9 1.9s-.8 1.9-1.9 1.9h-46.2c-1 0-1.9-.8-1.9-1.9s.9-1.9 1.9-1.9zm-10.4.8c.6 0 1.1.5 1.1 1.1s-.5 1.1-1.1 1.1-1.1-.5-1.1-1.1.5-1.1 1.1-1.1zm-3.2 0c.6 0 1.1.5 1.1 1.1s-.5 1.1-1.1 1.1-1.1-.5-1.1-1.1.5-1.1 1.1-1.1zm-3.2 0c.6 0 1.1.5 1.1 1.1s-.5 1.1-1.1 1.1-1.1-.5-1.1-1.1.5-1.1 1.1-1.1zm72.4 66h-77.5v-61.2h77.5v61.2zM63.7 27.7h18.5v13.8h-18.5zM41.5 27.7h18.3v13.8h-18.3zM19.8 27.7h17.9v13.8h-17.9zM41.5 60.2h40.8v1.2h-40.8zM41.5 64h40.8v1.2h-40.8zM41.5 67.7h40.8v1.2h-40.8zM41.5 71.5h40.8v1.2h-40.8zM41.5 75.2h40.8v1.2h-40.8zM41.5 49h40.8v1.3h-40.8zM41.5 52.7h40.8v1.2h-40.8zM41.5 56.5h40.8v1.2h-40.8zM41.5 45.2h40.8v1.2h-40.8zM19.8 45.2h17.9v13.8h-17.9zM19.8 62.7h17.9v13.8h-17.9z"/></symbol></svg>