<svg viewBox="0 0 100 100" xmlns="http://www.w3.org/2000/svg" class="hide"><symbol viewBox="0 0 100 100" id="icon__facebook"><title>facebook</title> <path d="M90.1 5.1H10c-2.7 0-5 2.2-5 5v80.1c0 2.7 2.2 5 5 5h43.1V60.3H41.4V46.7h11.7V36.7c0-11.6 7.1-18 17.5-18 5 0 9.2 0.4 10.5 0.5v12.2l-7.2 0c-5.6 0-6.7 2.7-6.7 6.6v8.7h13.5l-1.8 13.6H67.2v34.9h22.9c2.7 0 5-2.2 5-5V10.1C95.1 7.4 92.8 5.1 90.1 5.1z"/> </symbol><symbol viewBox="0 0 100 100" id="icon__home"><title>home</title><path d="M49.4 65.1c-0.1 1.2 0 2.1-0.2 3 -0.3 2.5-3.1 3.8-5.1 2.2 -2.9-2.3-5.7-4.7-8.4-7.2 -1.6-1.4-1.5-3.6 0.2-5 2.6-2.2 5.2-4.4 7.7-6.7 1.1-1 2.3-1.4 3.7-0.8 1.5 0.6 2 1.8 2 3.3 0 0.4 0 0.9 0.1 1.6 1 0 2.1 0 3.1 0 1.5 0 3.1 0 4.6 0 7 0 12.1 5.1 12.2 12.1 0 4.7 0 9.4 0 14 0 3.7 1.9 5.6 5.5 5.6 3.3 0 6.7 0 10 0 1.9 0 2.8-0.8 2.8-2.8 0-10.4 0-20.8 0-31.2 0-1.6-0.5-3-1.7-4.1C74.5 37.6 63 26.1 51.6 14.7c-2-2-4.4-1.8-6.6 0.4 -7.8 7.8-15.5 15.5-23.3 23.3 -0.5 0.5-1 1.1-1.6 1.5 -1.9 1.6-4.5 1.5-6.3-0.1 -1.9-1.7-2.1-4.4-0.6-6.4 0.4-0.5 0.8-0.9 1.2-1.3 8-8 15.9-16 23.9-23.9C44.4 2 52.4 2 58.6 8.1c11.2 11.2 22.4 22.3 33.6 33.5 3.3 3.3 5 7.2 4.9 11.9 -0.1 10.2 0 20.5 0 30.7 0 6.8-4.4 11.9-11.3 12.4 -4.5 0.3-9 0.3-13.4-0.1 -7.2-0.7-12.5-6.8-12.6-14.1 -0.1-4.7 0-9.4 0-14 0-2.6-0.7-3.4-3.3-3.4C54.2 65.1 51.9 65.1 49.4 65.1z"/><path d="M8.3 95c-2.6 0-4.8-2.1-4.8-4.8L3.5 49.9c0-2.9 1.3-6.5 3.2-8.7l8.8-10.3c1.7-2 4.7-2.3 6.7-0.5 2 1.7 2.3 4.7 0.5 6.7L14 47.4c-0.4 0.5-0.9 1.9-0.9 2.5l0.1 40.3C13.1 92.9 11 95 8.3 95 8.3 95 8.3 95 8.3 95z"/></symbol><symbol viewBox="0 0 400 400" id="icon__logo"><title>logo</title><path fill-rule="evenodd" clip-rule="evenodd" d="M47.2 225c1.1 14.4 4.3 26.7 15.6 27.3 13.4 0.8 26.3-19.6 30.4-31.9 7.9-23.9 7.1-54 13-72.2 11.6-2 15.3 4.9 15 16.3 5.8-14.4 26.8-16 31.5 5.3 7.7 34.4-13.7 96.2-47.7 82.2 -1.2 3.3-2.1 7-2.4 11.2 47.5 3.3 129.6 30.9 168.3-14.5 18.5 11.9 1.2 36.2-30 38.9 -62.1 5.5-95.9-18.4-139.8-16.3 -9.3 27.2-24.6 75.7-60 77.9 -12.8 0.8-23.1-8.2-24.3-20.8 -3.4-35.6 34.2-56.6 67.1-61.8 2.4-8.9 3.5-18.9 5.3-28.8 0.1-0.8 1-1.1 0.9-2.1 -11.2 25-55.2 37.5-60.5-1.6 -4.3-31.9 14.7-80.1 48.9-79.3 29 0.7 5.7 35-2.5 44.4C66.3 210.3 55.7 217.6 47.2 225M47.2 219.3c14-13 46.5-62.4 26.5-59.2C56.1 162.8 47 203.8 47.2 219.3M130 160c-15.4 22.4-19.3 60.3-23.1 89.9 14.4 2.3 19.4-16.9 23.4-31.5 5.3-19.2 11-45.9 1.7-58.5L130 160zM79 272.6c-25.9 4.1-54.2 25.8-46.2 56 1.5 5.7 7.6 11.4 12.7 11.4 12.8 0 19.4-19.4 23.5-29.5 5.4-13.2 13-28.4 13.6-38.2C82.4 272.2 79.4 272.5 79 272.6M285.7 213.2c-7.9 14.3-24.9 39.5-47.1 32.2 -13.4-4.4-15.9-25.5-13.5-43.5 -1.5 0.9-4.8 2.6-7.9 2.5 -7.3 15.2-15.4 45.9-39.8 44.5 -4.1-0.2-10.8-3.8-13.5-7.3 -18.5-24.1 3.1-87.3 27.8-96.2 5.2-1.9 13.1-2.3 17.1-1 -12.3 4.2-16.5 6.4-21.2 16.3 -6.9 14.4-16.4 48-15.3 67.3 0.3 4.5 1.8 13.5 8.9 15.6 14.1 0.9 15.7-25.6 18.9-40.3 -15.3-12.7-17.2-43.8 0.1-51.3 25-10.9 23.6 30.7 17.8 47.3 2.9 0 5-1.5 7.9-3.5 4-18.4 14.4-47.3 34.3-52.3 39.9-10 19.8 48.5 2.2 38.1 -3.9-2.3-5.7-8.2-2.8-13.9 6.2-6.1 17.2 0.8 19.6-9.2 1.4-5.7-1.9-11-6.7-11.7 -18.7-2.8-31.8 52.8-30.2 71.2 0.9 10.2 4.4 19.8 12.2 20.5 15.1 1.2 29.9-32.3 33.4-43.8L285.7 213.2zM204.3 155.8c-16.2 2.9-14.3 33.4-2.8 40.4C205.8 182.3 211.8 155.3 204.3 155.8M282.4 237.9c2.3-40 11.4-70.5 17.2-105.7 -48.9-2.1-139.5-28.4-172.3 14.8 -21.1-13.3 15.1-35.2 35.1-38.2 49.5-7.4 94 18.5 137.8 15.4 7-18.1 15.4-44.5 30.9-59.1 10.9-10.3 44.9-25.9 51.3-0.9 8.4 33.1-35.5 60.6-62.8 65 -4.8 9.1-4.9 22.3-8.2 32.7 4-13.3 30.5-33.1 35.8-8.1 5.3 25.3-15.4 63.6-7.7 77.9 8.9 8.6 14.9-21.6 21.8-41.5 0.5 12.4-4.3 25.3-9 35.7 -3.9 8.6-8 17.3-19.2 17.2 -7.2-0.1-11.1-8.8-11.9-15.4 -3.4-25.8 23.1-87.5 7.6-78.9 -30.9 21-28.7 94.2-32.9 95.5 -4.2 1.3-11.5-1.8-9.6-1C288.2 244.1 282.2 241.9 282.4 237.9zM346 63.2c-12.9 13.5-19.6 42.5-25.8 59.8 31-1.8 61.4-39.2 38.7-63.6C354.8 57.7 351.1 57.9 346 63.2"/></symbol><symbol viewBox="0 0 100 100" id="icon__menu"><title>menu</title><rect x="13.7" y="64.1" width="71.6" height="4.8"/><rect x="13.7" y="47.7" width="71.6" height="4.8"/><rect x="13.7" y="31.3" width="71.6" height="4.8"/></symbol><symbol viewBox="0 0 100 100" id="icon__twitter"><title>twitter</title> <path d="M95.297 21.646c-3.317 1.471-6.883 2.465-10.626 2.913 3.821-2.289 6.753-5.917 8.134-10.236 -3.574 2.119-7.533 3.66-11.748 4.489 -3.375-3.595-8.184-5.842-13.504-5.842 -10.218 0-18.502 8.283-18.502 18.501 0 1.45 0.164 2.86 0.479 4.216 -15.376-0.771-29.009-8.138-38.135-19.331 -1.592 2.732-2.504 5.91-2.504 9.302 0 6.419 3.266 12.081 8.23 15.399 -3.033-0.097-5.886-0.929-8.38-2.313 -0.001 0.077-0.001 0.153-0.001 0.232 0 8.965 6.377 16.442 14.841 18.141 -1.553 0.425-3.187 0.649-4.875 0.649 -1.192 0-2.351-0.115-3.48-0.332 2.354 7.35 9.187 12.7 17.282 12.85 -6.332 4.962-14.308 7.919-22.977 7.919 -1.493 0-2.966-0.088-4.414-0.258 8.188 5.25 17.913 8.312 28.361 8.312 34.032 0 52.64-28.192 52.64-52.639 0-0.804-0.018-1.603-0.054-2.395C89.681 28.615 92.817 25.355 95.297 21.646z"/> </symbol><symbol viewBox="0 0 100 100" id="icon__view"><title>view</title><path d="M50 24c13.3 0.1 25.2 4.5 36.2 11.5 3.8 2.4 7.3 5.2 10.8 8.1 3.1 2.6 3.1 6.2 0 8.8C85.5 62.6 72.4 69.7 57 71.8c-12.8 1.8-24.8-1.3-36.2-7 -6.5-3.2-12.5-7.1-17.6-12.3 -3.2-3.2-3.2-6.2 0.3-9.2 11.4-9.8 24.3-16.6 39.4-18.9 1.3-0.2 2.5-0.3 3.8-0.4C47.7 24 48.9 24 50 24zM42.3 35.8c-10.3 2-19 6.4-27.3 12.4 8 5.8 16.5 10 26.1 11.9C33.4 50.4 33.6 44.6 42.3 35.8zM59.9 59.9c9.2-2.2 17.3-6.3 24.9-11.8 -8-5.7-16.2-9.9-25.9-11.9C67 45.8 67.2 50.7 59.9 59.9z"/></symbol></svg>