<?xml version="1.0" encoding="utf-8"?>
<!-- Generator: Adobe Illustrator 18.1.1, SVG Export Plug-In . SVG Version: 6.00 Build 0)  -->
<svg version="1.1" id="Layer_1" xmlns="http://www.w3.org/2000/svg" xmlns:xlink="http://www.w3.org/1999/xlink" x="0px" y="0px"
	 viewBox="0 0 600 600" enable-background="new 0 0 600 600" xml:space="preserve">
<g>
	<path fill="#FCCC81" d="M267.8,249.4c-0.9-4.1-7.7-4.3-8.5,0c-0.5,2.8-0.7,4.6-3.7,5.9c-3,1.2-6.2,0.4-9.2,1.6
		c-0.9,0.4-1,1.9-0.3,2.5C253.3,265.5,270.2,260.5,267.8,249.4z"/>
	<path fill="#FCCC81" d="M282.1,228.6c1.2-5.9,0.5-12-3.4-16.4c-1-1.1-3-0.2-3,1.2c0.1,8.2,1,15.1-4.9,21.7c-2.8,3.2,1,9.3,4.9,6.4
		c1.4-1.1,2.7-2.2,3.8-3.4c1.2-0.2,2.4-0.9,3.1-2.1c0.1-2.1,0.2-4.1,0.3-6.2C282.7,229.3,282.5,228.9,282.1,228.6z"/>
	<path fill="#FCCC81" d="M362.3,208c-0.2-0.1-0.5-0.2-0.7-0.2c-1.4-0.3-2.9,0-4.3,1.3c-4.8,4.6-5.6,10.4-5.5,16.5
		c-0.6,4.2-0.3,8.6,0.8,13c1.4,5.2,8.8,3.8,9.1-1.2c0.4-6.9-2.6-15.6,2.5-21.4C367.2,213.1,365.3,209.1,362.3,208z"/>
	<path fill="#FCCC81" d="M378.6,256.8c-1.2-0.7-1.8-1.7-1.9-2.7c-0.6-0.2-1.2-0.4-1.8-0.7c-1.8-0.8-3.4-1.8-5.3-2.3
		c-2-0.5-4,1.8-2.8,3.7c2.2,3.4,6.6,6.2,10.2,7.9c3.9,1.8,6.8-2,5.8-4.9C381.4,257.9,380,257.6,378.6,256.8z"/>
	<path fill="#FCCC81" d="M191,533.5c-0.3,0.2-0.6,0.6-0.7,1c-2.6,6.6,2.9,15.9,6.7,21c2.9,3.9,10.1,1.8,8.5-3.6
		c-1-3.2-2.3-6.2-3.3-9.4c-0.3-1.1-0.5-3.7-1.1-4.5c0-0.1,0-0.3,0-0.4c1.2-1.2,1.5-2.9,1.2-4.5c-2.6-1.2-5.1-2.3-7.7-3.5
		C192.7,530.6,191.6,531.9,191,533.5z"/>
	<path fill="#FCCC81" d="M404,554.3c-4,4.3,1.1,11.4,6.4,8.3c17.5-10.3,20.9-42.1,2-52.8c-1.9-1.1-3.6,1-2.8,2.8
		c3.5,7.7,6.7,14.9,5.3,23.6C413.7,543.8,409.1,548.8,404,554.3z"/>
	<path fill="#E0DFE6" d="M242.7,141.9c-1.5,1.5-1.5,3.5-0.6,5.1c-1.2,0.1-2.4,0.7-3,1.9c-0.2,0.4-0.4,0.9-0.6,1.3
		c-0.3,0-0.5,0-0.8,0c-4.6,0.4-5.8,5-4,8.3c-0.2,0.2-0.3,0.4-0.4,0.6c-0.2,0.6-0.4,1.1-0.7,1.6c-0.3,0.5,0.3,1.3,0.9,0.9
		c0,0,0.1,0,0.1,0c1.2,2.2,5.1,2.2,7.1,0.2c0.7,0.8,1.5,1.5,2.5,2.2c4.3,2.9,8.3-4,4-6.9c-0.4-0.3-0.8-0.7-1-1.2
		c0.5-1.9,0.4-4,0.2-6c0-0.2-0.1-0.4-0.1-0.5c0.6-0.1,1.2-0.2,1.8-0.6c17.7-9.6,32.1-30.5,32.6-51.3c0.7-0.3,1.3-0.5,2-0.6
		c1.2,0.6,2.5,1.1,3.8,1.6c9.5,3.4,19.8,5.3,29.6,7.7c19.8,4.8,39,6.8,59.1,2c4-0.9,4.3-7.7,0-8.4c-1.2-0.2-2.5-0.4-3.7-0.5
		c6-0.9,11.9-2.5,17.5-4.8c3.6-1.4,4.8-7.7,0-8.6c-9.2-1.8-18.7,2-27.9,3.1c-9.5,1.1-19.1,1.4-28.6,0.7c-9.9-0.7-19.7-2.4-29.4-4.7
		c-6.3-1.5-12.4-3.9-18.6-5.9c9.4-1.6,18.7-1.7,28.4,0.7c1.4,0.3,1.9-1.7,0.6-2.1c-13.4-4.1-28.1-5.7-41.6-1.7
		c-0.1-0.2-0.2-0.4-0.4-0.6c8.2-5.4,16.9-9.2,26.9-10.4c0.9-0.1,0.9-1.4,0-1.4c-9.8,0.2-19.5,2.1-28.2,6.5c-0.1-0.2-0.2-0.4-0.3-0.6
		c7.4-9.8,21.1-13.7,32.8-16.8c0.9-0.2,0.5-1.6-0.4-1.5c-12.7,2.4-26.4,5.4-35.7,14.2c-0.5-0.8-1.5-1.3-2.6-1
		c-0.5,0.1-0.9,0.3-1.4,0.5c1.1-1,2.3-2,3.6-2.9c1.1-0.8,0.2-2.5-1.1-1.9c-4.9,2.5-8.7,5.9-12.4,9.9c-1.6,1.7,0.4,4.2,2.5,3.2
		c0.3-0.1,0.5-0.3,0.8-0.4c-0.4,0.5-0.9,1.1-1.3,1.6c-0.1,0-0.2,0.1-0.3,0.2c-12.5,13.5-17.3,32.5-15.4,50.6c-3-7.2-5-14.9-5.8-22.6
		c-0.1-1.1-1.7-1.1-1.7,0c-0.9,13.5,1.5,25.4,6.9,37.8C239.3,142.2,241.1,142.5,242.7,141.9z M325.9,97.2c9.5,1.2,19.1,1.5,28.6,1
		c2.6-0.2,5.2-0.4,7.9-0.7c0.6,1.4,1.9,2.4,3.6,2.3c1-0.1,2-0.2,2.9-0.3c-0.5,0.3-0.8,0.7-1.1,1.2c-15,2.6-29.8,1.4-44.8-2.1
		c-7.7-1.8-15.4-3.8-23.1-5.6c-0.6-0.1-1.2-0.3-1.9-0.4c0-0.5-0.2-1.1-0.5-1.5C307,94.3,317.1,96.1,325.9,97.2z M294.9,90.3
		c-3.3,0.1-6.4-0.3-9.5-0.9c-0.7-0.4-1.4-0.8-2-1.2c-0.5-1.9-1.7-3.7-3.4-5.1C284.5,85.9,289.6,88.3,294.9,90.3z M262.8,116.6
		c2.4-9.7,5.6-19,9.7-28c0.6-1.4,0.4-2.9-0.4-4c0,0,0-0.1,0-0.1c0.5-1.4-1.4-2.4-2.4-1.6c-0.1,0-0.2,0-0.3,0
		c0.1-0.2,0.3-0.5,0.4-0.7c0.4,0.1,0.8,0,1.3-0.1c1.9-0.5,3.8-1,5.6-1.5c0.8,0.6,1.6,1.2,2.5,1.8c-2.8-1.5-6.5,0.5-5.6,4.1
		c0.3,1.1,0.6,2,1.1,3c-0.2,1.4-0.4,2.7-0.7,4.1c-0.5,0.4-0.6,1.1-0.3,1.6c-3.9,18.7-12.3,34.5-29.3,45.4c0.5-0.6,0.8-1.3,0.9-2.1
		c0-0.6,0.1-1.2,0.2-1.8c1.4,0.1,3-0.5,3.9-1.6c0.5-0.6,0.9-1.3,1.3-1.9c1.8,0.4,4-1.5,2.9-3.7c-0.1-0.2-0.1-0.3-0.2-0.5
		c1.9-3.1,3.7-6.4,5.3-9.7C260.4,119.6,262.3,118.9,262.8,116.6z M256.8,90.4c0.2-0.1,0.5-0.2,0.7-0.3c-1.1,2.5-2.1,5.1-2.8,7.8
		c-0.5,1.8,0.5,3.4,1.9,4.1c-1,2.9-2,5.8-3.1,8.6c0,0-0.1,0.1-0.1,0.1c-0.4,0.4-0.5,0.9-0.5,1.4c-0.4,1.1-0.9,2.1-1.4,3.2
		c-0.1,0.1-0.2,0.3-0.3,0.4c-0.1-0.4-0.2-0.7-0.4-0.9C251.1,106.3,253.9,97.4,256.8,90.4z M252.9,80.3c0.6,0.9,1.7,1.5,2.9,1
		c-0.9,1.4-1.8,2.7-2.7,4.1c-1,1.5-0.3,3.4,1,4.4c-3.3,6.9-6.4,15.4-7.4,23.8c-0.9,0.2-1.7,0.7-2.2,1.5c-0.6,0.9-1.2,1.8-1.7,2.7
		C242.4,104.6,246.2,92,252.9,80.3z"/>
	<path fill="#E0DFE6" d="M382.1,152c0.9-1.4,1.3-3,1.3-4.7c0.6-2,0.6-4.2,0.3-6.3c-0.4-2.7-4.1-3.1-5.8-1.5
		c-0.2,0.2-0.4,0.4-0.6,0.6c-0.6-2.5-1.3-4.9-2.1-7.3c-0.3-0.8-1.6-0.7-1.6,0.2c0.3,4.7,0.8,9.4,1.3,14c0,0.3,0.1,0.7,0.1,1
		c0.5,5.1,1.1,10.1,1.3,15.2c0.2,3.9,6,3.2,5.3-0.7c-0.6-3.1-1.1-6.3-1.7-9.5C380.8,153.1,381.6,152.8,382.1,152z"/>
	<path fill="#E0DFE6" d="M306,194.2c4.8,5.6,14.4,2.7,17.8-2.8c2.6-4.1-3.7-7.5-6.4-3.8c-1.1,1.5-3,2.5-4.8,2.7
		c-1.8,0.2-3.7-1.1-5.4-0.7c0,0,0,0,0.1,0c-0.2,0-0.5,0.1-0.7,0.2C304.9,190.8,305,193,306,194.2z"/>
	<path fill="#E0DFE6" d="M288.3,152.1c-1.5,2.3-3,5-5.6,6.1c-2.9,1.2-4.5-0.6-7.1-1.1c-0.6-0.1-1.5,0.2-1.6,0.9
		c-0.6,4.3,5.1,6.3,8.6,6.2c5.1-0.2,9.4-4.2,11.7-8.6C296.3,151.7,290.7,148.3,288.3,152.1z"/>
	<path fill="#E0DFE6" d="M343.6,149.7c-0.7,1.7-2,3.1-3.6,4.1c-1.7,1.1-3.6,1.2-5.5,1.9c-1.6,0.5-2,2.6-0.5,3.5
		c5.6,3.4,13.5-1.7,15.9-6.9C352.1,147.8,345.5,145,343.6,149.7z"/>
	<path fill="#E0DFE6" d="M346.8,130.5c-4.3,0.6-8.6,1.1-12.9,1.7c-2.7,0.4-2.9,4.3,0,4.4c4.6,0.2,9.2,0.3,13.8,0.5
		C352.3,137.3,351.8,129.9,346.8,130.5z"/>
	<path fill="#E0DFE6" d="M287.3,130.1c-7.1,1.3-13.9,4.7-19.9,8.7c-2.3,1.6-0.3,5.2,2.2,3.8c6.2-3.4,12.5-5.2,19.3-6.7
		C292.7,135,291.1,129.4,287.3,130.1z"/>
	<path fill="#E0DFE6" d="M240.6,235.2c-5.4,5.9-6.1,17.5,4.5,17.5c1.2,0,2.4-0.2,3.5-0.6c1,0.9,2.4,1.2,3.8,0.3
		c6.7-4.6,11.6-11.3,14.6-18.7c1.2-1.7,2.2-3.5,3.1-5.3c0.8-1.7,0.6-3.2-0.3-4.2c0.5-2.5,0.8-5.1,0.9-7.7c0.1-1.8-2.8-2.2-3.2-0.4
		c-0.5,2.4-1.1,4.6-1.9,6.8c-0.9,0.2-1.7,0.7-2.4,1.6c-4,5.3-7.4,10.9-11.9,15.9c-1.7,1.9-4.8,6.1-7.6,5.4c-2-0.5-2.8-3.3-2.9-5
		c-0.2-1.6,0.3-3.6,0.4-5.3C241.2,235.2,240.8,235,240.6,235.2z"/>
	<path fill="#E0DFE6" d="M390.2,237.7c-0.4-3.8-0.8-7.6-1.3-11.5c-0.3-2.3-3.5-2.4-3.6,0c-0.2,3.9-0.3,7.9-0.5,11.8
		c0,0.5-0.1,2.9-0.3,5.4c-1.6,0.7-4.5-0.3-5.8-1c-2.4-1.3-4.2-3.3-5.7-5.5c-2.9-4.4-3.7-9.8-6.5-14.3c-0.3-0.6-1.3-0.5-1.4,0.2
		c-2.1,9.1,1.7,21,9.7,26.3c1.1,0.7,2.3,1.2,3.5,1.7c-1,0.8-1.7,2.1-1.6,3.3c0.1,1,0.6,2,1.9,2.7c1.4,0.8,2.8,1.1,4.2,1
		c3.4-0.2,6.5-2.8,7.6-6.5c0.2-0.7,0.3-1.4,0.4-2.1c2.2-1.8,3.4-4.6,2.8-8.5C393.3,238.5,391.8,237.6,390.2,237.7z"/>
	<path fill="#E0DFE6" d="M252.3,204.1c-1,1-1.7,2-2.3,3.1c-0.3,0.2-0.5,0.5-0.6,0.9c-0.2,0.9-0.5,1.9-0.8,2.8
		c-0.1,0.2-0.1,0.3-0.1,0.5c-0.8,3.6,4.9,4.3,5.1,0.7c0.2-0.1,0.4-0.3,0.5-0.4c0.4-0.4,0.6-1.1,0.6-1.7c1,0,1.9-0.6,2.1-1.8
		c0.1-0.4,0.1-0.7,0.2-1.1c0.8,0.1,1.7-0.3,2.1-0.9c0.7-1,0.6-2.2-0.2-3.1c-0.3-0.4-0.7-0.6-1.1-0.9c0.1-0.7,0.2-1.5,0.4-2.2
		c0.4-2.3-2.8-3.2-3.5-1c0,0.1-0.1,0.2-0.1,0.2c-0.2-0.1-0.5,0-0.8,0.1c0,0-0.1,0-0.1,0.1c-0.4,0.2-0.6,0.7-0.7,1.1
		c0,0.7,0.1,1.6,0.4,2.3c-0.1,0.3-0.2,0.6-0.3,0.9C252.7,203.7,252.4,203.9,252.3,204.1z"/>
	<path fill="#E0DFE6" d="M375.4,199.4c-0.6-0.3-1.2-0.3-1.7-0.1c-0.3-0.1-0.7-0.2-1.1-0.1c-0.9,0.1-1.9,0.8-2,1.8
		c-0.2,1.2-0.1,2.4,0.6,3.4c0.1,0.1,0.2,0.2,0.3,0.3c0.6,1.4,2,2.3,3.5,1.6c1.5-0.6,2-2.3,1.3-3.8c-0.1-0.2-0.2-0.3-0.3-0.5
		c0,0,0-0.1,0.1-0.1C376.6,201,376.3,199.9,375.4,199.4z"/>
	<path fill="#E0DFE6" d="M417.3,329.9c-0.2-8.6,0.1-17.5-1.3-26c-2.3-13.7-13.6-17.5-26.2-14.7c-0.8,0.2-0.6,1.4,0.2,1.4
		c6.4,0.4,14.5-0.5,18.5,5.8c3.4,5.2,2.2,12.8,2.1,18.6c-0.3,12.8-0.5,25.6-1,38.4c-0.4,12.8-1,25.6-1.7,38.3
		c-0.4,6.6-0.9,13.2-1.3,19.8c-0.1,0.9-0.3,7.8-1.2,12.8c-4,0.9-9.8,1.1-10.3,1.1c-5,0.3-10,0.7-15,1c-10,0.6-20,1.2-30,1.6
		c-20.4,0.8-40.7,0.7-61.1,0.2c-19.8-0.5-39.6-1-59.4,0.7c-4.5,0.4-8.9,0.9-13.3,1.5c-4.8,0.7-10.9,2.7-15.6,1.6
		c-7.6-1.9-10.1-11.6-11.5-18.3c-0.2-1-1.7-0.7-1.8,0.2c-0.2,7.2-0.2,16,5,21.7c6.6,7.3,17.8,3.5,26.1,2.6
		c25.9-2.9,51.9-1.7,77.9-0.9c25.9,0.8,51.6,0.2,77.4-1.2c5.3-0.3,10.6-0.6,15.8-1c-29.7,4.5-59.3,5.5-89.4,6.3
		c-31.9,0.8-63.6,2.3-95.5,4c-3.2,0.2-4,4.7-0.8,5.6c6.6,1.9,15,0.9,21.8,0.8c8.4,0,16.8-0.2,25.2-0.4c16.8-0.4,33.6-0.7,50.4-1.2
		c31.7-0.8,65.4,0.5,96.3-7.9c2.7-0.7,3.5-3,2.9-5c3.3,1.1,7,0.1,9.6-2.7c0.7-0.7,1.2-1.5,1.6-2.4c6.2-3.2,8.6-10.4,3.9-16.4
		c-0.4-0.5-0.8-0.8-1.3-1c1.5-18.8,2.4-37.7,2.7-56.5C417.4,348.9,417.5,339.4,417.3,329.9z"/>
	<path fill="#E0DFE6" d="M449.9,516.4c2.8-4.9,5.6-9.8,8.5-14.7c0.7-1.3,0.7-2.5,0.3-3.5c2.9-3.7,5.9-7.4,8.8-11
		c9.9-11.9,20.7-23.6,28.8-36.8c7-11.4,11.4-24.5,9-37.9c-1.2-6.9-4.2-13.4-8.5-19c-3.5-4.6-15.4-13.8-8-19.9c0.9-0.7,0.4-2-0.4-2.5
		c1.1-4.4,0.7-9-1.1-13.2c1.1-20.1-8.3-39.2-17.2-56.8c-9.4-18.6-19.5-38.6-33.5-54.3c-5.5-6.2-12.3-11.6-20.3-14.2
		c-4.9-1.6-8.9-0.6-11.4-5.7c-1.8-3.7-3.6-5.6-7.4-7.5c-3.3-1.6-3.3-3.1-2.7-6.8c0.3-2.3,0.9-4.5,0.9-6.9c-0.1-4.5-1.5-9.1-3.9-13
		c-1.2-1.9-2.8-3.3-4.3-5c-3-3.4-3.2-5.5-2-9.6c1.1-3.9,2.3-7,1.2-11c-0.3-1.1-2.1-0.9-2.1,0.3c0.1,7-7.7,12.1-5.7,19.4
		c0.8,2.9,3.2,4.9,5,7.2c3.5,4.5,4.7,10,3.4,15.6c-1.6,6.8-2.9,12.2,4.1,16.3c1.3,0.7,3,1.1,4.1,2.2c1.5,1.4,1.5,3.4,2.3,5.3
		c1.4,3.2,3.6,5.1,6.9,6.1c3.4,1,7,1.1,10.4,2.4c4,1.6,7.4,4.1,10.6,6.9c6.3,5.8,11.1,13.1,15.6,20.3c10.8,17.2,20.8,35.1,28.9,53.7
		c8,18.3,13,42-1,58.4c-0.3-0.1-0.7-0.1-1-0.1c0.9-1,1.7-2.1,2.5-3.3c3-4.7,4.3-9.9,4.5-15.2c0.7-3,0.8-6.1,0.4-9.2
		c-0.6-4.5-2.4-8.6-4.1-12.8c-2.4-6.1-4.2-12.4-6.7-18.4c-0.5-1.2-2.5-1.2-2.5,0.3c0.2,3.9,1.1,8,2.2,12c0,0.2,0,0.3,0,0.5
		c1.3,9.1,4.2,19.6,2.5,28.9c-1.1,2.5-2.9,5-5.5,7.2c-1.6,1.4-1.4,3.3-0.4,4.6c0,0.1-0.1,0.1-0.1,0.2c-6.1,6.4-14.9,8.7-22.8,12.4
		c-0.4-3.9-2.1-8.2-3.1-11.8c0.2-1.2,0.5-2.4,0.7-3.5c1.9-3.1,3.3-6.4,4.2-10c0.9-1.3,1.7-2.5,2.7-3.7c2-2.6,4.5-5.8,2.1-9.1
		c-1.1-1.5-2.6-2.1-4.3-1.9c-0.1-0.8-0.3-1.6-0.5-2.4c2.2-3.8,5.5-8,4.6-12.5c-1.3-6.3-6.2-6.1-10.8-4c-0.2-0.4-0.4-0.7-0.6-1
		c1.2-4.5,3.8-9,4.3-13.4c0.2-2.1-2.1-3.1-3.8-2.9c-4.4,0.6-7.6,3-8.8,7.3c-0.3,1.1,0.6,2,1.6,2c-0.9,3.6-1.3,7.3-1.5,11.1
		c0,0.3-0.1,0.7-0.1,1c-0.1,1.7-0.2,3.4-0.3,5.1c-0.5,7-1,14-1.6,20.9c-0.2,1-0.3,2-0.4,3.1c0,0.2,0,0.4,0,0.7
		c-1.2,13.6-3.3,27.3-4,40.9c-0.2,4.3,6.5,5.2,7.5,1c0,0,0,0,0-0.1c1,0.1,2.1-0.2,2.9-1.2c1.3-1.4,2.9-3,4.5-4.7
		c1,0.3,2.1,0.2,3.2-0.3c8.7-4,19-7.4,26.8-13.6c0,0.4,0,0.8,0,1.3c0.4,2.7,2.6,4.8,5.3,5c1.5,0.1,2.8-0.3,4-1.1
		c0.3,0.4,0.7,0.7,1.1,1c-1.3,0.7-1.7,2.6-0.1,3.6c0.7,0.4,1.4,0.9,2,1.4c0,0.4,0.1,0.8,0.5,1.1c9.6,7,9,21.3,4.6,31
		c-4.4,9.5-12,16.8-19.6,23.7c-2.9,2.7-5.8,5.3-8.7,8c-12.5,7-25,14-37.5,20.9c-3.3,1.5-6.6,3.3-9.7,5.3c1.2-2.8,1.1-6-0.9-8.5
		c-2-2.6-6.8-2.9-7.7,1c-0.4,1.9-0.9,3.8-1.6,5.7c-0.8,0.4-1.7,0.7-2.6,0.9c-0.2-0.7-0.5-1.4-0.6-2.1c-0.7-2.7-3.7-3.6-6-2.4
		c-5.7,2.8-10.6,7.1-13.9,12.6c-0.1,0.1-0.1,0.2-0.2,0.4c-0.3,0.2-0.7,0.4-0.9,0.6c-0.3-3.3-0.9-7.1-1-8.2c-0.2-2.9-3.2-3.9-5.3-2.2
		c-2.6,2.1-5.1,4.4-7.4,6.7c-0.9,0.2-1.8,0.7-2.5,1.7c-0.7,1.2-1.5,2.3-2.3,3.4c-1.3,1.5-2.6,3.1-3.9,4.8c-1.1-1.6-2.3-2.9-5.4-2.8
		c-3,0-4.8,1.5-6.5,3.3c-0.3-0.7-0.6-1.4-1-2.1c-1.2-2.4-4.8-2.7-6.6-0.8c-0.8,0.8-1.5,1.6-2.2,2.4l-0.5-1.2c-1-2.7-3.6-3.8-6.2-2.5
		c-0.7,0.3-1.3,0.7-2,1.1c-0.2-0.9-0.5-1.7-0.7-2.6c-0.6-2.2-2.5-3.2-4.3-3c13.6-10,28-18.7,43.2-26.2c2.1-1,2.4-3.2,1.7-5
		c2.3-0.1,4.6-0.3,6.9-0.4c5.4-0.3,5.4-8.7,0-8.4c-18.5,1-37,2-55.5,3.1c-0.9-0.6-1.9-0.9-3.2-0.6c-2.3,0.4-4.6,0.8-6.9,1.2
		l-40.8,2.2c-2.6,0.1-4,2-4.1,4c-3.1-0.6-6.1-1.5-9.1-2.6c-3.4-1.3-5.3,3.9-2.4,5.7c16.3,10.4,34,19,50.7,28.9c1.3,0.8,2.8,0.7,4,0
		c0,0,0.1,0.1,0.1,0.1c-0.5,0.5-1.1,1-1.6,1.5c-1,4.3,3.8,6.6,7,4c1.9-1.5,3.8-3,5.8-4.5c0,0,0,0,0,0.1c-2.1,5.6-0.8,10.9,3.1,15.3
		c-0.2,0.4-0.3,0.8-0.5,1.3c-0.4,1.2,0.5,2.8,1.7,3c16.9,2.7,33.9,1.8,50.7-1.3c5.5-1,11-2.3,16.5-3.5c0.9,1.1,2.3,1.8,4.1,1.3
		l14.7-4.4c5.8-0.5,11.6-0.4,17.6,0.8c3,0.6,6,1.4,9,0.5c1.5-0.5,2.9-1.4,4.2-2.4c-1.1,1-2.2,2-3.4,2.9c-0.2,0.2-0.4,0.5-0.6,0.8
		c-0.4,0-0.8,0.3-1,0.8c-1,4.2,0.8,8.7,1.6,12.9c0.8,4.7,0.5,10,2,14.6c-0.2,0.6-0.5,1.1-0.7,1.6c-0.1,0.3-0.2,0.6-0.2,0.9
		c-2.6,3.8-4.8,7-5.3,7.7c-2.5,3.6,2.4,8.2,6,6c10.2-6.4,23.6-12.7,23.9-26.6C453.2,523.5,452,519.6,449.9,516.4z M428.4,320.6
		c0.6-0.5,1.1-1,1.7-1.4c-0.4,1-0.9,1.9-1.3,2.8C428.7,321.6,428.5,321.1,428.4,320.6z M429.8,388.3c-0.2,0.2-0.4,0.4-0.6,0.6
		c0.1-1.1,0.2-2.1,0.3-3.2c0.2,0,0.4,0,0.5,0c0.2,0.7,0.3,1.4,0.4,2.1C430.2,388,430,388.2,429.8,388.3z M431.1,345.6
		c0,0-0.1,0.1-0.1,0.1c0,0.1-0.1,0.1-0.1,0.2c0-0.6,0-1.3,0-1.9c0.2,0.4,0.3,0.7,0.5,1.1C431.2,345.2,431.2,345.4,431.1,345.6z
		 M484.9,443.7c-0.9,1.6-1.9,3.1-2.9,4.6c-0.1-0.1-0.1-0.2-0.2-0.3C482.8,446.6,483.9,445.2,484.9,443.7z M332.3,463.8
		c0.6-0.3,1-0.6,1.3-1c3.3-0.2,6.6-0.4,9.9-0.5c-7.6,2.5-15.2,5.1-22.8,7.6C324.6,467.8,328.4,465.8,332.3,463.8z M266.4,469.5
		c1.2,0.1,2.4,0.1,3.6,0c-0.1,0.7,0,1.3,0.2,2C268.9,470.8,267.7,470.1,266.4,469.5z M288.4,481.1c-0.2,0.1-0.3,0.3-0.4,0.4
		c-4.1-2.3-8.2-4.7-12.3-7c10-1.9,20-3.7,29.9-5.6C299.7,472.6,293.9,476.6,288.4,481.1z M304.4,489.3c-0.4-0.7-1-1.4-1.8-1.9
		c-1.3-0.9-2.6-1.3-3.9-1.3l19.2-6.4C313.3,482.7,308.8,485.9,304.4,489.3z M319.2,510.3c0.2-0.4,0.4-0.7,0.5-1.1
		c0.2-0.2,0.4-0.4,0.6-0.7c0.2-0.3,0.4-0.6,0.6-0.8c0.3,0.9,0.7,1.7,1,2.6C321,510.2,320.1,510.3,319.2,510.3z M344,508.2
		c-0.1,0.2-0.2,0.3-0.2,0.5c-1.1,0.1-2.1,0.2-3.2,0.3c0.5-0.6,1.1-1.1,1.6-1.3c1-0.5,1.5-0.3,2,0.2C344.2,508,344.1,508.1,344,508.2
		z M362.9,500.9c-0.7,0.3-2.8,1.3-3.2,1c-0.4-0.3,2.5-6.2,2-5.2c0.3-0.7,0.5-1.3,0.4-1.9c0.6-0.5,1.2-1,1.8-1.5
		c-0.1,2.3-0.1,4.8,0.1,7.1C363.6,500.6,363.3,500.8,362.9,500.9z M420.8,493.8c-1.4,0-2.8,0.1-4.2,0.4c2.2-0.9,4.3-2,6.5-3
		C422.3,492,421.5,492.9,420.8,493.8z"/>
	<path fill="#E0DFE6" d="M422,435.5c-0.1,0.2-0.2,0.5-0.3,0.8c-2.1-1.8-6.1-1.6-6.6,1.7c-0.5,3-1.1,6.1-1.6,9.1
		c-1-2.1-3.7-3-5.8-1.1c-1.5,1.4-3.1,2.7-4.6,4c-1.1-1-2.7-1.4-4.1-0.5c-1.4,0.9-2.8,1.7-4.2,2.5c-0.9-1.5-2.9-2.5-4.6-1.4
		c-0.8,0.5-1.5,1-2.3,1.5c-0.6-1.1-2.2-1.7-3.4-1.1c-6.1,2.9-11.5,6.6-16.5,11.1c-1.1,1,0.4,3.1,1.7,2.1c1.9-1.3,3.8-2.6,5.8-3.7
		c-0.7,1-0.7,2.1-0.2,3c-3.4,0.6-6.8,1.2-10.2,1.9c-1.9,0.4-1.5,3.4,0.5,3.4c11.3-0.1,22.7-1.5,33.9-2.5c5.7-0.5,11.3-0.9,17-1.4
		c3.8-0.3,8.3-0.2,11.8-1.8c7.8-3.6,9.9-15.3,11.7-22.7c2.4-10.1,3.3-20.5,2.9-30.9c-0.1-3.3-4.5-5.4-6.8-3.2
		c-1.4-1.3-3.4-1.5-6.2,0.5c-0.8,0.5-1.3,1.3-1.6,2.1c-5.2,1.9-9,5.9-6.9,12.5c0.3,1,1,1.8,1.8,2.4c0,1,0,2-0.1,3
		C422.5,429.7,422.2,432.6,422,435.5z M401.7,460c1.5-1,3-2.1,4.4-3.2c1,1.6,2.9,2.5,4.8,1.3c0.8-0.5,1.7-1,2.5-1.6
		c0.3,0.3,0.6,0.6,1,0.8c0.3,0.4,0.7,0.7,1.1,1C410.9,458.9,406.3,459.5,401.7,460z M423.1,456.5c0.4-0.7,0.8-1.5,1.2-2.2
		c0.7,0.2,1.4,0.3,2,0.2c-1,1.1-2.1,1.8-3.5,2.4C422.9,456.7,423,456.6,423.1,456.5z"/>
	<path fill="#E0DFE6" d="M400.9,552.2c5.5-3,9.9-7.5,10.4-14.3c0.1-1.2-1.5-1.8-2.3-1c-0.5,0.5-0.7,0.7-0.8,1.1
		c-4.7,6.2-10.6,8.8-18.2,10.4c-4.5,0.9-11,2.7-16.6,2.6c-1.7-0.6-3.4-1.4-5.1-2.3c-1.5-0.8-3-1.2-4.6-1.2c-1.6-1.2-3.3-2.6-5.1-3.8
		c-0.6-4.8-2.1-9.4-3.6-14c-1.8-5.3-9.1-3.1-8.3,2.3c0.6,3.8,0.1,7.4-1.4,10.8c-0.1-0.3-0.1-0.6-0.2-0.8c-0.8-3-5.8-4.1-7.2-0.9
		c-0.2,0.4-0.4,0.9-0.6,1.3c-1-0.8-2.4-0.9-3.6-0.4c-5.1-1.2-10.1-2.6-15.1-4.2c-0.7-1.3-2.3-2-3.7-1.7c0.1-0.3,0.1-0.5,0.1-0.8
		c0.4-1.7-2-2.3-2.6-0.7c-0.2,0.4-0.3,0.9-0.5,1.3c-1.9,0.3-3.4,2.2-3.5,4.1c-0.1,2.5-0.7,5.9-0.5,9c-0.1,0.7-0.2,1.4-0.2,2.1
		c0.1,1,0.6,1.7,1.3,2.2c0.2,0.3,0.4,0.6,0.6,0.9c3.1,3.6,10,2.3,14.1,2.4c3.8,0.1,7.6,0.1,11.4,0.2c0.4,0.1,0.8,0.1,1.2,0l8.2,0.1
		c1.1,0,4-0.5,4.9,0.1c0.9,0.5,0.8,1.3,1.4,2c1.3,1.4,1.8,2.6,3.6,3.4c3.1,1.3,6,0.1,8-2.4c0.4-0.5,1.3-1.6,1.6-2.4
		c1.1,0.7,2,1.1,2.4,1.2c0.6,0.2,1.2,0.3,1.8,0.4c0.7,0.5,1.4,0.9,1.7,1c9.3,4,20.9,3.5,29.2-2.6C401.2,556,401.6,553.9,400.9,552.2
		z"/>
	<path fill="#E0DFE6" d="M299.5,534.6c-1.7,2.4-3.6,4.5-5.9,6.3c-0.9-1.8-2.7-3-4.8-3.4c-1.7-0.3-5.1,0.4-7,1.9
		c-0.3-1-0.6-2-1.4-2.9c-2.1-2.5-5.2-2.9-8.2-2.1c-3.8,1-7.4,3.4-10.8,5.5c-1.6-0.3-3.1-0.6-4.7-0.8c1.4-2.5,3.3-4.8,5.4-6.9
		c3.2-3.4,12.2-9.3,6.2-14.5c-5.3-4.5-15.8,0.1-21.1,2.3c-0.1,0-0.1,0-0.2,0.1c-0.2,0-0.5,0.1-0.7,0.2c-2.9,1.1-5.8,2.2-8.7,3.3
		c-1.2-1.6-3.2-2.4-5.5-1.1c-1.6,0.9-3,1.9-4.4,3c-15.4-5.3-30.8-11.6-44.2-20.5c-3.4-2.3-6.7-4.9-9.5-8c-3.2-3.5-4.4-7.9-7.2-11.5
		c-3.8-4.8-9.5-3.7-13.4,0.3c-0.6-0.6-1.2-1.2-2-1.6c-3-1.5-5.7-0.7-8.1,1.1c-0.1-0.3-0.2-0.6-0.3-0.9c-0.8-2.9-0.7-6.1-2.7-8.5
		c-1.8-2.1-4.2-3.1-7-2.8c-3.8,0.5-5,3-7.9,4.8c-0.8,1.7-1.9,2-3.1,0.9c-1.2-0.4-2.1-1.1-2.8-2.1c-1.7-1.6-3-3.6-4.3-5.5
		c-0.3-0.4-0.5-0.8-0.8-1.2c-1.9-5-3.1-10.3-4-15.6c-0.1-0.9-1.4-0.6-1.5,0.2c-0.1,1.2-0.2,2.4-0.3,3.8c-0.1-0.2-0.1-0.3-0.2-0.5
		c-1.3-3.7-2.3-7.6-2.9-11.5c-0.7-4.4-0.1-9.2-1.4-13.5c-0.3-1-1.8-1.3-2.3-0.3c-3.9,6.9-2,17.8-0.3,25.1c1.9,7.9,5.5,15.5,10.4,22
		c1.5,3.7,3.7,7,6.6,9.3c3.2,2.5,7.5,2.9,11,0.7c1-0.6,1.8-1.6,2.7-2.3c0.5-0.5,1-1,1.6-1.4c0.2-0.1,0.3-0.2,0.5-0.3
		c0.9,2.4,0,8.6,0.1,10.6c0.1,3.6,4.6,5.8,7.3,3c0.5-0.5,1-1,1.4-1.5c0.1,0,0.1,0.1,0.2,0.1c2.4,1.1,5.1,1.6,7.7,1.1
		c1.3,2.1,2.8,4.1,4.5,6c5,5.5,11.4,9.8,17.8,13.4c6.9,4,14,7.6,21.3,11c2.5,1.2,5.1,2.4,7.7,3.5c7.1,3.2,14.3,6.2,21.5,9
		c17.9,7,36.4,13.3,55.2,17.6c7.1,1.6,14.1,2,19.9-3c5.3-4.7,7.8-11.8,9.3-18.5C309.1,533,302.5,530.4,299.5,534.6z M262.2,522.4
		c-0.1,0.1-0.1,0.2-0.2,0.3c-0.2-0.3-0.3-0.5-0.6-0.7C262.3,521.7,262.6,521.5,262.2,522.4z M163.1,500.1c-2.1-2.1-3.7-4.3-5.2-6.7
		c1-1.2,1.9-2.1,2.3-2.1c0.4,0,5.2,9.3,6.3,10.6c1.4,1.8,3,3.4,4.7,5C168.3,504.8,165.6,502.6,163.1,500.1z"/>
	<path fill="#E0DFE6" d="M246.9,551c-7.7-1.4-15.4-2.6-22.8-5c-3.9-1.2-7.5-2.9-11.1-4.7c-2-1-3.3-1.7-5.6-1.1
		c-2.2,0.6-3.8,3.2-3.1,5.4c0,0.2,0.1,0.3,0.1,0.5c0.6,1.7,2.2,3.1,4,3.2c-1.2,4.4,2.4,8.6,6.9,9.8c4.5,1.2,9.7,0,14.3-0.1
		c5.4-0.2,10.7,0.1,16.1,0.7C250.6,560.1,251.8,551.8,246.9,551z"/>
	<path fill="#E0DFE6" d="M155.4,393.6c0.1,0.2,0.2,0.3,0.3,0.5c-2.4-0.5-4.4-0.9-5.5-1.1c-0.2,0-0.3-0.1-0.5-0.1
		c-1.5-0.3-2.7,0.2-3.6,1c-4.3-3.3-8.5-6.7-13-9.8c-1.1-0.7-2.1,0.6-1.6,1.6c4,8.4,11.2,15.3,18.5,20.9c7.8,6,17.2,9.9,24.2,17
		c2.7,2.8,7.6,0.7,7.6-3.2c0-3.9-0.8-7.2-2.7-10.7c-0.4-0.7-0.9-1.2-1.5-1.6c0.9-0.4,1.6-1.2,2-2c2.6-1,3.9-3.2,2.8-7.3
		c-0.5-1.7-1.9-2.6-3.4-2.7c0.1-1.3-0.7-2.7-2.2-3c-0.1-0.4-0.2-0.8-0.3-1.3c0.7-0.2,1.3-0.4,1.9-0.6c4.7-1.6,2.7-9.2-2.1-7.5
		c-0.4,0.1-0.8,0.2-1.1,0.4c-0.3-2.5-0.6-5.1-0.8-7.6c-0.6-7.9-1-15.7-3.8-23.2c-0.7-2-3.6-1.2-3.2,0.9c1.8,8.9,0.7,17.9,0.8,26.9
		c0,1.6,0.1,3.2,0.2,4.8c-9.6,2.1-19.7,1.9-27.6-4.4c-0.4-0.3-1.2-0.2-1.2,0.5C140.7,389.5,147.5,392.6,155.4,393.6z M172.9,408.6
		c-0.5,0.5-1,1-1.3,1.7c-1.6-1-3.2-1.9-4.8-2.9C168.8,408.1,170.8,408.5,172.9,408.6z"/>
	<path fill="#E0DFE6" d="M291.5,226.6c-1.2-0.6-2.5,0-3.1,0.9c-1-2.1-5.2-1.7-5.4,1.4c0,0.3,0,0.6,0,0.9c-0.1,2.1-0.2,4.1-0.3,6.2
		c-0.1,1.7-0.1,3.3-0.2,5c0,0.7,0.1,1.3,0.5,1.8c-0.4,0.7-0.6,1.5-0.4,2.4c-1.3-0.5-2.7-0.2-3.9,1.3c-5.6,7.1-12.1,12.6-20.1,16.7
		c-2,1-2.4,3-1.9,4.8c-2.2-0.3-5.5-0.9-7.2-1.1c0,0,0.1-0.1,0.1-0.1c0.1-0.2,0.1-0.3,0.2-0.5c0.1-0.3,0-0.7-0.2-0.9
		c-0.7-0.7-1-0.9-2-0.8c-0.6,0.1-1.3,0.4-1.5,1.1c-1.4,8.7,14.2,10.3,19.9,9.4c4.9-0.8,9.3-3.1,12.7-6.4c0.1,1.1,0.5,2.2,0.9,3.3
		c0.1,0.2,0.2,0.3,0.2,0.5c-0.5,2.5-0.8,5.1-0.8,7.8c0,2.6,2.4,4.1,4.8,3.7c4.3-0.8,9.4-4.7,6.5-9.6c-0.6-1-1.4-1.5-2.2-1.9
		c1.4-0.7,2.4-2.2,1.7-4.3c0,0,0-0.1-0.1-0.1c0.3-0.1,0.6-0.2,0.9-0.4c2.7-1.9,5.3-3.8,7.4-6.4c1-1.2,0.9-2.6,0.2-3.5
		c0.5-2.4-1.8-4.9-4.4-4.2c-0.3,0.1-0.6,0.2-0.9,0.3c-0.1-0.8-0.3-1.6-0.5-2.4c1.2,0.4,2.6,0.2,3.7-0.5c8.2,4.3,17.2,4.8,25.5,2.5
		c10.9,0.3,20.8-6.2,24.5-17.8c1.2-3.7-2.2-5.8-5.2-5.1c1.9-2.2,3.7-4.4,5.2-6.8c1.3-1.9,0.5-3.9-1-5.1c3.4-7.9,15.4-10.8,21.4-16.5
		c7-6.6,9.1-16.9,11.4-25.9c0.4-1.4-1.8-2.5-2.5-1.1c-2.5,5.1-4.9,10.4-7.9,15.3c-3.5,5.7-8.5,8.6-14.1,11.8
		c-6.7,3.9-13.2,9-15.2,16.5c-0.1,0-0.2-0.1-0.4-0.1c-1.2-0.6-2.6-0.7-3.9,0.3C321.5,227.8,306.1,234.2,291.5,226.6z M324.6,239.2
		c0.8,0.7,1.8,1.1,2.8,1.2c0.9,0.1,1.8,0,2.5-0.2c-2.8,2-6,3.7-9.3,4.7c-1.8-0.2-3.6-0.6-5.3-1.4c-0.1-0.1-0.2-0.1-0.4-0.1
		C318.2,242.5,321.5,241,324.6,239.2z M310.4,244.3c-0.6,0.5-1.1,1.2-1.4,1.9c-4.2-0.4-8.3-1.7-11.9-3.9c-0.3-1.3-0.6-2.7-1.1-4.1
		c-0.1-0.5-0.2-1.1-0.3-1.6c-0.2-0.8-0.6-1.4-1.2-1.9c-0.3-0.5-0.6-0.9-0.9-1.4c2.3,1.2,4.6,2.1,7,2.7c-2.4,2.3-2.2,6.6,1.5,7.6
		C305,244.4,307.7,244.6,310.4,244.3z"/>
	<path fill="#E0DFE6" d="M391.6,255.4c-0.2,7.7-9.8,10.2-16.2,10c-6.5-0.2-12.8-3.3-16.7-8.5c-0.3-0.5-0.8-0.8-1.2-1.1
		c-0.1-0.7-0.4-1.4-1.1-2c-3.1-2.6-5.7-5.4-7.6-9c-1.5-2.8-5.2-1.7-6.1,0.8c-1.3,3.6-3.6,6.5-6.5,8.8c0,0-0.1,0-0.1,0
		c-3.8,0.5-7.6,2.6-11.2,3.6c-0.5,0.1-0.6,0.6-0.5,0.9c-1.7,0.8-1.5,3.8,0.7,3.7c4.1-0.2,7.9-1.1,11.3-2.8c0.2,0,0.3,0,0.5-0.1
		c0.7-0.1,1.2-0.5,1.5-1c2.8-1.6,5.3-3.7,7.4-6.3c1.6,2.3,3.4,4.4,5.6,6.4c0,0,0.1,0.1,0.1,0.1c0,0.3,0.1,0.6,0.2,0.9
		c2.5,7.1-6.1,13.6-1.1,21c1.5,2.3,5.6,2.2,6.2-0.8c0.9-4.2,1.5-8.5,1.4-12.7c0,0,0-0.1,0-0.1c6,4.7,13.5,7.1,21.4,6.5
		c9.2-0.7,23.8-8.1,20.1-19.4C398.1,250.1,391.8,250.8,391.6,255.4z"/>
	<path fill="#E0DFE6" d="M289,336.9c-6.4,9-12.9,18.1-19.3,27.1c-0.4,0.5-0.6,1-0.8,1.5c-2.2-0.7-4.3,1.8-2.6,4
		c10.6,13,23.9,23.2,35.5,35.3c2,2.1,6,2.5,8,0.2c11.8-13.6,23.6-26.7,37.1-38.7c2.3-2,2.7-6.6,0.2-8.7
		c-8.2-6.7-16.4-13.4-24.7-20.1c-5.2-4.3-12.3-13-19.6-13.2C296,324.1,292.5,332,289,336.9z M278.3,373.1c1-0.5,2-1.2,2.7-2.3
		c1-1.4,2-2.8,2.9-4.2c0.2,2.6,0.3,5.3,0.4,7.9c0,1.3,0,2.5,0.1,3.8C282.4,376.6,280.3,374.8,278.3,373.1z M290.8,383.6
		c0.7-0.6,1.3-1.5,1.3-2.8c0.1-1.9,0.2-3.8,0.4-5.7c0.6,3.1,1.1,6.2,1.5,9.3c0.1,1,0.5,1.8,1,2.4
		C293.6,385.8,292.2,384.7,290.8,383.6z M304.5,393.4c-2.8-1.7-5.4-3.6-8-5.5c2.3,1,5.4,0.1,6.9-2.2c1.1,2.1,3.1,2.9,5.1,2.6
		C307.1,390.1,305.8,391.7,304.5,393.4z M319.6,351.2c4.6,3.6,9.1,7.3,13.7,10.9c-6.8,6.3-13.3,13-19.5,19.9
		c0.8-6,1.7-12.1,2.6-18.1c0.2,0.2,0.4,0.4,0.5,0.6c4.1,5.8,13.9,0.6,9.8-5.3c-3.5-5-7.3-8-13-10.1c-2.6-1-6.5,1-6.9,3.9
		c-0.2,1-0.3,1.9-0.4,2.9c-0.4-1.3-0.7-2.7-1.1-4c-1.3-4.6-7.1-5.1-9.5-2c0-0.1-0.1-0.2-0.2-0.3c2.5-4.3,6.1-10.3,8.5-10.7
		C306.4,338.4,317.5,349.5,319.6,351.2z"/>
	<path fill="#525D7D" d="M256,184.6c0.6,0.9,0.3,2.1-0.6,2.6c-0.7,0.4-1.3,0.9-1.9,1.3c2.3,5.9,5.2,11.4,8.9,16.6
		c1.2-0.5,2.6-0.9,3.9-1.1c0,0,0-0.1,0-0.1c-12.8-17.2-15.9-38.8-18.3-63.3C262,126.2,272,106.5,277,83.5c2,0.7,4.1,1.5,6.1,2.2
		c23.5,8.7,47.9,17.6,73.5,17.6c6.7,0,12.7-0.4,18.2-1.1c0-0.7-0.1-1.4-0.1-2c-0.1-1,0.7-2,1.8-2c1.1-0.1,2,0.7,2,1.8
		c0,0.6,0.1,1.2,0.1,1.7c6.3-1.1,11.7-2.8,16.4-5c0.6-0.3,0.9-0.8,1.1-1.4c0.1-0.6-0.1-1.2-0.5-1.7c-5-5.1-8.7-12.4-12.6-20.1
		c-9.6-18.9-20.4-40.3-55.2-40.3c-19.2,0-39.2,7.4-57.1,20.9c0.3,0,0.5,0,0.8,0.1c1,0.1,1.8,1.1,1.7,2.1c-0.1,1-1.1,1.8-2.1,1.7
		c-1.3-0.2-2.6-0.2-3.8-0.2c-0.4,0-0.8,0-1.1,0c-0.1,0-0.1,0.1-0.2,0.1c-0.8,0.7-0.9,1.9-0.2,2.7c0.7,0.8,1.9,0.9,2.7,0.2
		c18.3-15.3,39.4-23.8,59.4-23.8c32.4,0,42.3,19.4,51.8,38.2c3.6,7,7,13.7,11.4,19c-8.6,3.6-19.9,5.3-34.3,5.3
		c-25,0-49-8.9-72.2-17.4c-2.7-1-5.5-2-8.2-3c-0.5-0.2-1.1-0.1-1.6,0.1c-0.5,0.3-0.8,0.7-0.9,1.3c-4.7,23.5-14.8,43.5-29.1,58
		c-0.4,0.4-0.6,1-0.5,1.5c0.9,8.9,1.8,17.5,3.3,25.6c0.1-0.1,0.2-0.1,0.3-0.2c0.9-0.6,2.1-0.3,2.6,0.6c0.6,0.9,0.3,2.1-0.6,2.6
		c-0.5,0.3-1.1,0.7-1.6,1c1.1,5.2,2.4,10.2,4,15.1c0.4-0.3,0.9-0.6,1.3-0.9C254.2,183.4,255.4,183.7,256,184.6z"/>
	<path fill="#525D7D" d="M224.1,166.6c-0.9-1.6-1.4-3.7-1.4-6.3c0-12.5,8-15.7,14.7-16.2c0.6,0,1.1-0.4,1.4-0.8
		c0.3-0.5,0.4-1.1,0.2-1.7c-4.4-12.8-6.7-25.4-6.7-36.5c0-31.4,19.7-46.5,33.6-47.3c0.4,0,0.8,0,1.1,0c1.2,0,2.5,0.1,3.8,0.2
		c1,0.1,2-0.6,2.1-1.7c0.1-1-0.6-2-1.7-2.1c-0.3,0-0.5,0-0.8-0.1c-1.2-0.1-2.3-0.2-3.5-0.2c-18.5,0-38.6,19.6-38.6,51.1
		c0,10.8,2.1,23,6.2,35.5c-10.1,1.6-15.8,8.7-15.8,19.7c0,2.4,0.4,4.6,1.1,6.5c0.8-0.2,1.5-0.4,2.3-0.6
		C223,166,223.6,166.2,224.1,166.6z"/>
	<path fill="#525D7D" d="M250.2,166.1c-0.6-0.9-1.7-1.1-2.6-0.6c-0.1,0.1-0.2,0.1-0.3,0.2c-5.5,3.4-10.3,5-15.2,5
		c-3.3,0-5.8-1.1-7.4-3.3c0.3,1-0.3,2.1-1.3,2.3c-0.5,0.1-0.9,0.2-1.4,0.4c2.3,2.8,5.7,4.4,10.1,4.4c5.1,0,10.4-1.6,15.9-4.9
		c0.5-0.3,1.1-0.6,1.6-1C250.5,168.2,250.8,167,250.2,166.1z"/>
	<path fill="#525D7D" d="M240.2,159.4c-0.8-0.6-1.3-1.6-1.3-2.7c0-1,0.4-2,1.1-2.6c0.8-0.7,0.9-1.9,0.2-2.7
		c-0.7-0.8-1.9-0.9-2.7-0.2c-1.5,1.3-2.4,3.3-2.4,5.4c0,2.3,1,4.4,2.8,5.8c0.3,0.3,0.7,0.4,1.1,0.4c0.6,0,1.1-0.3,1.5-0.8
		C241.2,161.3,241,160.1,240.2,159.4z"/>
	<path fill="#525D7D" d="M376.4,98.3c-1,0.1-1.8,1-1.8,2c0.1,0.7,0.1,1.3,0.1,2c0.2,3.4,0.3,6.9,0.3,10.7c0,5-0.2,10.5-0.6,16.7
		c0,0.6,0.2,1.2,0.6,1.6c0.4,0.4,1,0.5,1.6,0.4c0.8-0.2,1.6-0.2,2.3-0.2c5.9,0,12.5,6.6,12.5,16.1c0,9.7-4.1,14.8-12.3,15.2
		c-1,0-1.8,0.9-1.8,1.9c-0.2,14.3-4.2,27.9-11.1,38.3c0.5,0,0.9-0.1,1.4-0.1c1,0,2,0.1,3,0.3c2.5-4.2,4.7-8.8,6.3-13.7
		c-0.5-0.5-1.1-0.9-1.7-1.4c-0.9-0.6-1.1-1.8-0.5-2.7c0.6-0.9,1.8-1.1,2.7-0.5c0.2,0.2,0.5,0.3,0.7,0.5c1.7-6.1,2.7-12.5,2.9-19.1
		c9.2-1.1,14.2-7.7,14.2-18.8c0-9.4-6.7-19.9-16.3-19.9c-0.2,0-0.4,0-0.7,0c0.3-5.4,0.5-10.2,0.5-14.7c0-4-0.1-7.6-0.4-11.2
		c0-0.6-0.1-1.2-0.1-1.7C378.4,99,377.4,98.2,376.4,98.3z"/>
	<path fill="#525D7D" d="M379.9,146.5c0.7-0.2,1.2-0.9,1.3-1.6c0.1,0.2,0.1,0.6,0.1,1.1c0,1.3-0.6,2.9-1.3,4.4c-0.4,1,0,2.1,1,2.5
		c0.2,0.1,0.5,0.2,0.7,0.2c0.7,0,1.4-0.4,1.7-1.2c0.8-1.9,1.6-3.9,1.6-5.9c0-3.1-1.5-5.1-3.9-5.1c-1.9,0-3.9,1.4-3.9,3.4
		c0,0.3,0.1,0.7,0.2,1.1C377.9,146.3,378.9,146.8,379.9,146.5z"/>
	<path fill="#525D7D" d="M304.7,151.3l0,1.4c0,6.4,0,25.7,12.8,25.7c0.5,0,1,0,1.5,0c0.4,0,0.8,0,1.2,0c2,0,2.3,1.4,2.3,2.2
		c0,2.6-3.4,7.4-9.8,7.4c-1.1,0-1.8-0.2-2.6-0.6c-0.9-0.5-2.1-0.2-2.6,0.7c-0.5,0.9-0.2,2.1,0.7,2.6c1.3,0.8,2.8,1.2,4.5,1.2
		c8.4,0,13.6-6.5,13.6-11.2c0-2.9-1.9-6-6.1-6c-0.4,0-0.9,0-1.3,0c-0.5,0-0.9,0-1.4,0c-6,0-9-7.2-9-21.9l0-1.4c0-3.6,0-6.8-0.5-9.9
		c-0.1-1-1.1-1.8-2.1-1.6c-1,0.1-1.8,1.1-1.6,2.1C304.7,144.8,304.7,147.9,304.7,151.3z"/>
	<path fill="#525D7D" d="M320.8,204.4c-0.7-0.8-1.9-0.8-2.7-0.1c-2.2,2.1-5.3,3.2-8.6,3.2c-4.2,0-8.1-1.7-10.6-4.6
		c-0.7-0.8-1.9-0.9-2.7-0.2c-0.8,0.7-0.9,1.9-0.2,2.7c3.2,3.7,8.3,5.9,13.5,5.9c4.3,0,8.3-1.5,11.2-4.2
		C321.5,206.4,321.6,205.2,320.8,204.4z"/>
	<path fill="#525D7D" d="M290.9,149.6c-0.9-0.5-2.1-0.2-2.6,0.7c-1.3,2.1-3.5,3.4-6.2,3.4c-3.2,0-6.2-1.6-7.6-4.2
		c-0.5-0.9-1.7-1.2-2.6-0.7c-0.9,0.5-1.2,1.7-0.7,2.6c2.1,3.7,6.4,6.1,10.9,6.1c4.1,0,7.5-1.9,9.5-5.2
		C292.1,151.3,291.8,150.1,290.9,149.6z"/>
	<path fill="#525D7D" d="M340.9,155.8c3.2,0,6.8-1.1,9.6-3c0.9-0.6,1.1-1.8,0.5-2.6c-0.6-0.9-1.8-1.1-2.6-0.5
		c-2.2,1.5-5.1,2.4-7.5,2.4c-2.7,0-4.6-1-5.8-2.9c-0.5-0.9-1.7-1.2-2.6-0.7c-0.9,0.5-1.2,1.7-0.7,2.6
		C333.7,154.1,336.9,155.8,340.9,155.8z"/>
	<path fill="#525D7D" d="M272.8,134.5c0.3,0,0.6-0.1,0.9-0.3c1.5-0.9,3.3-1.2,5.2-1.5c1-0.2,2-0.3,3.1-0.6c1-0.3,1.6-1.3,1.4-2.3
		c-0.3-1-1.3-1.6-2.3-1.4c-0.9,0.2-1.8,0.4-2.8,0.5c-2.1,0.4-4.3,0.7-6.4,1.9c-0.9,0.5-1.2,1.7-0.7,2.6
		C271.5,134.1,272.2,134.5,272.8,134.5z"/>
	<path fill="#525D7D" d="M337.1,131c0.9,0.1,1.8,0.1,2.5,0.1l2,0c2.2,0,3.8,0.2,5.3,1c0.3,0.2,0.6,0.2,0.9,0.2c0.7,0,1.3-0.4,1.7-1
		c0.5-0.9,0.2-2.1-0.7-2.6c-2.5-1.4-5-1.5-7.2-1.5l-2,0c-0.6,0-1.4,0-2.1-0.1c-1-0.1-2,0.6-2.1,1.7C335.3,130,336,130.9,337.1,131z"
		/>
	<path fill="#525D7D" d="M277,247.6c0.1-0.1,0.1-0.2,0.1-0.3c0-0.2-0.1-0.6-0.4-1.1c-0.4,0.8-0.9,1.5-1.4,2.3
		c0.3,0.2,0.6,0.5,0.9,0.7c0.7,0.6,1.4,1.1,2.1,1.7c0.1-0.2,0.2-0.3,0.3-0.5c-0.3,0-0.6-0.1-0.9-0.3
		C276.7,249.7,276.4,248.5,277,247.6z"/>
	<path fill="#525D7D" d="M239.4,232.2c-0.1,1-1.1,1.8-2.1,1.7c-0.4,0-0.8-0.1-1.1-0.1c-0.9,3.1-1.4,6.2-1.4,9.2
		c0,13.5,7.5,22,19.7,22c9.8,0,16.8-5.3,21.5-10.9c-0.6-0.5-1.2-1-1.8-1.5c0.4,0.6,0.4,1.5,0,2.1c-0.8,1.1-1.9,1.6-3.2,1.6
		c-0.8,0-1.5-0.1-2.1-0.3c-3.9,3.2-8.7,5.3-14.3,5.3c-4.6,0-8.2-1.4-10.9-3.9c-1.8-0.5-3.5-1.4-5-2.8c-0.8-0.7-0.8-1.9-0.1-2.7
		c0.4-0.4,0.9-0.6,1.4-0.6c-0.8-2.3-1.2-5.1-1.2-8.2c0-9.8,5.7-20.5,14.7-27.8c3.5-2.8,6.4-4.7,9.2-6.1c1.3-0.6,3-1.4,4.3-1.4
		c0.5,0,0.9,0,1.4,0.1c-0.2-0.8,0.1-1.6,0.8-2c0.9-0.6,2.1-0.3,2.6,0.5c0.5,0.7,1,1.3,1.5,1.9c0.3,0.4,0.7,0.8,1,1.2
		c5,2.6,8.7,8.1,8.7,16.9c0,3.8-1.4,10.1-4.3,16.3c1.3,1.1,2.1,2.7,2.3,4c0.5-0.9,1-1.9,1.4-2.8c-0.5-0.6-1-1.3-1.5-2
		c-0.6-0.9-0.4-2,0.5-2.7c0.9-0.6,2-0.4,2.7,0.5c0,0,0,0.1,0.1,0.1c1.2-3.2,1.9-6.2,2.4-8.9c-0.7-0.6-1.4-1.3-2.1-2
		c-0.8-0.7-0.8-1.9-0.1-2.7c0.7-0.7,1.8-0.8,2.6-0.2c-0.1-13-8.2-22.1-19.8-22.1c-0.2,0-0.5,0-0.7,0c-1.3,0.1-2.6,0.6-3.9,1.1
		c-0.5,0.2-0.9,0.4-1.4,0.6c-3.1,1.5-6.3,3.5-10,6.5c-1.1,0.9-2.1,1.8-3.1,2.7c0.3,0.6,0.6,1.2,1,1.8c0.6,0.9,0.3,2.1-0.6,2.6
		c-0.3,0.2-0.7,0.3-1,0.3c-0.6,0-1.2-0.3-1.6-0.9c-0.2-0.3-0.4-0.6-0.5-0.9c-3.3,3.7-5.9,7.9-7.6,12.2c0.1,0,0.2,0,0.3,0
		C238.8,230.3,239.6,231.2,239.4,232.2z"/>
	<path fill="#525D7D" d="M273.2,251.8c-0.1,0-0.1-0.1-0.2-0.1c0,0,0,0-0.1,0.1C273,251.7,273.1,251.8,273.2,251.8z"/>
	<path fill="#525D7D" d="M276.7,217.9c0-4.3-1.2-6.5-2.5-8.4c-0.3-0.4-0.6-0.8-1-1.2c-0.5-0.6-1-1.2-1.5-1.9
		c-0.6-0.9-1.8-1.1-2.6-0.5c-0.7,0.5-1,1.3-0.8,2c0.1,0.2,0.1,0.4,0.3,0.6c0.6,0.8,1.1,1.6,1.7,2.2c1.6,2,2.6,3.3,2.6,7.2
		c0,8.5-12.1,36-26.2,36c-2.1,0-4-0.7-5.6-2.2c-0.4-0.3-0.8-0.5-1.3-0.5c-0.5,0-1,0.2-1.4,0.6c-0.7,0.8-0.7,2,0.1,2.7
		c1.5,1.4,3.2,2.3,5,2.8c1,0.3,2,0.4,3.1,0.4C263.9,257.7,276.7,227.2,276.7,217.9z"/>
	<path fill="#525D7D" d="M383.3,213.2c-0.4,0-0.7-0.1-1-0.3c-0.9-0.6-1.1-1.8-0.6-2.6c0.2-0.4,0.4-0.8,0.6-1.2
		c-2-1.8-4.2-3.3-6.6-4.4c-1.6-0.8-3.3-1.3-5-1.6c-1-0.2-2-0.3-3-0.3c-0.5,0-0.9,0-1.4,0.1c-9.2,0.7-18.2,8.5-19,21.2
		c0.5,0,1,0.3,1.3,0.7c0.7,0.8,0.6,2-0.2,2.7c-0.4,0.3-0.8,0.7-1.1,1.1c0,0.6,0,1.3,0,1.9c0,2.3,0.2,4.5,0.6,6.6
		c0.8-0.5,1.8-0.3,2.4,0.5c0.7,0.8,0.5,2-0.3,2.7c-0.1,0.1-0.3,0.4-0.6,0.8c-0.1,0.2-0.3,0.3-0.4,0.5c1.3,3.7,3.1,7,5.3,9.8
		c1-0.8,2-1.6,3-2.3c-0.3-0.4-0.6-0.9-1-1.3c-0.3,0.4-0.7,0.7-1.2,0.8c-1,0.2-2-0.5-2.2-1.5c-0.1-0.4-0.1-0.7-0.1-1.1
		c0-1.1,0.4-2.1,1-2.8c-1.7-3.7-2.8-7.9-2.8-12.6c0-0.8,0-1.6,0-2.3c0-0.7,0-1.5,0-2.2c0-11.5,7.7-18.5,15.5-19.2
		c1.1-1,2.2-1.8,3.6-2.6c0.9-0.5,2.1-0.2,2.6,0.7c0.5,0.9,0.2,2-0.6,2.5c0.6,0.2,1.3,0.5,1.9,0.8c4.7,2.3,8.8,6.2,11.8,11.3
		c4.2,6.9,6.3,14.3,6.3,21.2c0,3.2-0.6,7.7-2.3,11.7c0.4-0.1,0.9-0.1,1.3,0.1c0.9,0.5,1.3,1.6,0.9,2.6c-1.5,3-3.6,4.4-6.4,4.4
		c-0.3,0-0.7,0-1-0.1c-1.9,1.3-4.2,2.1-7,2.1c-2.7,0-7.5-1.7-12.3-5.1c-0.9,0.6-1.9,1-3.2,1c-0.5,0-0.9-0.1-1.4-0.3
		c-0.9-0.5-1.3-1.6-0.9-2.6c0.4-0.7,1.1-1.1,1.8-1c-0.6-0.5-1.2-1.1-1.7-1.7c-1,0.7-2.1,1.5-3.1,2.3c6.9,7.3,15.7,11.2,20.6,11.2
		c12.7,0,18.5-12.8,18.5-24.7c0-1.4-0.1-2.9-0.3-4.4c-1-0.4-2.1-0.8-3.1-1.3c-1-0.4-1.4-1.5-1-2.5c0.4-1,1.5-1.4,2.5-1
		c0.3,0.1,0.6,0.3,0.9,0.4c-1.1-4.8-3.1-9.7-5.9-14.4c-1.2-2-2.6-3.9-4.1-5.5c-0.1,0.2-0.2,0.3-0.3,0.5
		C384.5,212.9,383.9,213.2,383.3,213.2z"/>
	<path fill="#525D7D" d="M360.5,222.5c0,8,3.1,17.1,8.6,24.8c5,7,10.7,11.4,15.6,12c0.3,0,0.7,0.1,1,0.1c2.8,0,5-1.5,6.4-4.4
		c0.5-0.9,0.1-2.1-0.9-2.6c-0.4-0.2-0.9-0.2-1.3-0.1c-0.5,0.1-1,0.5-1.3,1c-1,1.9-1.9,2.3-3,2.3c-7.5,0-21.4-17-21.4-33.1
		c0-4.9,1.4-11.5,7.8-15.1c0,0,0.1-0.1,0.1-0.1c0.8-0.5,1.1-1.6,0.6-2.5c-0.5-0.9-1.7-1.2-2.6-0.7c-1.3,0.7-2.5,1.6-3.6,2.6
		C362.6,210.4,360.5,215.8,360.5,222.5z"/>
	<path fill="#525D7D" d="M247.3,219.7c0.4,0,0.7-0.1,1-0.3c0.9-0.6,1.1-1.7,0.6-2.6c-0.4-0.6-0.7-1.2-1-1.8c-1.5-3-2.3-6.3-2.3-9.7
		c0-7.4,2.5-12.8,7.8-16.8c0.6-0.5,1.2-0.9,1.9-1.3c0.9-0.6,1.2-1.7,0.6-2.6c-0.6-0.9-1.7-1.2-2.6-0.6c-0.4,0.3-0.9,0.6-1.3,0.9
		c-6.9,4.8-10.3,11.5-10.3,20.5c0,4.5,1.2,8.8,3.4,12.6c0.2,0.3,0.4,0.6,0.5,0.9C246,219.4,246.6,219.7,247.3,219.7z"/>
	<path fill="#525D7D" d="M375,185.4c-0.6,0.9-0.4,2,0.5,2.7c0.6,0.4,1.1,0.9,1.7,1.4c4,3.6,6.6,9,6.6,13.9c0,2.1-0.5,4.1-1.4,5.8
		c-0.2,0.4-0.4,0.8-0.6,1.2c-0.6,0.9-0.3,2.1,0.6,2.6c0.3,0.2,0.7,0.3,1,0.3c0.6,0,1.2-0.3,1.6-0.9c0.1-0.2,0.2-0.3,0.3-0.5
		c1.6-2.6,2.4-5.5,2.4-8.6c0-6.6-3.6-13.5-9.2-17.8c-0.2-0.2-0.5-0.4-0.7-0.5C376.8,184.3,375.6,184.5,375,185.4z"/>
	<path fill="#525D7D" d="M296,240.6c4.6,4.8,5.2,5.3,10.3,5.3c1.6,0,3.2-0.2,4.7-0.6c1-0.3,1.6-1.3,1.3-2.4c-0.3-1-1.3-1.6-2.4-1.3
		c-1.2,0.3-2.4,0.5-3.7,0.5c-3.6,0-3.6,0-7.5-4.1c-2.4-2.4-5.9-6.1-12-11.8c0,0-0.1,0-0.1-0.1c-0.8-0.6-1.9-0.6-2.6,0.2
		c-0.7,0.8-0.7,2,0.1,2.7c0.7,0.7,1.4,1.3,2.1,2C291,235.4,294,238.5,296,240.6z"/>
	<path fill="#525D7D" d="M338,234.9c-0.7,1.2-1.5,2.4-2.3,3.6c-0.6,0.9-0.3,2.1,0.5,2.6c0.3,0.2,0.7,0.3,1.1,0.3
		c0.6,0,1.2-0.3,1.6-0.8c0.8-1.2,1.6-2.5,2.3-3.7c1.9-3.1,3.7-6,6.2-8.4c0.4-0.4,0.7-0.7,1.1-1.1c0.8-0.7,0.9-1.9,0.2-2.7
		c-0.3-0.4-0.8-0.6-1.3-0.7c-0.5,0-1,0.1-1.4,0.5C342.6,227.6,340.3,231.3,338,234.9z"/>
	<path fill="#525D7D" d="M314.6,258.8c14.1,0,25.8-5.9,34.7-17.4c0.1-0.2,0.3-0.3,0.4-0.5c0.3-0.4,0.5-0.7,0.6-0.8
		c0.8-0.7,1-1.9,0.3-2.7c-0.6-0.7-1.6-0.9-2.4-0.5c-0.1,0-0.2,0.1-0.2,0.2c-0.3,0.3-0.6,0.7-1.2,1.4c-3.1,4-12.4,16.4-32.1,16.4
		c-12.4,0-23.9-5.7-30.6-15.1c0,0,0-0.1-0.1-0.1c-0.6-0.9-1.8-1.1-2.7-0.5c-0.9,0.6-1.1,1.8-0.5,2.7c0.5,0.7,1,1.3,1.5,2
		C289.9,253.2,301.7,258.8,314.6,258.8z"/>
	<path fill="#525D7D" d="M273.2,251.8c-0.1,0-0.1-0.1-0.2-0.1c-0.8-0.2-1.6,0.1-2.1,0.7c-0.6,0-2.2,0-2.2-2.6c0-2,2.7-5.1,5-5.1
		c1.7,0,2.6,0.8,3.1,1.6c0.3,0.4,0.4,0.8,0.4,1.1c0,0,0,0.1-0.1,0.3c-0.5,0.9-0.2,2.1,0.7,2.6c0.3,0.2,0.6,0.3,0.9,0.3
		c0.7,0,1.3-0.3,1.7-0.9c0.4-0.7,0.6-1.5,0.6-2.2c0-0.2,0-0.4-0.1-0.6c-0.2-1.3-1-2.8-2.3-4c-1.2-1.1-2.9-1.8-5-1.8
		c-4.6,0-8.8,5-8.8,8.9c0,3.1,1.5,5.2,3.9,6c0.6,0.2,1.3,0.3,2.1,0.3c1.3,0,2.4-0.6,3.2-1.6c0.5-0.6,0.5-1.5,0-2.1
		c-0.1-0.1-0.2-0.2-0.3-0.3C273.6,252.1,273.4,251.9,273.2,251.8z"/>
	<path fill="#525D7D" d="M278.5,258.7c0,1.8-0.6,3.9-1.1,6.2c-0.6,2.5-1.3,5.1-1.3,7.6c0,3.7,1.4,6.6,4.4,8.9
		c0.3,0.3,0.8,0.4,1.2,0.4c0.6,0,1.1-0.3,1.5-0.7c0.6-0.8,0.5-2-0.3-2.7c-2-1.6-3-3.4-3-5.9c0-2,0.6-4.3,1.2-6.6
		c0.6-2.4,1.3-4.9,1.3-7.1c0-3.4-1.9-5.8-4.1-7.7c-0.7-0.6-1.4-1.2-2.1-1.7c-0.3-0.2-0.6-0.5-0.9-0.7c-0.6-0.5-1.2-1-1.7-1.5
		c-0.7-0.7-1.9-0.7-2.7,0c-0.7,0.7-0.7,1.9,0,2.7c0.7,0.7,1.4,1.3,2.1,1.9c0.1,0,0.1,0.1,0.2,0.1c0.2,0.2,0.4,0.3,0.6,0.5
		c0.1,0.1,0.2,0.2,0.3,0.3c0.6,0.5,1.2,1,1.8,1.5C277.4,255.5,278.5,256.9,278.5,258.7z"/>
	<path fill="#525D7D" d="M356.9,246.2c0-0.1,0-0.2,0-0.3c0-0.9,1.6-1.3,2.5-1.3c2.7,0,5.5,3.6,5.5,6.1c0,0.6-1.1,2.8-2.5,3
		c-0.2-0.1-0.3-0.1-0.5-0.1c-0.7,0-1.5,0.3-1.8,1c-0.5,0.9-0.1,2.1,0.9,2.6c0.4,0.2,0.9,0.3,1.4,0.3c1.2,0,2.3-0.4,3.2-1
		c2.2-1.5,3.3-4.3,3.3-5.7c0-4.5-4.3-9.9-9.3-9.9c-2,0-4.1,0.8-5.3,2.3c-0.6,0.8-1,1.7-1,2.8c0,0.3,0,0.7,0.1,1.1
		c0.2,1,1.2,1.7,2.2,1.5c0.5-0.1,0.9-0.4,1.2-0.8C356.9,247.2,357,246.7,356.9,246.2z"/>
	<path fill="#525D7D" d="M349.4,259.7c0,1.6,0.6,2.9,1.2,4c0.6,1.2,1.2,2.3,1.2,4.3c0,2.6-1.3,4.8-3.8,6.2c-0.9,0.5-1.2,1.7-0.7,2.6
		c0.4,0.6,1,0.9,1.6,0.9c0.3,0,0.7-0.1,1-0.3c3.6-2.1,5.6-5.6,5.6-9.5c0-2.9-0.9-4.6-1.6-6c-0.5-1-0.8-1.6-0.8-2.3
		c0-1.9,1.8-3.9,3.8-5.6c1-0.8,2.1-1.6,3.1-2.3c0.6-0.4,1.2-0.8,1.7-1.2c0.9-0.6,1.1-1.8,0.5-2.6c-0.6-0.9-1.8-1.1-2.6-0.5
		c-0.7,0.4-1.4,0.9-2.1,1.4c-1,0.7-2.1,1.5-3,2.3C351.8,253.6,349.4,256.4,349.4,259.7z"/>
	<path fill="#525D7D" d="M420.4,412.1c0-0.1-0.1-0.1-0.1-0.2c0,3.2,0,6.4,0,9.7l0,4.8c0,3.8-2.5,7.1-6,8.3c0.2,0.1,0.4,0.3,0.6,0.4
		c0.7,0.8,1.3,1.8,1.7,2.8c4.5-2,7.6-6.5,7.5-11.6l0-4.8c0-3.2,0-6.4,0-9.6c-0.4,0.2-0.7,0.5-1.1,0.7
		C422.1,413.2,421,413,420.4,412.1z"/>
	<path fill="#525D7D" d="M185.6,424.2c0.1,1-0.7,2-1.7,2.1c-0.2,0-0.4,0-0.6,0c0.2,1,0.3,1.9,0.5,2.9l0.9,5.7
		c0.9,5.6,5.7,9.8,11.3,10.2c0.2-0.6,0.4-1.1,0.6-1.7c0.4-1,1.5-1.5,2.5-1.1c1,0.4,1.4,1.5,1.1,2.5c0,0.1,0,0.1-0.1,0.2
		c7.2-0.3,13.3-1,20.3-1.8c14.6-1.6,32.8-3.7,73.2-3.7c12.8,0,25.8,0.1,38.4,0.2c12.6,0.1,25.6,0.2,38.4,0.2h2.3
		c16.7,0,27.7,0,40-1.1c0.1,0,0.1,0,0.2,0c-0.2-0.4-0.5-0.9-0.8-1.3c-0.6-0.7-0.6-1.8,0-2.5c-12,1.1-22.9,1.1-39.4,1.1h-2.3
		c-12.8,0-25.8-0.1-38.4-0.2c-12.6-0.1-25.6-0.2-38.5-0.2c-40.5,0-58.9,2-73.6,3.7c-7.8,0.9-14.5,1.6-23,1.9c-4.2,0.1-7.8-2.9-8.4-7
		l-0.9-5.7c-6.6-40.1-13.3-81.6-15.5-122c-0.4-6.6,4.5-12.3,11-12.9c65.5-6.6,166.9-12,182.3-12c10,0,20.2,0.3,30.1,0.6
		c4.3,0.1,8.5,0.3,12.8,0.4c4,0.1,7.6,1.8,10.3,4.6c2.7,2.9,4.1,6.6,3.9,10.6c-0.9,22-2.3,64.2-2.3,99.3c0,4.3,0,8.6,0,12.8
		c0.1-0.3,0.4-0.6,0.7-0.8c1.1-0.7,2.1-1.4,3.1-2.2c0-3.3,0-6.6,0-9.9c0-35,1.5-77.2,2.3-99.2c0.2-5-1.6-9.7-5-13.4
		c-3.4-3.6-8-5.7-13-5.8c-4.3-0.1-8.5-0.2-12.8-0.4c-9.9-0.3-20.1-0.6-30.2-0.6c-15.5,0-117.1,5.4-182.7,12
		c-8.6,0.9-14.9,8.3-14.4,16.9c1.8,33.3,6.7,67.3,12,100.7c1,0.4,2,0.7,3,1.1c1,0.4,1.5,1.4,1.1,2.4c-0.3,0.8-1,1.3-1.8,1.3
		c-0.2,0-0.4,0-0.6-0.1c-0.3-0.1-0.7-0.3-1.1-0.4c0.6,3.6,1.2,7.2,1.7,10.7c0.3,0,0.6,0,0.9-0.1
		C184.6,422.4,185.5,423.2,185.6,424.2z"/>
	<path fill="#525D7D" d="M414.3,434.7c-0.7-0.3-1.5-0.3-2.1,0.3c-0.1,0.1-0.1,0.1-0.2,0.2c-0.6,0.7-0.6,1.8,0,2.5
		c0.3,0.4,0.6,0.8,0.8,1.3c0.4,0.7,0.6,1.6,0.6,2.4c0,2-1.1,4.3-3.3,4.5c-1.6,0.1-14.5,1-125.6,8.6c-39.2,2.7-72.9,5-74.6,5.1
		c-6.4,0-10.9-4.1-10.9-9.9c0-1.5,0.3-3.1,0.9-4.6c0-0.1,0-0.1,0.1-0.2c0.4-1-0.1-2.1-1.1-2.5c-1-0.4-2.1,0.1-2.5,1.1
		c-0.2,0.6-0.4,1.1-0.6,1.7c-0.5,1.5-0.7,3.1-0.7,4.6c0,7.9,6.2,13.7,14.8,13.7c0,0,0.1,0,27.9-1.9c-0.1-0.1-0.2-0.2-0.3-0.3
		c-0.7-0.8-0.7-2,0-2.7c0.8-0.7,2-0.7,2.7,0c0.9,0.9,1.8,1.8,2.6,2.6c3.9-0.3,8.3-0.6,13.2-0.9c0.6-0.9,1.7-1.2,2.6-0.7
		c0.2,0.1,0.4,0.3,0.7,0.4c7.3-0.5,15.7-1.1,25.3-1.7c32-2.2,67.7-4.6,92.9-6.4c0.5-0.8,0.9-1.6,1.4-2.6c0.4-1,1.6-1.4,2.5-0.9
		c1,0.4,1.4,1.6,0.9,2.5c-0.1,0.2-0.2,0.4-0.3,0.7c17-1.2,28.2-1.9,28.3-1.9c3.8-0.4,6.6-4,6.6-8.3c0-1.2-0.2-2.3-0.6-3.4
		c-0.4-1-0.9-1.9-1.7-2.8C414.7,435,414.5,434.8,414.3,434.7z"/>
	<path fill="#525D7D" d="M182.7,412.4c0.8,0,1.5-0.5,1.8-1.3c0.4-1-0.2-2.1-1.1-2.4c-1-0.4-2-0.7-3-1.1c-24.7-9.1-50-20.9-50-42.4
		c0-8.6,29.2-131.7,99.7-131.7c2.1,0,4.1,0.1,6.2,0.3c0.4,0,0.8,0.1,1.1,0.1c1,0.1,2-0.6,2.1-1.7c0.1-1-0.6-2-1.7-2.1
		c-0.1,0-0.2,0-0.3,0c-2.5-0.3-5-0.4-7.5-0.4c-38.5,0-64.5,35-79.4,64.4c-16.6,32.6-24.1,66.3-24.1,71.2c0,24.5,27.9,37,54.5,46.7
		c0.4,0.1,0.7,0.3,1.1,0.4C182.2,412.3,182.4,412.4,182.7,412.4z"/>
	<path fill="#525D7D" d="M391.7,232.4c-0.4,1,0,2.1,1,2.5c1.1,0.5,2.1,0.9,3.1,1.3c2.6,1,5,1.9,7.3,2.8
		c23.7,8.9,36.8,13.8,70.4,105.8c2.4,6.5,3.5,12.1,3.5,17.1c0,12.2-6.8,18.2-17.3,25.8c1.3-0.1,2.6-0.2,4-0.2c0.5,0,1,0,1.5,0
		c0.4,0,0.7,0,1.1,0c7.5-5.8,14.4-13,14.4-25.6c0-5.5-1.2-11.5-3.8-18.4c-34.3-93.6-47.9-98.7-72.7-108.1c-3-1.1-6.1-2.3-9.4-3.7
		c-0.3-0.1-0.6-0.2-0.9-0.4C393.3,231,392.1,231.5,391.7,232.4z"/>
	<path fill="#525D7D" d="M298.8,507.7C298.8,507.7,298.8,507.7,298.8,507.7C298.8,507.7,298.8,507.7,298.8,507.7z"/>
	<path fill="#525D7D" d="M320.8,495.1c-0.3,0.2-0.7,0.3-1.1,0.3c-0.6,0-1.2-0.3-1.6-0.8c-0.3-0.5-0.5-0.9-0.7-1.4
		c-1.6,1.4-2.9,2.6-3.8,3.4c-1.6,1.4-2.6,2.4-3,2.6c-1.2,0.1-3,0.2-11.5,4.6c0.4,0.1,0.9,0.2,1.5,0.2c1.1,0,2.3-0.2,3.6-0.4
		c1.4-0.2,2.8-0.5,4.2-0.5c0.4,0,0.9,0,1.3,0.1c0.6-0.2,1-0.2,1.2-0.2c1.4-0.1,1.6-0.3,5.3-3.6c1.2-1.1,2.8-2.5,5.1-4.5
		c0,0-0.1-0.1-0.1-0.1C321.1,494.9,320.9,495,320.8,495.1z"/>
	<path fill="#525D7D" d="M381.7,448.4c-1-0.4-2.1,0-2.5,0.9c-0.4,0.9-0.9,1.8-1.4,2.6c-2.5,4.2-5.6,6.6-9.1,7
		c-14.6,1.6-23.3,11.9-25.7,15.1c-0.5-0.1-0.9-0.1-1.4-0.1c-1.2,0-2.1,0.3-2.8,0.9c-8.2,6.9-13.9,11.9-18.1,15.6c0,0.1,0,0.1,0,0.1
		c0.8-0.5,1.9-0.4,2.5,0.4c0.2,0.3,0.6,0.8,1,1.5c4-3.5,9.5-8.3,17-14.6c0,0,0.1,0,0.4,0c0.3,0,0.6,0,1,0.1c0.5,0.1,0.9,0.1,1.3,0.1
		c0.6,0,1.2-0.3,1.6-0.9c0.1-0.1,8.4-12.7,23.6-14.3c5.5-0.6,9.9-4.3,13.2-11.1c0.1-0.2,0.2-0.4,0.3-0.7
		C383,450,382.6,448.8,381.7,448.4z"/>
	<path fill="#525D7D" d="M497.8,419.8c0-11.2-2.8-19.6-8.2-25c-7.1-7-17-7.3-23-7.2c-0.4,0-0.8,0-1.1,0c-0.6,0-1.1,0-1.5,0
		c-1.4,0-2.7,0.1-4,0.2c-13.3,1-20.7,7.2-28.5,13.7c-2.3,1.9-4.7,3.9-7.2,5.8c-1,0.7-2,1.5-3.1,2.2c-0.3,0.2-0.5,0.5-0.7,0.8
		c-0.3,0.5-0.3,1.1,0,1.7c0,0.1,0.1,0.1,0.1,0.2c0.6,0.9,1.8,1.1,2.6,0.5c0.4-0.2,0.7-0.5,1.1-0.7c3.6-2.4,6.7-5,9.7-7.5
		c8.3-7,15.6-13,30.1-13c0.5,0,1,0,1.6,0c5.6-0.1,15-0.2,21.4,6.1c4.7,4.6,7.1,12.1,7.1,22.3c0,25.9-40.6,66.6-64.6,86.6
		c-0.8,0.7-0.9,1.9-0.2,2.7c0.4,0.5,0.9,0.7,1.5,0.7c0.4,0,0.9-0.1,1.2-0.4C434.5,507.1,497.8,453.9,497.8,419.8z"/>
	<path fill="#525D7D" d="M302.7,554.9c0.2-1,1.1-1.8,2.2-1.6c0.3,0,0.6,0.1,0.9,0.1c1.4-3.6,2-8.1,2.7-13.2
		c0.4-3.5,0.9-7.5,1.8-11.8c0.4-2.3,1.4-4.6,2.3-6.8c0.5-1.1,0.9-2.3,1.3-3.5c-0.4-0.1-0.7-0.2-1.1-0.3c-1-0.2-1.6-1.3-1.4-2.3
		c0.2-1,1.3-1.6,2.3-1.4c0.4,0.1,0.8,0.2,1.2,0.3c0.2-1,0.3-2.1,0.3-3.1c0-6.1-3-7.8-5.5-8.2c-0.5-0.1-0.9-0.1-1.3-0.1
		c-1.4,0-2.8,0.3-4.2,0.5c-1.3,0.2-2.5,0.4-3.6,0.4c-0.6,0-1.1-0.1-1.5-0.2c-0.7-0.2-1-0.6-1-0.8c0-0.6,0.5-1.7,1-2.7
		c0.8-1.6,1.6-3.5,1.6-5.5c0-0.6-0.3-1.1-0.7-1.5c-0.4-0.4-1-0.5-1.6-0.4c-0.2,0-19.6,3.5-55.4-31.9c-0.9-0.9-1.7-1.7-2.6-2.6
		c-0.7-0.7-1.9-0.8-2.7,0c-0.8,0.7-0.8,1.9,0,2.7c0.1,0.1,0.2,0.2,0.3,0.3c31.3,31.9,51.4,35.4,58.4,35.5c-0.2,0.6-0.5,1.2-0.8,1.8
		c-0.7,1.5-1.3,2.8-1.3,4.3c0,2,1.6,4,4.5,4.6c0.6,0.1,1.1,0.2,1.8,0.2c1.4,0,2.9-0.3,4.3-0.5c1.3-0.2,2.5-0.4,3.5-0.4
		c1.1,0,3,0,3,4.5c0,2.9-1.2,5.8-2.4,8.9c-1,2.4-2,4.9-2.5,7.5c-0.9,4.4-1.4,8.5-1.8,12c-1.6,12.9-2.4,18.7-15,18.7
		c-38.6,0-85.8-25.5-114-40.7c-7.2-3.9-13.4-7.3-17.8-9.3c-2.4-1.1-4.2-3.8-6-6.5c-2.3-3.4-4.4-6.6-7.8-6.6c-1.8,0-3.4,0.9-5,1.7
		c-1.2,0.6-2.5,1.3-3.4,1.3c-1.3,0-1.7-0.5-2.1-4.2c-0.3-2.5-0.7-6.2-4.4-6.2c-1.7,0-2.9,1.1-4.1,2c-0.5,0.4-1.2,1-1.6,1.1
		c-3.4-1.3-26.3-21.3-26.3-48c0-10.8,2.6-28.9,20.1-28.9c4.9,0,23.6,4.1,38.6,7.4c13.8,3,22.4,4.9,24.6,4.9c0.9,0,1.8-0.1,2.8-0.1
		c0.2,0,0.4,0,0.6,0c1-0.1,1.8-1,1.7-2.1c-0.1-1-1-1.8-2.1-1.7c-0.3,0-0.6,0-0.9,0.1c-0.8,0.1-1.5,0.1-2.2,0.1
		c-2,0-13.1-2.4-23.8-4.8c-16-3.5-34.1-7.5-39.4-7.5c-15.2,0-23.9,11.9-23.9,32.7c0,28.4,25.5,51.8,30,51.8c1.6,0,2.9-1.1,4.1-2
		c0.5-0.4,1.4-1.1,1.7-1.2c0.3,0.3,0.5,1.9,0.6,2.9c0.3,2.8,0.8,7.6,5.9,7.6c1.9,0,3.6-0.9,5.2-1.7c1.2-0.6,2.4-1.2,3.2-1.2
		c1.4,0,3.1,2.5,4.7,4.9c2,3,4.2,6.3,7.6,7.8c4.3,2,10.5,5.3,17.6,9.2c3.9,2.1,8.3,4.5,12.9,6.9c0.1-1.1,1-1.9,2-1.8
		c1,0.1,1.8,1,1.8,2c0,0.6-0.1,1.2-0.1,1.7c2.5,1.3,5,2.6,7.6,3.9c0-0.2,0-0.3,0-0.5c0.1-1,1.1-1.8,2.1-1.7c1,0.1,1.8,1.1,1.7,2.1
		c-0.1,0.6-0.1,1.2-0.1,1.9c17.7,8.8,38,17.6,58,22.5c0.3-0.2,0.5-0.4,0.7-0.6c0.8-0.7,2-0.7,2.7,0.1c0.4,0.4,0.5,0.9,0.5,1.4
		c8.9,2,17.7,3.2,26.1,3.2c7.4,0,11.7-2,14.2-5.4C303.1,556.6,302.6,555.8,302.7,554.9z"/>
	<path fill="#525D7D" d="M256.9,462.8c2,1.2,4,2.7,6.3,4.4c5.9,4.4,12.6,9.4,19.8,9.4c2.6,0,4.9-0.9,7.1-1.7c2-0.8,3.8-1.5,5.7-1.5
		c0.3,0,0.5,0.1,0.5,0c0,0,0,0.1,0,0.1c0,0.6-0.1,1.2-0.1,1.8c0,8.6,3.9,13.7,10.4,13.7c1.4,0,2.7-0.3,4-0.5
		c1.1-0.2,2.1-0.4,3.1-0.4c2.7,0,2.9,0.8,3.3,3.1c0.1,0.6,0.3,1.3,0.5,2c0.2,0.5,0.4,1,0.7,1.4c0.4,0.5,1,0.8,1.6,0.8
		c0.4,0,0.7-0.1,1.1-0.3c0.1-0.1,0.3-0.2,0.4-0.3c-0.4-0.7-0.7-1.3-0.9-1.5c-0.7-0.8-0.6-2,0.3-2.7c0.1,0,0.1-0.1,0.2-0.1
		c0,0,0-0.1,0-0.1c-0.5-2.3-1.3-6.1-7.1-6.1c-1.3,0-2.6,0.3-3.8,0.5c-1.1,0.2-2.2,0.4-3.2,0.4c-5.5,0-6.6-5.4-6.6-9.9
		c0-0.5,0-1.1,0-1.6c0,0,0-0.1,0-0.2c0-2.4-1.7-4-4.3-4c-2.5,0-4.8,0.9-7,1.7c-2,0.8-3.9,1.5-5.7,1.5c-5.9,0-11.8-4.4-17.5-8.6
		c-2-1.5-4-2.9-5.9-4.1c-0.2-0.1-0.4-0.3-0.7-0.4c-0.9-0.5-2.1-0.3-2.6,0.6C255.7,461.1,256,462.2,256.9,462.8z"/>
	<path fill="#525D7D" d="M335.7,520.5c-0.2,0.1-0.5,0.2-0.7,0.2c-0.7,0-1.4-0.4-1.7-1.2c-0.1-0.2-0.4-0.8-0.7-1.6
		c-6.1-0.6-12.1-2-17.7-3.4c-0.4-0.1-0.8-0.2-1.2-0.3c-1-0.2-2,0.4-2.3,1.4c-0.2,1,0.4,2,1.4,2.3c0.4,0.1,0.7,0.2,1.1,0.3
		c7.7,1.9,16.3,3.8,25,3.9c-0.1-0.5-0.1-1,0.2-1.5c0.5-0.9,1.7-1.2,2.6-0.6c0.9,0.5,1.7,1.1,2.4,1.8c8.5-1,22.6-3.7,36.2-6.4
		c8.5-1.7,16.7-3.3,22.8-4.3c-1-0.5-1.5-1.6-1-2.5c0.4-1,1.5-1.4,2.5-1c1.6,0.7,3.1,1.6,4.4,2.7c1-0.1,1.9-0.2,2.5-0.2
		c11.6,0,14.1,18.2,14.1,25.2c0,19.8-6.3,23.6-25,24.2c-1.1,0.6-2.2,1.2-3.3,1.8c-0.4,0.2-0.7,0.4-0.9,0.5c-0.3,0.2-0.7,0.3-1,0.3
		c-0.6,0-1.2-0.3-1.6-0.8c-0.3-0.5-0.4-1.1-0.2-1.6c-0.3,0-0.6,0-0.9,0c-7.1,0-17.5-0.8-20.9-1.1c-0.7-0.1-1.2-0.1-1.2-0.1
		c-4.8,0-7.1,1.4-8.8,2.3c-1.1,0.6-1.7,1-2.8,1c-2,0-3.9-1.3-5.9-2.8c-1.6-1.1-3.4-2.4-5.4-3c-0.4,0.6-0.9,1.2-1.4,1.5
		c-0.3,0.3-0.7,0.4-1.1,0.4c-0.6,0-1.1-0.3-1.5-0.8c-0.4-0.5-0.5-1.2-0.3-1.7c-4.9-0.3-9.7-0.4-14.4-0.5c-8-0.1-15.5-0.3-23.2-1.4
		c-0.3,0-0.6-0.1-0.9-0.1c-1-0.2-2,0.6-2.2,1.6c-0.1,0.9,0.3,1.7,1.1,2c0.2,0.1,0.3,0.1,0.5,0.2c8.2,1.3,16.5,1.4,24.5,1.5
		c5.3,0.1,10.7,0.2,16.1,0.6c2,0.1,3.9,1.5,5.8,2.8c2.4,1.7,4.9,3.5,8.1,3.5c2.1,0,3.4-0.8,4.7-1.5c1.5-0.9,3.1-1.8,6.8-1.8
		c0.1,0,0.5,0,1,0.1c3.5,0.3,14,1.1,21.2,1.1c23.5,0,36.7-1.3,36.7-28.1c0-10-3.7-29-17.9-29c-4.5,0-17.2,2.5-31.9,5.4
		c-15.9,3.1-33.9,6.7-40.5,6.7c-0.8,0-1.5,0-2.3-0.1C337.1,519.1,336.6,520.1,335.7,520.5z"/>
	<path fill="#525D7D" d="M339.6,523.2c5.1,3.1,8.2,9.6,8.2,17.4c0,6.3-2.5,12.7-3.8,13.7c-0.3,0.2-0.5,0.6-0.7,0.9
		c-0.2,0.6-0.1,1.2,0.3,1.7c0.4,0.5,0.9,0.8,1.5,0.8c0.4,0,0.8-0.1,1.1-0.4c0.5-0.3,0.9-0.9,1.4-1.5c2.2-3.2,4-9.7,4-15.3
		c0-7.9-2.8-14.7-7.6-18.8c-0.8-0.7-1.6-1.3-2.4-1.8c-0.9-0.5-2.1-0.3-2.6,0.6c-0.3,0.5-0.3,1-0.2,1.5
		C338.9,522.5,339.2,522.9,339.6,523.2z"/>
	<path fill="#525D7D" d="M414,531.1c0,17.6-13.9,24.4-18.5,26.6c-0.7,0.4-1.1,0.5-1.4,0.8c-0.3,0.2-0.6,0.6-0.7,1
		c-0.2,0.5-0.1,1.1,0.2,1.6c0.4,0.5,1,0.8,1.6,0.8c0.4,0,0.7-0.1,1-0.3c0.2-0.1,0.5-0.3,0.9-0.5c1.2-0.6,2.3-1.2,3.3-1.8
		c11.5-6.6,17.3-16.1,17.3-28.2c0-7.2-2.4-15.8-8.9-21c-1.3-1-2.7-1.9-4.4-2.7c-1-0.4-2.1,0-2.5,1c-0.4,1,0,2.1,1,2.5
		C411.1,514.6,414,523.7,414,531.1z"/>
	<path fill="#525D7D" d="M320.7,490.5c-0.1,0-0.1,0.1-0.2,0.1c-0.8,0.7-0.9,1.9-0.3,2.7c0.2,0.2,0.5,0.7,0.9,1.5
		c0,0,0.1,0.1,0.1,0.1c2.6,4.8,9.1,18.3,11.3,23c0.4,0.8,0.6,1.3,0.7,1.6c0.3,0.7,1,1.2,1.7,1.2c0.3,0,0.5,0,0.7-0.2
		c0.9-0.4,1.3-1.4,1.1-2.3c0-0.1,0-0.2-0.1-0.2c-0.1-0.2-9.2-19.7-12.6-25.6c-0.4-0.7-0.7-1.2-1-1.5
		C322.6,490.1,321.5,490,320.7,490.5z"/>
	<path fill="#525D7D" d="M263.1,557.7c-0.7-0.8-1.9-0.8-2.7-0.1c-0.2,0.2-0.5,0.4-0.7,0.6c-1.4,1-3,1.5-5.1,1.5
		c-1.5,0-3.1-0.2-4.9-0.5c-1.8-0.3-3.6-0.5-5.5-0.5c-0.2,0-0.5,0-2.2,0.2c-3.8,0.4-12.8,1.3-18.4,1.3c-5.4,0-10.1-0.6-14.2-1.6
		c0,0.6-0.2,1.2-0.7,1.5c-0.3,0.3-0.7,0.4-1.2,0.4c-0.6,0-1.1-0.3-1.5-0.7c-0.8-1-1.5-2.1-2.2-3.2c-9-4.3-13.4-12.4-13.4-24.4
		c0-0.7,0-1.5,0-2.2c0-0.6,0.1-1.1,0.1-1.7c0.1-1-0.7-2-1.8-2c-1-0.1-2,0.7-2,1.8c-0.1,1.5-0.1,2.9-0.1,4.2
		c0,21.2,12.5,31.9,37,31.9c5.8,0,14.9-1,18.8-1.4c1-0.1,1.6-0.2,1.8-0.2c1.6,0,3.2,0.2,5,0.5c1.8,0.3,3.6,0.5,5.4,0.5
		c3.5,0,6.2-1,8.5-3.1c0.4-0.3,0.5-0.8,0.6-1.2C263.6,558.6,263.4,558.1,263.1,557.7z"/>
	<path fill="#525D7D" d="M203.7,556.6c0.7,1.1,1.4,2.2,2.2,3.2c0.4,0.5,0.9,0.7,1.5,0.7c0.4,0,0.8-0.1,1.2-0.4
		c0.5-0.4,0.8-1,0.7-1.5c0-0.4-0.1-0.8-0.4-1.1c-4.7-6.2-7.4-13.5-7.4-20.5c0-0.4,0-0.9,0-1.3c0-0.6,0.1-1.3,0.1-1.9
		c0.1-1-0.6-2-1.7-2.1c-1-0.1-2,0.6-2.1,1.7c0,0.2,0,0.3,0,0.5c-0.1,1.1-0.2,2.1-0.2,3.2C197.8,543.6,199.9,550.5,203.7,556.6z"/>
</g>
</svg>
