<svg viewBox="0 0 100 100" xmlns="http://www.w3.org/2000/svg" class="hide"><defs><linearGradient id="svgstore58977f6f1c0b198007a2fce35ab67093a" gradientUnits="userSpaceOnUse" x1="206.731" y1="221.727" x2="-1.028" y2="31.393"><stop offset="0" stop-color="#49C1F0"/><stop offset="1" stop-color="#74B737"/></linearGradient><linearGradient id="svgstore58977f6f1c0b198007a2fce35ab67093b" gradientUnits="userSpaceOnUse" x1="213.577" y1="184.298" x2="12.329" y2="-.072"><stop offset="0" stop-color="#49C1F0"/><stop offset="1" stop-color="#74B737"/></linearGradient><linearGradient id="svgstore58977f6f1c0b198007a2fce35ab67093c" gradientUnits="userSpaceOnUse" x1="242.991" y1="115.523" x2="67.21" y2="-45.514"><stop offset="0" stop-color="#49C1F0"/><stop offset="1" stop-color="#74B737"/></linearGradient></defs><symbol viewBox="0 0 100 100" id="icon__design"><title>design</title><path d="M95 86.6l-10.2-18.8c-.4-.6-1.1-1.1-1.8-1.1h-26.9l.1-.5v-5.3h28c1.2 0 2.1-.9 2.1-2.1v-46.7c0-1.2-.9-2.1-2.1-2.1h-68.4c-1.2 0-2.1.9-2.1 2.1v46.7c0 1.2.9 2.1 2.1 2.1h28v5.3999999999999995c0 .2 0 .3.1.5h-29c-.8 0-1.5.5-1.9 1.3l-8.3 19c-.3.6-.2 1.4.2 1.9s1 .9 1.7.9h86.7c1.2 0 2.1-.9 2.1-2.1 0-.4-.1-.9-.4-1.2zm-8.6-7.1h-8.5l-.2-1-.5-2.6h7.5l1.7 3.6zm-60.2-3.7h10.6l-.3 2.7-.1.9h-11.1l.1-.5.8-3.1zm11.1-5l-.3 2.9h-10.4l.6-2.9h10.1zm25.2 8l.1.6h-11.1v-3.5999999999999996h10.7l.3 3zm-13-.1v.8h-11.1l.1-.6.4-2.9h10.7l-.1 2.7zm-13.3 2.8l-.5 4.3h-11.7l.9-4.3h11.3zm2.1 0h11.3v4.3h-11.9l.6-4.3zm13.2 0h11.3l.5 4.3h-11.9l.1-4.3zm13.4 0h11.3l.9 4.3h-11.8l-.4-4.3zm-.2-2l-.1-.9-.3-2.7h10.7l.6 3.1.1.5h-11zm9.2-8.7l.6 2.9h-10.4l-.4-2.9h10.2zm9.4 3h-6.7l-.6-2.9h5.8l1.5 2.9zm-21.6-3l.4 2.9h-10.6v-2.9h10.2zm-13.8-4.5v-5.3h4.1v5.3h-4.1zm-30.1-9.6v-42.6h64.3v42.6h-64.3zm31.7 14.1v2.9h-10.4l.4-2.9h10zm-33.2 0h8.9l-.6 2.9h-9.6l1.3-2.9zm-2.2 5h10l-.5 2.6-.2 1h-10.9l1.6-3.6zm-2.5 5.7h11.2l-.9 4.3h-12.2l1.9-4.3zm67.7 4.3l-.9-4.3h9.3l2.4 4.3h-10.8zM23.9 29.3c-.4-.4-1.1-.4-1.5 0s-.4 1.1 0 1.5l1.5 1.5c.2.2.5.3.7.3.3 0 .5-.1.7-.3.4-.4.4-1.1 0-1.5l-1.4-1.5zM24.4 28.1c.3 0 .5-.1.7-.3l1.5-1.5c.4-.4.4-1.1 0-1.5s-1.1-.4-1.5 0l-1.5 1.5c-.4.4-.4 1.1 0 1.5.3.2.6.3.8.3zM28.8 23.7c.3 0 .5-.1.7-.3l1.5-1.4c.4-.4.4-1.1 0-1.5s-1.1-.4-1.5 0l-1.4 1.5c-.4.4-.4 1.1 0 1.5.2.1.4.2.7.2zM38.3 24.4c.2.2.5.3.7.3s.5-.1.7-.3c.4-.4.4-1.1 0-1.5l-1.5-1.5c-.4-.4-1.1-.4-1.5 0-.4.4-.4 1.1 0 1.5l1.6 1.5zM28.3 33.6c-.4-.4-1.1-.4-1.5 0s-.4 1.1 0 1.5l1.5 1.5c.2.2.5.3.7.3s.5-.1.7-.3c.4-.4.4-1.1 0-1.5l-1.4-1.5zM34.2 17.4c-.4-.4-1.1-.4-1.5 0l-.3.3c-.4.4-.4 1.1 0 1.5.2.2.5.3.8.3l.6.6c.2.2.5.3.7.3s.5-.1.7-.3c.4-.4.4-1.1 0-1.5l-1-1.2zM33.4 38.8l-.7-.8c-.4-.4-1.1-.4-1.5 0s-.4 1.1 0 1.5l1.5 1.5c.2.2.5.3.7.3.3 0 .5-.1.7-.3l.5-.5c.4-.4.4-1.1 0-1.5-.3-.4-.7-.4-1.2-.2zM75.6 40.5l-11.1-11.1c-.2-.2-.5-.3-.7-.3s-.5.1-.7.3l-4.5 4.5-9.4-9.5c-.4-.4-1.1-.4-1.5 0l-3.5 3.5c0-.2-.1-.4-.3-.5l-1.5-1.5c-.4-.4-1.1-.4-1.5 0-.4.4-.4 1.1 0 1.5l1.5 1.5c.2.2.4.2.5.3l-5.5 5.5v.1s-.1 0-.1.1l-1.5 1.5c-.4.4-.4 1.1 0 1.5.2.2.5.3.7.3.3 0 .5-.1.7-.3l.9-.9 9.4 9.4c.2.2.5.3.7.3.3 0 .5-.1.7-.3l3.5-3.5 10.9 10.1c.2.2.5.3.7.3.3 0 .5-.1.7-.3l11.1-11.1c.3-.4.3-1-.2-1.4zm-12.4-8.2h1.4l2.9 2.9h-7.2l2.9-2.9zm-14.7 11.5l-8.6-8.6 8.6-8.6 8.6 8.6-8.6 8.6zm16 6.3h-1.4l-2.9-2.9h7.2l-2.9 2.9zm5-4.9h-11.3l-2.9-2.9h17.2l-3 2.9zm-14.2-5l2.9-2.9h11.4l2.9 2.9h-17.2z"/></symbol><symbol viewBox="0 0 100 100" id="icon__facebook"><title>facebook</title> <path d="M90.1 5.1H10c-2.7 0-5 2.2-5 5v80.1c0 2.7 2.2 5 5 5h43.1V60.3H41.4V46.7h11.7V36.7c0-11.6 7.1-18 17.5-18 5 0 9.2 0.4 10.5 0.5v12.2l-7.2 0c-5.6 0-6.7 2.7-6.7 6.6v8.7h13.5l-1.8 13.6H67.2v34.9h22.9c2.7 0 5-2.2 5-5V10.1C95.1 7.4 92.8 5.1 90.1 5.1z"/> </symbol><symbol viewBox="0 0 100 100" id="icon__home"><title>home</title><path d="M49.4 65.1c-0.1 1.2 0 2.1-0.2 3 -0.3 2.5-3.1 3.8-5.1 2.2 -2.9-2.3-5.7-4.7-8.4-7.2 -1.6-1.4-1.5-3.6 0.2-5 2.6-2.2 5.2-4.4 7.7-6.7 1.1-1 2.3-1.4 3.7-0.8 1.5 0.6 2 1.8 2 3.3 0 0.4 0 0.9 0.1 1.6 1 0 2.1 0 3.1 0 1.5 0 3.1 0 4.6 0 7 0 12.1 5.1 12.2 12.1 0 4.7 0 9.4 0 14 0 3.7 1.9 5.6 5.5 5.6 3.3 0 6.7 0 10 0 1.9 0 2.8-0.8 2.8-2.8 0-10.4 0-20.8 0-31.2 0-1.6-0.5-3-1.7-4.1C74.5 37.6 63 26.1 51.6 14.7c-2-2-4.4-1.8-6.6 0.4 -7.8 7.8-15.5 15.5-23.3 23.3 -0.5 0.5-1 1.1-1.6 1.5 -1.9 1.6-4.5 1.5-6.3-0.1 -1.9-1.7-2.1-4.4-0.6-6.4 0.4-0.5 0.8-0.9 1.2-1.3 8-8 15.9-16 23.9-23.9C44.4 2 52.4 2 58.6 8.1c11.2 11.2 22.4 22.3 33.6 33.5 3.3 3.3 5 7.2 4.9 11.9 -0.1 10.2 0 20.5 0 30.7 0 6.8-4.4 11.9-11.3 12.4 -4.5 0.3-9 0.3-13.4-0.1 -7.2-0.7-12.5-6.8-12.6-14.1 -0.1-4.7 0-9.4 0-14 0-2.6-0.7-3.4-3.3-3.4C54.2 65.1 51.9 65.1 49.4 65.1z"/><path d="M8.3 95c-2.6 0-4.8-2.1-4.8-4.8L3.5 49.9c0-2.9 1.3-6.5 3.2-8.7l8.8-10.3c1.7-2 4.7-2.3 6.7-0.5 2 1.7 2.3 4.7 0.5 6.7L14 47.4c-0.4 0.5-0.9 1.9-0.9 2.5l0.1 40.3C13.1 92.9 11 95 8.3 95 8.3 95 8.3 95 8.3 95z"/></symbol><symbol viewBox="0 0 100 100" id="icon__html"><title>html</title><path d="M30 39h4.7v5.3h2.8v-12.5h-2.8v4.8h-4.7v-4.8h-2.8v12.5h2.8zM42.1 44.3h2.8v-10.2h3.4v-2.3h-9.5v2.3h3.3zM52.1 39.5c.1-1.6.1-3.5.2-5.2.3 1.6.7 3.4 1.1 4.9l1.3 4.8h2.3l1.5-4.9c.5-1.5 1-3.2 1.4-4.8h.1c0 1.8.1 3.6.1 5.1l.2 4.8h2.7l-.7-12.5h-3.7l-1.3 4.2c-.4 1.4-.8 3-1.2 4.5h-.1c-.3-1.5-.7-3-1.1-4.5l-1.2-4.2h-3.7l-.8 12.5h2.6l.3-4.7zM67.8 31.8h-2.8v12.5h7.8v-2.4h-5zM72 10h-44c-5.1 0-9.2 4.1-9.2 9.2v61.6c0 5.1 4.1 9.2 9.2 9.2h44c5.1 0 9.2-4.1 9.2-9.2v-61.6c0-5.1-4.1-9.2-9.2-9.2zm6.7 70.8c0 3.7-3 6.7-6.7 6.7h-44c-3.7 0-6.7-3-6.7-6.7v-61.6c0-3.7 3-6.7 6.7-6.7h44c3.7 0 6.7 3 6.7 6.7v61.6zM27.8 60.5h44.1v2.5h-44.1zM27.8 66.7h44.1v2.5h-44.1zM27.8 72.8h44.1v2.5h-44.1z"/></symbol><symbol viewBox="0 0 250 156.493" id="icon__logo"><title>logo</title><path fill-rule="evenodd" clip-rule="evenodd" fill="url(#svgstore58977f6f1c0b198007a2fce35ab67093a)" d="M52.781 138.867s-23.137-49.161-30.066-64.425c-6.396-14.089-12.971-28.098-19.15-42.28-5.982-13.731-1.812-23.5 9.389-29.015 11.127-5.478 23.005-.147 28.658 12.263 8.212 18.025 35.936 65.438 35.936 65.438"/><path opacity=".05" fill-rule="evenodd" clip-rule="evenodd" fill="#0D3147" d="M45.202 122.736l25.714-53.351 7.303 11.888-25.438 57.594z"/><path fill-rule="evenodd" clip-rule="evenodd" fill="url(#svgstore58977f6f1c0b198007a2fce35ab67093b)" d="M178.829 84.054c-9.926 15.236-14.885 34.075-23.668 50.27-7.44-16.082-22.345-44.75-29.982-61.259-2.081 4.206-3.529 6.943-4.812 9.754-9.103 19.925-18.168 39.867-27.252 59.8-4.544 9.971-13.403 15.199-23.001 13.584-10.003-1.684-16.62-9.557-18.102-20.479-.6-4.416-.004-7.83 2.704-11.426 2.11-2.805 3.141-6.422 4.642-9.682 15.402-33.439 30.755-66.899 46.231-100.305 5.232-11.297 15.955-16.051 27.121-11.468 3.928 1.612 9.405 10.25 9.868 11.282 8.873 19.77 27.713 50.886 36.251 69.929z"/><path opacity=".05" fill-rule="evenodd" clip-rule="evenodd" fill="#0D3147" d="M149.537 121.766l23.294-49.942s4.895 11.107 5.615 11.129l-22.043 53.915-6.866-15.102z"/><path fill-rule="evenodd" clip-rule="evenodd" fill="url(#svgstore58977f6f1c0b198007a2fce35ab67093c)" d="M155.021 134.34c1.014-3.203 1.705-6.557 3.093-9.588 16.714-36.55 33.517-73.062 50.334-109.565 5.82-12.631 17.767-17.226 30.049-11.671 9.87 4.463 13.58 17.048 8.213 28.872-16.858 37.137-33.802 74.235-50.778 111.317-4.468 9.76-14.294 14.572-24.222 12.135-9.535-2.342-16.306-11.295-16.689-21.5z"/></symbol><symbol viewBox="0 0 100 100" id="icon__menu"><title>menu</title><rect x="13.7" y="64.1" width="71.6" height="4.8"/><rect x="13.7" y="47.7" width="71.6" height="4.8"/><rect x="13.7" y="31.3" width="71.6" height="4.8"/></symbol><symbol viewBox="0 0 100 100" id="icon__mouse"><title>mouse</title><path d="M50.5 5.2c-13.7 0-25 11.1-25 24.7v39c0 13.7 11.3 24.7 25 24.7s24.7-11.1 24.7-24.7v-38.9c.1-13.7-11-24.8-24.7-24.8zm19.2 63.7c0 10.6-8.6 19.2-19.2 19.2s-19.5-8.5-19.5-19.2v-38.9c0-10.6 8.8-19.2 19.5-19.2s19.2 8.5 19.2 19.2v38.9zm-19.3-47.1c-1.5 0-2.8 1.2-2.8 2.8v13.8c0 1.5 1.2 2.8 2.8 2.8s2.8-1.2 2.8-2.8v-13.8c0-1.5-1.3-2.8-2.8-2.8z" fill="#ffffff"/></symbol><symbol viewBox="0 0 100 100" id="icon__twitter"><title>twitter</title> <path d="M95.297 21.646c-3.317 1.471-6.883 2.465-10.626 2.913 3.821-2.289 6.753-5.917 8.134-10.236 -3.574 2.119-7.533 3.66-11.748 4.489 -3.375-3.595-8.184-5.842-13.504-5.842 -10.218 0-18.502 8.283-18.502 18.501 0 1.45 0.164 2.86 0.479 4.216 -15.376-0.771-29.009-8.138-38.135-19.331 -1.592 2.732-2.504 5.91-2.504 9.302 0 6.419 3.266 12.081 8.23 15.399 -3.033-0.097-5.886-0.929-8.38-2.313 -0.001 0.077-0.001 0.153-0.001 0.232 0 8.965 6.377 16.442 14.841 18.141 -1.553 0.425-3.187 0.649-4.875 0.649 -1.192 0-2.351-0.115-3.48-0.332 2.354 7.35 9.187 12.7 17.282 12.85 -6.332 4.962-14.308 7.919-22.977 7.919 -1.493 0-2.966-0.088-4.414-0.258 8.188 5.25 17.913 8.312 28.361 8.312 34.032 0 52.64-28.192 52.64-52.639 0-0.804-0.018-1.603-0.054-2.395C89.681 28.615 92.817 25.355 95.297 21.646z"/> </symbol><symbol viewBox="0 0 100 100" id="icon__view"><title>view</title><path d="M50 24c13.3 0.1 25.2 4.5 36.2 11.5 3.8 2.4 7.3 5.2 10.8 8.1 3.1 2.6 3.1 6.2 0 8.8C85.5 62.6 72.4 69.7 57 71.8c-12.8 1.8-24.8-1.3-36.2-7 -6.5-3.2-12.5-7.1-17.6-12.3 -3.2-3.2-3.2-6.2 0.3-9.2 11.4-9.8 24.3-16.6 39.4-18.9 1.3-0.2 2.5-0.3 3.8-0.4C47.7 24 48.9 24 50 24zM42.3 35.8c-10.3 2-19 6.4-27.3 12.4 8 5.8 16.5 10 26.1 11.9C33.4 50.4 33.6 44.6 42.3 35.8zM59.9 59.9c9.2-2.2 17.3-6.3 24.9-11.8 -8-5.7-16.2-9.9-25.9-11.9C67 45.8 67.2 50.7 59.9 59.9z"/></symbol><symbol viewBox="0 0 100 100" id="icon__wireframe"><title>wireframe</title><path d="M87.2 14h-72.5c-2.1 0-3.8 1.7-3.8 3.8v66.2h80v-66.3c.1-2-1.6-3.7-3.7-3.7zm-53.1 1.9h46.2c1 0 1.9.8 1.9 1.9s-.8 1.9-1.9 1.9h-46.2c-1 0-1.9-.8-1.9-1.9s.9-1.9 1.9-1.9zm-10.4.8c.6 0 1.1.5 1.1 1.1s-.5 1.1-1.1 1.1-1.1-.5-1.1-1.1.5-1.1 1.1-1.1zm-3.2 0c.6 0 1.1.5 1.1 1.1s-.5 1.1-1.1 1.1-1.1-.5-1.1-1.1.5-1.1 1.1-1.1zm-3.2 0c.6 0 1.1.5 1.1 1.1s-.5 1.1-1.1 1.1-1.1-.5-1.1-1.1.5-1.1 1.1-1.1zm72.4 66h-77.5v-61.2h77.5v61.2zM63.7 27.7h18.5v13.8h-18.5zM41.5 27.7h18.3v13.8h-18.3zM19.8 27.7h17.9v13.8h-17.9zM41.5 60.2h40.8v1.2h-40.8zM41.5 64h40.8v1.2h-40.8zM41.5 67.7h40.8v1.2h-40.8zM41.5 71.5h40.8v1.2h-40.8zM41.5 75.2h40.8v1.2h-40.8zM41.5 49h40.8v1.3h-40.8zM41.5 52.7h40.8v1.2h-40.8zM41.5 56.5h40.8v1.2h-40.8zM41.5 45.2h40.8v1.2h-40.8zM19.8 45.2h17.9v13.8h-17.9zM19.8 62.7h17.9v13.8h-17.9z"/></symbol></svg>