<svg viewBox="0 0 100 100" xmlns="http://www.w3.org/2000/svg" class="hide"><defs> <linearGradient id="svgstore560d4a409f45049454c58c1ad9bcc688SVGID_1_" gradientUnits="userSpaceOnUse" x1="206.7314" y1="221.7275" x2="-1.0278" y2="31.3934"> <stop offset="0" style="stop-color:#49C1F0"/> <stop offset="1" style="stop-color:#74B737"/> </linearGradient> <linearGradient id="svgstore560d4a409f45049454c58c1ad9bcc688SVGID_2_" gradientUnits="userSpaceOnUse" x1="213.5771" y1="184.2979" x2="12.3287" y2="-0.0716"> <stop offset="0" style="stop-color:#49C1F0"/> <stop offset="1" style="stop-color:#74B737"/> </linearGradient> <linearGradient id="svgstore560d4a409f45049454c58c1ad9bcc688SVGID_3_" gradientUnits="userSpaceOnUse" x1="242.9912" y1="115.5234" x2="67.2104" y2="-45.5144"> <stop offset="0" style="stop-color:#49C1F0"/> <stop offset="1" style="stop-color:#74B737"/> </linearGradient> </defs><symbol viewBox="0 0 100 100" id="icon__facebook"><title>facebook</title> <path d="M90.1 5.1H10c-2.7 0-5 2.2-5 5v80.1c0 2.7 2.2 5 5 5h43.1V60.3H41.4V46.7h11.7V36.7c0-11.6 7.1-18 17.5-18 5 0 9.2 0.4 10.5 0.5v12.2l-7.2 0c-5.6 0-6.7 2.7-6.7 6.6v8.7h13.5l-1.8 13.6H67.2v34.9h22.9c2.7 0 5-2.2 5-5V10.1C95.1 7.4 92.8 5.1 90.1 5.1z"/> </symbol><symbol viewBox="0 0 100 100" id="icon__home"><title>home</title><path d="M49.4 65.1c-0.1 1.2 0 2.1-0.2 3 -0.3 2.5-3.1 3.8-5.1 2.2 -2.9-2.3-5.7-4.7-8.4-7.2 -1.6-1.4-1.5-3.6 0.2-5 2.6-2.2 5.2-4.4 7.7-6.7 1.1-1 2.3-1.4 3.7-0.8 1.5 0.6 2 1.8 2 3.3 0 0.4 0 0.9 0.1 1.6 1 0 2.1 0 3.1 0 1.5 0 3.1 0 4.6 0 7 0 12.1 5.1 12.2 12.1 0 4.7 0 9.4 0 14 0 3.7 1.9 5.6 5.5 5.6 3.3 0 6.7 0 10 0 1.9 0 2.8-0.8 2.8-2.8 0-10.4 0-20.8 0-31.2 0-1.6-0.5-3-1.7-4.1C74.5 37.6 63 26.1 51.6 14.7c-2-2-4.4-1.8-6.6 0.4 -7.8 7.8-15.5 15.5-23.3 23.3 -0.5 0.5-1 1.1-1.6 1.5 -1.9 1.6-4.5 1.5-6.3-0.1 -1.9-1.7-2.1-4.4-0.6-6.4 0.4-0.5 0.8-0.9 1.2-1.3 8-8 15.9-16 23.9-23.9C44.4 2 52.4 2 58.6 8.1c11.2 11.2 22.4 22.3 33.6 33.5 3.3 3.3 5 7.2 4.9 11.9 -0.1 10.2 0 20.5 0 30.7 0 6.8-4.4 11.9-11.3 12.4 -4.5 0.3-9 0.3-13.4-0.1 -7.2-0.7-12.5-6.8-12.6-14.1 -0.1-4.7 0-9.4 0-14 0-2.6-0.7-3.4-3.3-3.4C54.2 65.1 51.9 65.1 49.4 65.1z"/><path d="M8.3 95c-2.6 0-4.8-2.1-4.8-4.8L3.5 49.9c0-2.9 1.3-6.5 3.2-8.7l8.8-10.3c1.7-2 4.7-2.3 6.7-0.5 2 1.7 2.3 4.7 0.5 6.7L14 47.4c-0.4 0.5-0.9 1.9-0.9 2.5l0.1 40.3C13.1 92.9 11 95 8.3 95 8.3 95 8.3 95 8.3 95z"/></symbol><symbol viewBox="0 0 250 156.493" id="icon__logo"><title>logo</title>  <path fill-rule="evenodd" clip-rule="evenodd" fill="url(#svgstore560d4a409f45049454c58c1ad9bcc688SVGID_1_)" d="M52.781,138.867c0,0-23.137-49.161-30.066-64.425  c-6.396-14.089-12.971-28.098-19.15-42.28c-5.982-13.731-1.812-23.5,9.389-29.015C24.081-2.331,35.959,3,41.612,15.41  c8.212,18.025,35.936,65.438,35.936,65.438"/> <polygon opacity="0.05" fill-rule="evenodd" clip-rule="evenodd" fill="#0D3147" points="45.202,122.736 70.916,69.385   78.219,81.273 52.781,138.867 "/> <path fill-rule="evenodd" clip-rule="evenodd" fill="url(#svgstore560d4a409f45049454c58c1ad9bcc688SVGID_2_)" d="M178.829,84.054c-9.926,15.236-14.885,34.075-23.668,50.27  c-7.44-16.082-22.345-44.75-29.982-61.259c-2.081,4.206-3.529,6.943-4.812,9.754c-9.103,19.925-18.168,39.867-27.252,59.8  c-4.544,9.971-13.403,15.199-23.001,13.584c-10.003-1.684-16.62-9.557-18.102-20.479c-0.6-4.416-0.004-7.83,2.704-11.426  c2.11-2.805,3.141-6.422,4.642-9.682c15.402-33.439,30.755-66.899,46.231-100.305C110.821,3.014,121.544-1.74,132.71,2.843  c3.928,1.612,9.405,10.25,9.868,11.282C151.451,33.895,170.291,65.011,178.829,84.054z"/> <path opacity="0.05" fill-rule="evenodd" clip-rule="evenodd" fill="#0D3147" d="M149.537,121.766l23.294-49.942  c0,0,4.895,11.107,5.615,11.129s-22.043,53.915-22.043,53.915L149.537,121.766z"/> <path fill-rule="evenodd" clip-rule="evenodd" fill="url(#svgstore560d4a409f45049454c58c1ad9bcc688SVGID_3_)" d="M155.021,134.34c1.014-3.203,1.705-6.557,3.093-9.588  c16.714-36.55,33.517-73.062,50.334-109.565c5.82-12.631,17.767-17.226,30.049-11.671c9.87,4.463,13.58,17.048,8.213,28.872  c-16.858,37.137-33.802,74.235-50.778,111.317c-4.468,9.76-14.294,14.572-24.222,12.135  C162.175,153.498,155.404,144.545,155.021,134.34z"/> </symbol><symbol viewBox="0 0 100 100" id="icon__menu"><title>menu</title><rect x="13.7" y="64.1" width="71.6" height="4.8"/><rect x="13.7" y="47.7" width="71.6" height="4.8"/><rect x="13.7" y="31.3" width="71.6" height="4.8"/></symbol><symbol viewBox="0 0 100 100" id="icon__twitter"><title>twitter</title> <path d="M95.297 21.646c-3.317 1.471-6.883 2.465-10.626 2.913 3.821-2.289 6.753-5.917 8.134-10.236 -3.574 2.119-7.533 3.66-11.748 4.489 -3.375-3.595-8.184-5.842-13.504-5.842 -10.218 0-18.502 8.283-18.502 18.501 0 1.45 0.164 2.86 0.479 4.216 -15.376-0.771-29.009-8.138-38.135-19.331 -1.592 2.732-2.504 5.91-2.504 9.302 0 6.419 3.266 12.081 8.23 15.399 -3.033-0.097-5.886-0.929-8.38-2.313 -0.001 0.077-0.001 0.153-0.001 0.232 0 8.965 6.377 16.442 14.841 18.141 -1.553 0.425-3.187 0.649-4.875 0.649 -1.192 0-2.351-0.115-3.48-0.332 2.354 7.35 9.187 12.7 17.282 12.85 -6.332 4.962-14.308 7.919-22.977 7.919 -1.493 0-2.966-0.088-4.414-0.258 8.188 5.25 17.913 8.312 28.361 8.312 34.032 0 52.64-28.192 52.64-52.639 0-0.804-0.018-1.603-0.054-2.395C89.681 28.615 92.817 25.355 95.297 21.646z"/> </symbol><symbol viewBox="0 0 100 100" id="icon__view"><title>view</title><path d="M50 24c13.3 0.1 25.2 4.5 36.2 11.5 3.8 2.4 7.3 5.2 10.8 8.1 3.1 2.6 3.1 6.2 0 8.8C85.5 62.6 72.4 69.7 57 71.8c-12.8 1.8-24.8-1.3-36.2-7 -6.5-3.2-12.5-7.1-17.6-12.3 -3.2-3.2-3.2-6.2 0.3-9.2 11.4-9.8 24.3-16.6 39.4-18.9 1.3-0.2 2.5-0.3 3.8-0.4C47.7 24 48.9 24 50 24zM42.3 35.8c-10.3 2-19 6.4-27.3 12.4 8 5.8 16.5 10 26.1 11.9C33.4 50.4 33.6 44.6 42.3 35.8zM59.9 59.9c9.2-2.2 17.3-6.3 24.9-11.8 -8-5.7-16.2-9.9-25.9-11.9C67 45.8 67.2 50.7 59.9 59.9z"/></symbol></svg>