<svg xmlns="http://www.w3.org/2000/svg" viewBox="0 0 336.3 76.1" enable-background="new 0 0 336.3 76.1"><path fill="#650C49" d="M336.2 8.3c-9.2.4-23.5.4-40.4-2.8-11.5-2.2-15.6-5.1-23.5-5.4-16.4-.5-28.9 6.3-50.7 9.2-30.8 4.1-70.7-3.1-106.9-5.7-29-2-33.7 11.6-62.7 12-22 .3-40-3.9-52.1-7.6l.3 68.2h336v-67.9z"/><ellipse fill="#881F68" cx="16.8" cy="25.3" rx="4.9" ry="2"/><ellipse fill="#881F68" cx="39.8" cy="29.3" rx="4.9" ry="2"/><ellipse fill="#881F68" cx="66.8" cy="24.2" rx="4.9" ry="2"/><ellipse fill="#881F68" cx="50.8" cy="24.2" rx="2.7" ry="1.1"/><ellipse fill="#881F68" cx="62.9" cy="28.4" rx="2.7" ry="1.1"/><path fill="#881F68" d="M27.6 31.3c0 .6-1.2 1.1-2.7 1.1-1.5 0-2.7-.5-2.7-1.1 0-.6 1.2-1.1 2.7-1.1 1.5 0 2.7.5 2.7 1.1z"/><ellipse fill="#881F68" cx="10.9" cy="19.3" rx="2.7" ry="1.1"/><path fill="#881F68" d="M88.2 20.4c0 .6-1.2 1.1-2.7 1.1-1.5 0-2.7-.5-2.7-1.1 0-.6 1.2-1.1 2.7-1.1 1.5 0 2.7.5 2.7 1.1z"/><path fill="#4D0835" d="M33.6 23.3c0 .4-.8.8-1.8.8s-1.8-.3-1.8-.8c0-.4.8-.7 1.8-.7 1-.1 1.8.2 1.8.7z"/><ellipse fill="#4D0835" cx="12.7" cy="31.3" rx="1.8" ry=".8"/><ellipse fill="#4D0835" cx="55.4" cy="32.4" rx="1.8" ry=".8"/><ellipse fill="#4D0835" cx="75.3" cy="19.3" rx="1.8" ry=".8"/><ellipse fill="#4D0835" cx="76.8" cy="31.3" rx="1.8" ry=".8"/><ellipse fill="#4D0835" cx="98.2" cy="24" rx="1.8" ry=".8"/><ellipse fill="#881F68" cx="88.3" cy="29.3" rx="4.9" ry="2"/><path fill="#881F68" d="M117.6 17.6c0 1.1-2.2 2-4.9 2s-4.9-.9-4.9-2 2.2-2 4.9-2 4.9.9 4.9 2zM142.5 23c0 1.1-2.2 2-4.9 2s-4.9-.9-4.9-2 2.2-2 4.9-2c2.8 0 4.9.9 4.9 2z"/><ellipse fill="#881F68" cx="164.9" cy="20" rx="4.9" ry="2"/><ellipse fill="#881F68" cx="148.9" cy="20" rx="2.7" ry="1.1"/><ellipse fill="#881F68" cx="161.1" cy="24.2" rx="2.7" ry="1.1"/><ellipse fill="#881F68" cx="123" cy="23" rx="2.7" ry="1.1"/><ellipse fill="#881F68" cx="101" cy="14.4" rx="2.7" ry="1.1"/><ellipse fill="#881F68" cx="183.7" cy="16.2" rx="2.7" ry="1.1"/><path fill="#4D0835" d="M133 14.1c0 .4-.8.8-1.8.8s-1.8-.3-1.8-.8c0-.4.8-.7 1.8-.7 1-.1 1.8.3 1.8.7z"/><ellipse fill="#4D0835" cx="107.8" cy="26.4" rx="1.8" ry=".8"/><ellipse fill="#4D0835" cx="153.6" cy="28.2" rx="1.8" ry=".8"/><path fill="#4D0835" d="M175.2 15.1c0 .4-.8.8-1.8.8s-1.8-.3-1.8-.8c0-.4.8-.8 1.8-.8 1 .1 1.8.4 1.8.8z"/><ellipse fill="#4D0835" cx="174.9" cy="27.1" rx="1.8" ry=".8"/><ellipse fill="#4D0835" cx="196.3" cy="19.9" rx="1.8" ry=".8"/><ellipse fill="#881F68" cx="186.4" cy="25.1" rx="4.9" ry="2"/><ellipse fill="#881F68" cx="216.9" cy="23.6" rx="4.9" ry="2"/><ellipse fill="#881F68" cx="239.8" cy="27.6" rx="4.9" ry="2"/><path fill="#881F68" d="M269.2 11.8c0 1.1-2.2 2-4.9 2s-4.9-.9-4.9-2 2.2-2 4.9-2 4.9.9 4.9 2z"/><ellipse fill="#881F68" cx="315.3" cy="22.1" rx="4.9" ry="2"/><ellipse fill="#881F68" cx="251.2" cy="17.3" rx="2.7" ry="1.1"/><ellipse fill="#881F68" cx="262.4" cy="20.9" rx="2.7" ry="1.1"/><path fill="#881F68" d="M227.6 29.6c0 .6-1.2 1.1-2.7 1.1-1.5 0-2.7-.5-2.7-1.1 0-.6 1.2-1.1 2.7-1.1 1.5 0 2.7.5 2.7 1.1z"/><ellipse fill="#881F68" cx="211" cy="17.6" rx="2.7" ry="1.1"/><path fill="#881F68" d="M296.3 14.1c0 .6-1.2 1.1-2.7 1.1-1.5 0-2.7-.5-2.7-1.1 0-.6 1.2-1.1 2.7-1.1 1.5 0 2.7.5 2.7 1.1z"/><ellipse fill="#881F68" cx="308.9" cy="29" rx="2.7" ry="1.1"/><path fill="#4D0835" d="M233.6 21.6c0 .4-.8.8-1.8.8s-1.8-.3-1.8-.8c0-.4.8-.8 1.8-.8 1 .1 1.8.4 1.8.8zM214.6 29.6c0 .4-.8.8-1.8.8s-1.8-.3-1.8-.8c0-.4.8-.8 1.8-.8 1 .1 1.8.4 1.8.8z"/><ellipse fill="#4D0835" cx="251.2" cy="24.2" rx="1.8" ry=".8"/><ellipse fill="#4D0835" cx="276.4" cy="11.8" rx="1.8" ry=".8"/><ellipse fill="#4D0835" cx="272.5" cy="22.1" rx="1.8" ry=".8"/><ellipse fill="#4D0835" cx="298.2" cy="22.4" rx="1.8" ry=".8"/><ellipse fill="#4D0835" cx="325.3" cy="28.5" rx="1.8" ry=".8"/><ellipse fill="#881F68" cx="286.2" cy="21.9" rx="4.9" ry="2"/></svg>